<?xml version="1.0" encoding="UTF-8" standalone="no"?>
<!-- Generator: Adobe Illustrator 15.1.0, SVG Export Plug-In . SVG Version: 6.00 Build 0)  -->

<svg
   xmlns:dc="http://purl.org/dc/elements/1.1/"
   xmlns:cc="http://creativecommons.org/ns#"
   xmlns:rdf="http://www.w3.org/1999/02/22-rdf-syntax-ns#"
   xmlns:svg="http://www.w3.org/2000/svg"
   xmlns="http://www.w3.org/2000/svg"
   xmlns:sodipodi="http://sodipodi.sourceforge.net/DTD/sodipodi-0.dtd"
   xmlns:inkscape="http://www.inkscape.org/namespaces/inkscape"
   version="1.1"
   id="Layer_1"
   x="0px"
   y="0px"
   width="597.61255"
   height="155.17006"
   viewBox="0 0 597.61255 155.17006"
   enable-background="new 0 0 612 792"
   xml:space="preserve"
   inkscape:version="0.91 r13725"
   sodipodi:docname="basecamp.svg"><metadata
     id="metadata49"><rdf:RDF><cc:Work
         rdf:about=""><dc:format>image/svg+xml</dc:format><dc:type
           rdf:resource="http://purl.org/dc/dcmitype/StillImage" /><dc:title></dc:title></cc:Work></rdf:RDF></metadata><defs
     id="defs47" /><sodipodi:namedview
     pagecolor="#ffffff"
     bordercolor="#666666"
     borderopacity="1"
     objecttolerance="10"
     gridtolerance="10"
     guidetolerance="10"
     inkscape:pageopacity="0"
     inkscape:pageshadow="2"
     inkscape:window-width="1366"
     inkscape:window-height="702"
     id="namedview45"
     showgrid="false"
     inkscape:zoom="0.93923779"
     inkscape:cx="222.53752"
     inkscape:cy="61.763969"
     inkscape:window-x="0"
     inkscape:window-y="27"
     inkscape:window-maximized="1"
     inkscape:current-layer="Layer_1"
     fit-margin-top="0"
     fit-margin-left="0"
     fit-margin-right="0"
     fit-margin-bottom="0" /><g
     id="g4231"
     transform="matrix(2.1514345,0,0,2.1514345,-360.56536,-775.58568)"><g
       id="g3"><radialGradient
         gradientUnits="userSpaceOnUse"
         r="39.828602"
         cy="396.55911"
         cx="210.8623"
         id="SVGID_1_"><stop
           id="stop6"
           style="stop-color:#FFFFFF"
           offset="0" /><stop
           id="stop8"
           style="stop-color:#8DD7F7"
           offset="1" /></radialGradient><path
         id="path10"
         d="m 210.863,360.497 c -23.295,0 -41.543,29.637 -43.27,54.669 7.309,12.684 24.936,17.455 43.27,17.455 18.332,0 35.961,-4.771 43.268,-17.455 -1.727,-25.032 -19.975,-54.669 -43.268,-54.669 z"
         style="fill:url(#SVGID_1_)"
         inkscape:connector-curvature="0" /><radialGradient
         gradientUnits="userSpaceOnUse"
         gradientTransform="matrix(-1,0,0,1,370.8779,0)"
         r="50.9851"
         cy="364.49759"
         cx="154.05811"
         id="SVGID_2_"><stop
           id="stop13"
           style="stop-color:#CCE6C9"
           offset="0" /><stop
           id="stop15"
           style="stop-color:#6CBF70"
           offset="1" /></radialGradient><path
         id="path17"
         d="m 248.043,409.202 c 0,0 -5.145,-11.124 -10.375,-17.613 -5.23,-6.49 -11.622,-13.56 -15.4,-13.56 -3.776,0 -14.333,18.693 -19.177,18.693 -4.843,0 -7.36,-8.475 -13.317,-8.475 -5.957,0 -15.423,20.435 -15.423,20.435 l -0.641,3.461 c 0,0 3.289,14.58 37.69,14.58 34.403,0 37.153,-14.338 37.153,-14.338 l -0.51,-3.183 z"
         style="fill:url(#SVGID_2_)"
         inkscape:connector-curvature="0" /><g
         id="g19"><path
           id="path21"
           d="m 203.629,404.698 c -5.343,0 -8.08,-5.271 -9.564,-8.527 -1.336,-2.93 -1.566,-7.561 -5.357,-7.688 0.373,-0.148 0.73,-0.236 1.066,-0.236 5.957,0 8.475,8.475 13.317,8.475 4.844,0 15.4,-18.693 19.177,-18.693 0.711,0 1.514,0.25 2.383,0.698 -0.643,-0.085 -1.467,-0.025 -2.104,0.612 -1.221,1.221 -12.303,25.359 -18.918,25.359 z"
           inkscape:connector-curvature="0"
           style="fill:#0db04b" /></g></g><path
       inkscape:connector-curvature="0"
       d="m 275.045,415.633 -8.306,0 0,-28.943 8.431,0 c 6.502,0 9.606,2.936 9.606,7.508 0,3.021 -1.678,4.991 -4.194,6.04 3.229,1.007 5.369,3.104 5.369,6.963 0,5.705 -4.111,8.432 -10.906,8.432 z m -0.168,-24.707 -2.811,0 0,7.676 2.559,0 c 3.271,0 4.992,-1.468 4.992,-3.943 0,-2.306 -1.385,-3.733 -4.74,-3.733 z m 0.084,11.619 -2.895,0 0,8.852 2.979,0 c 3.523,0 5.578,-1.469 5.578,-4.363 0,-2.936 -1.971,-4.489 -5.662,-4.489 z"
       id="path25" /><path
       inkscape:connector-curvature="0"
       d="m 300.713,415.633 -0.42,-2.643 c -1.636,1.721 -3.732,3.063 -6.754,3.063 -3.439,0 -5.746,-2.098 -5.746,-5.621 0,-4.908 4.027,-7.047 12.207,-7.844 L 300,402 c 0,-2.182 -1.259,-3.02 -3.482,-3.02 -2.349,0 -4.572,0.671 -6.753,1.636 l -0.63,-4.027 c 2.35,-0.923 4.824,-1.636 8.055,-1.636 5.243,0 7.844,1.93 7.844,6.795 l 0,13.885 -4.321,0 z M 300,405.523 c -5.831,0.713 -7.215,2.434 -7.215,4.363 0,1.468 0.922,2.349 2.475,2.349 1.72,0 3.355,-0.798 4.74,-2.182 l 0,-4.53 z"
       id="path27" /><path
       inkscape:connector-curvature="0"
       d="m 315.811,416.01 c -2.937,0 -5.957,-0.922 -7.887,-1.971 l 0.672,-4.195 c 2.181,1.427 4.865,2.392 7.383,2.392 2.181,0 3.355,-0.798 3.355,-2.098 0,-1.427 -0.881,-2.013 -4.111,-2.81 -4.907,-1.26 -6.963,-2.686 -6.963,-6.377 0,-3.48 2.769,-5.956 7.467,-5.956 2.643,0 5.075,0.503 7.089,1.426 l -0.671,4.195 c -2.014,-1.133 -4.404,-1.846 -6.418,-1.846 -1.888,0 -2.811,0.713 -2.811,1.846 0,1.091 0.755,1.678 3.775,2.475 5.243,1.343 7.299,2.769 7.299,6.585 0,3.986 -2.853,6.334 -8.179,6.334 z"
       id="path29" /><path
       inkscape:connector-curvature="0"
       d="m 343.869,406.488 -13.003,0 c 0.251,3.943 2.349,5.663 5.453,5.663 2.601,0 4.739,-0.965 6.963,-2.517 l 0.587,3.943 c -2.181,1.51 -4.823,2.475 -8.096,2.475 -5.662,0 -9.898,-3.23 -9.898,-10.529 0,-6.586 3.942,-10.57 9.228,-10.57 6.082,0 8.809,4.572 8.809,10.318 -10e-4,0.42 -0.043,0.924 -0.043,1.217 z m -8.892,-8.053 c -2.014,0 -3.649,1.595 -4.027,4.907 l 8.055,0 c -0.337,-3.145 -1.596,-4.907 -4.028,-4.907 z"
       id="path31" /><path
       inkscape:connector-curvature="0"
       d="m 355.485,416.01 c -5.62,0 -9.605,-3.774 -9.605,-10.402 0,-7.047 4.404,-10.654 9.773,-10.654 2.727,0 4.74,0.713 6.334,1.72 l -0.713,4.53 c -1.72,-1.301 -3.355,-1.888 -5.327,-1.888 -2.895,0 -4.992,2.14 -4.992,6.167 0,4.193 2.266,6.207 5.328,6.207 1.762,0 3.355,-0.461 5.243,-1.93 l 0.671,4.279 c -2.055,1.426 -4.152,1.971 -6.712,1.971 z"
       id="path33" /><path
       inkscape:connector-curvature="0"
       d="m 376.959,415.633 -0.419,-2.643 c -1.636,1.721 -3.733,3.063 -6.754,3.063 -3.439,0 -5.746,-2.098 -5.746,-5.621 0,-4.908 4.026,-7.047 12.206,-7.844 l 0,-0.588 c 0,-2.182 -1.258,-3.02 -3.481,-3.02 -2.349,0 -4.572,0.671 -6.753,1.636 l -0.63,-4.027 c 2.35,-0.923 4.824,-1.636 8.054,-1.636 5.244,0 7.845,1.93 7.845,6.795 l 0,13.885 -4.322,0 z m -0.713,-10.11 c -5.83,0.713 -7.215,2.434 -7.215,4.363 0,1.468 0.923,2.349 2.476,2.349 1.72,0 3.355,-0.798 4.739,-2.182 l 0,-4.53 z"
       id="path35" /><path
       inkscape:connector-curvature="0"
       d="m 409.255,415.633 0,-13.255 c 0,-1.762 -0.629,-2.979 -2.475,-2.979 -1.552,0 -3.021,1.007 -4.488,2.517 l 0,13.717 -5.033,0 0,-13.255 c 0,-1.762 -0.672,-2.979 -2.518,-2.979 -1.552,0 -3.02,1.007 -4.488,2.517 l 0,13.717 -5.033,0 0,-20.26 4.278,0 0.462,2.852 c 1.888,-1.803 3.942,-3.271 6.669,-3.271 2.895,0 4.446,1.3 5.201,3.271 1.804,-1.803 4.027,-3.271 6.754,-3.271 3.817,0 5.705,2.307 5.705,6.082 l 0,14.598 -5.034,0 z"
       id="path37" /><path
       inkscape:connector-curvature="0"
       d="m 427.371,415.844 c -1.93,0 -3.481,-0.336 -4.698,-0.799 l 0,7.635 -5.033,0.756 0,-28.063 4.278,0 0.461,2.768 c 1.427,-1.635 3.398,-3.188 6.209,-3.188 4.236,0 7.634,3.188 7.634,9.983 0,7.55 -4.195,10.908 -8.851,10.908 z m -0.126,-16.445 c -1.804,0 -3.229,1.133 -4.572,2.853 l 0,8.684 c 1.217,0.586 2.182,0.881 3.901,0.881 2.601,0 4.572,-2.141 4.572,-6.586 0,-3.902 -1.636,-5.832 -3.901,-5.832 z"
       id="path39" /><g
       id="g41"><path
         id="path43"
         d="m 441.28,397.168 c -2.413,0 -4.087,-1.675 -4.087,-4.178 0,-2.484 1.71,-4.195 4.087,-4.195 2.413,0 4.087,1.693 4.087,4.195 0,2.486 -1.711,4.178 -4.087,4.178 z m 0,-7.887 c -1.944,0 -3.493,1.333 -3.493,3.709 0,2.359 1.549,3.691 3.493,3.691 1.962,0 3.511,-1.332 3.511,-3.691 0,-2.376 -1.566,-3.709 -3.511,-3.709 z m 1.044,5.924 -1.225,-1.818 -0.342,0 0,1.765 -1.025,0 0,-4.628 1.584,0 c 1.063,0 1.711,0.505 1.711,1.405 0,0.647 -0.324,1.062 -0.883,1.278 l 1.242,1.818 -1.062,0.18 z m -1.08,-3.852 -0.486,0 0,1.313 0.469,0 c 0.486,0 0.773,-0.216 0.773,-0.666 0,-0.414 -0.27,-0.647 -0.756,-0.647 z"
         inkscape:connector-curvature="0"
         style="fill:#cccbcb" /></g></g></svg>