<?xml version="1.0" encoding="UTF-8" standalone="no"?>
<!-- Created with Inkscape (http://www.inkscape.org/) -->

<svg
   xmlns:dc="http://purl.org/dc/elements/1.1/"
   xmlns:cc="http://creativecommons.org/ns#"
   xmlns:rdf="http://www.w3.org/1999/02/22-rdf-syntax-ns#"
   xmlns:svg="http://www.w3.org/2000/svg"
   xmlns="http://www.w3.org/2000/svg"
   xmlns:sodipodi="http://sodipodi.sourceforge.net/DTD/sodipodi-0.dtd"
   xmlns:inkscape="http://www.inkscape.org/namespaces/inkscape"
   version="1.1"
   width="920.33417"
   height="190.09184"
   id="svg3807"
   inkscape:version="0.91 r13725"
   sodipodi:docname="commitchange.svg">
  <sodipodi:namedview
     pagecolor="#ffffff"
     bordercolor="#666666"
     borderopacity="1"
     objecttolerance="10"
     gridtolerance="10"
     guidetolerance="10"
     inkscape:pageopacity="0"
     inkscape:pageshadow="2"
     inkscape:window-width="1366"
     inkscape:window-height="702"
     id="namedview24"
     showgrid="false"
     showguides="true"
     inkscape:guide-bbox="true"
     inkscape:zoom="0.89865443"
     inkscape:cx="548.14801"
     inkscape:cy="83.91817"
     inkscape:window-x="0"
     inkscape:window-y="27"
     inkscape:window-maximized="1"
     inkscape:current-layer="svg3807"
     fit-margin-top="0"
     fit-margin-left="0"
     fit-margin-right="0"
     fit-margin-bottom="0">
    <sodipodi:guide
       position="381.54552,190.43521"
       orientation="0,1"
       id="guide4214" />
    <sodipodi:guide
       position="359.47069,0.71106664"
       orientation="0,1"
       id="guide4216" />
    <sodipodi:guide
       position="364.24363,100.34608"
       orientation="0,1"
       id="guide4218" />
  </sodipodi:namedview>
  <defs
     id="defs3809" />
  <metadata
     id="metadata3812">
    <rdf:RDF>
      <cc:Work
         rdf:about="">
        <dc:format>image/svg+xml</dc:format>
        <dc:type
           rdf:resource="http://purl.org/dc/dcmitype/StillImage" />
        <dc:title></dc:title>
      </cc:Work>
    </rdf:RDF>
  </metadata>
  <g
     id="g4867">
    <path
       d="m 158.74339,164.86316 c 1.03593,-0.98249 2.07371,-1.99999 3.11518,-3.03961 l 0,0.0682 c 16.65424,-16.70216 24.98044,-36.82366 24.98044,-60.37554 0,-23.551874 -8.3262,-43.654937 -24.98044,-60.309177 -16.65977,-16.685576 -36.77389,-25.004401 -60.34051,-25.004401 -23.500273,0 -43.577523,8.320668 -60.237293,25.004401 -16.70401,16.65424 -25.05786,36.755453 -25.05786,60.309177 0,23.49474 8.352,43.59964 25.05786,60.30734 0.35944,0.37419 0.71888,0.73916 1.06911,1.09676 0.98801,-14.14734 6.6193,-26.37213 16.8865,-36.68356 l 0,-0.0774 c 1.85067,-1.82856 3.78983,-3.54283 5.81378,-5.12807 -7.12253,-8.55292 -10.67826,-18.5381 -10.67826,-29.979474 0,-13.1022 4.63775,-24.292891 13.91325,-33.575764 9.27734,-9.273655 20.46988,-13.909562 33.572073,-13.909562 13.10957,0 24.29842,4.635907 33.57392,13.909562 9.27918,9.282873 13.92062,20.471724 13.92062,33.575764 0,12.069944 -3.94467,22.514094 -11.82479,31.337984 1.39538,1.16129 2.77602,2.42395 4.13453,3.76956 10.80176,10.8165 16.49756,23.71777 17.08189,38.70383 z M 173.33866,29.71957 c 19.8026,19.806288 29.70667,43.736046 29.70667,71.79664 0,28.0053 -9.90407,51.9369 -29.70667,71.78927 -6.1806,6.13636 -12.72985,11.34 -19.65514,15.61278 -1.79906,1.07095 -3.71794,1.41565 -5.74189,1.00644 -2.03132,-0.40553 -3.67185,-1.42119 -4.94189,-3.04514 -1.26266,-1.65528 -1.79906,-3.51702 -1.60736,-5.59442 l 1.14469,-14.18237 c -0.0461,-11.48378 -4.16771,-21.30121 -12.3575,-29.45967 -2.98431,-2.96771 -6.164,-5.38797 -9.53541,-7.27182 -1.67187,-0.9106 -2.84237,-2.23962 -3.49674,-3.98523 -0.76866,-1.77141 -0.88294,-3.53545 -0.35023,-5.29027 0.48848,-1.78801 1.50045,-3.25712 3.04329,-4.37969 1.447,-1.08018 2.81104,-2.27648 4.11426,-3.57417 6.12898,-6.12713 9.19255,-13.483754 9.19255,-22.086454 0,-8.61007 -3.06357,-15.97406 -9.19255,-22.084608 -6.11793,-6.132668 -13.48192,-9.196237 -22.09567,-9.196237 -8.591643,0 -15.959323,3.063569 -22.086463,9.196237 -6.11423,6.110548 -9.17411,13.476388 -9.17411,22.084608 0,8.6027 3.05804,15.959324 9.17411,22.086454 1.03778,1.02857 2.12349,1.96865 3.26265,2.82579 1.47649,1.16681 2.435,2.67463 2.89398,4.52899 0.44977,1.79907 0.27281,3.57232 -0.53824,5.32346 -0.80737,1.7198 -2.0516,3.01196 -3.72163,3.86909 -3.90964,1.93731 -7.55754,4.58061 -10.94737,7.9557 -8.18795,8.20454 -12.28377,18.11598 -12.28377,29.73063 l 0.94746,12.50865 c 0.12903,2.05712 -0.45161,3.89858 -1.75114,5.51516 -1.31612,1.67741 -2.98062,2.68754 -5.01378,3.04145 -2.05713,0.33364 -3.96864,-0.0811 -5.74005,-1.20921 -6.03129,-3.9078 -11.72709,-8.55292 -17.08373,-13.92246 C 9.937245,153.45495 0,129.5252 0,101.5199 0,73.457456 9.957521,49.529544 29.874407,29.723257 l -0.0774,0 C 49.605137,9.902223 73.510927,9.9999999e-7 101.51992,9.9999999e-7 129.58052,-0.003699 153.5158,9.898536 173.33868,29.71957 Z"
       id="path6453"
       style="fill:#1f8dd1;fill-opacity:1;fill-rule:evenodd"
       inkscape:connector-curvature="0" />
    <g
       transform="matrix(0.9570683,0,0,0.9570683,9.7366534,12.987536)"
       id="g4706">
      <g
         id="g4262"
         transform="matrix(1.0101577,0,0,1.0101577,-88.119764,-59.830896)">
        <g
           id="g4240">
          <path
             inkscape:connector-curvature="0"
             style="fill:#1f8dd1;fill-opacity:1"
             id="path6457"
             d="m 345.60355,87.098903 c -10.70618,0 -16.82914,7.959856 -16.82914,24.987097 0,16.523 6.6272,23.45634 17.34239,23.45634 10.20194,0 19.37288,-7.14496 19.37288,-7.14496 l 5.61872,9.18895 c 0,0 -10.71069,11.1159 -26.72494,11.1159 -20.70102,0 -32.6363,-12.43954 -32.6363,-36.10749 0,-23.965103 13.45702,-38.241508 34.36964,-38.241508 12.34048,0 23.7625,4.794803 23.7625,4.794803 l -0.50424,19.377394 -9.99484,0 -2.35013,-9.792257 c -0.004,0 -4.79483,-1.634269 -11.42654,-1.634269 z" />
          <path
             inkscape:connector-curvature="0"
             style="fill:#1f8dd1;fill-opacity:1"
             id="path6459"
             d="m 424.84642,118.9203 c 0,18.35537 -10.71519,29.57481 -27.22919,29.57481 -16.62204,0 -26.00459,-8.6712 -26.00459,-28.04408 0,-18.35537 10.90878,-29.061568 27.53533,-29.061568 16.523,0 25.69845,9.985848 25.69845,27.530838 z m -37.43113,1.02649 c 0,11.71918 3.26409,16.82015 10.71069,16.82015 7.34756,0 10.91328,-4.59223 10.91328,-17.3424 0,-10.90877 -3.06148,-16.3114 -10.40003,-16.3114 -7.45111,0.005 -11.22394,4.07899 -11.22394,16.83365 z" />
          <path
             inkscape:connector-curvature="0"
             style="fill:#1f8dd1;fill-opacity:1"
             id="path6461"
             d="m 513.26473,136.76694 6.93786,2.54823 0,8.15796 -27.32824,0 0,-8.15796 5.40713,-2.54823 0,-23.96511 c 0,-5.6097 -1.6298,-8.36505 -5.91587,-8.36505 -6.63172,0 -11.3185,5.30359 -11.3185,5.30359 l 0,27.03106 5.29908,2.54824 0,8.15796 -25.69844,0 0,-8.15796 5.30807,-2.54824 0,-23.9651 c 0,-5.60971 -1.42719,-8.36504 -5.81682,-8.36504 -6.62721,0 -11.41753,5.30357 -11.41753,5.30357 l 0,27.03109 5.40262,2.54823 0,8.15794 -28.25118,0 0,-8.15794 7.8518,-2.54823 0,-33.45569 -7.75275,-1.94046 0,-8.153443 21.01168,-0.819394 0.71584,7.230491 c 0,0 8.8783,-8.247992 17.84214,-8.247992 7.04141,0 11.52558,3.354122 13.87121,8.756758 1.73784,-1.724351 9.38255,-8.756758 18.45895,-8.756758 10.40453,0 15.39744,6.928872 15.39744,18.346388 l 0,27.03109 z" />
          <path
             inkscape:connector-curvature="0"
             style="fill:#1f8dd1;fill-opacity:1"
             id="path6463"
             d="m 607.29725,136.76694 6.93786,2.54823 0,8.15796 -27.33725,0 0,-8.15796 5.40713,-2.54823 0,-23.96511 c 0,-5.6097 -1.62978,-8.36505 -5.91587,-8.36505 -6.6272,0 -11.31847,5.30359 -11.31847,5.30359 l 0,27.03106 5.30806,2.54824 0,8.15796 -25.70293,0 0,-8.15796 5.30356,-2.54824 0,-23.9651 c 0,-5.60971 -1.4227,-8.36504 -5.81232,-8.36504 -6.6317,0 -11.42204,5.30357 -11.42204,5.30357 l 0,27.03109 5.40264,2.54823 0,8.15794 -28.24668,0 0,-8.15794 7.84729,-2.54823 0,-33.45569 -7.74375,-1.94046 0,-8.153443 21.00267,-0.819394 0.71134,7.230491 c 0,0 8.87829,-8.247992 17.85116,-8.247992 7.0369,0 11.52557,3.354122 13.87572,8.756758 1.72432,-1.724351 9.38253,-8.756758 18.45441,-8.756758 10.40905,0 15.40196,6.928872 15.40196,18.346388 l 0,27.03109 z" />
          <path
             inkscape:connector-curvature="0"
             style="fill:#1f8dd1;fill-opacity:1"
             id="path6465"
             d="m 637.08367,92.406963 0,44.364467 7.13594,2.54824 0,8.15796 -30.29066,0 0,-8.15796 8.15796,-2.54824 0,-33.35213 -8.15796,-2.0395 0,-8.153443 23.15472,-0.819394 z m -8.16246,-26.009092 c 5.30357,0 8.56314,2.750836 8.56314,9.170945 0,6.014907 -4.3851,9.283494 -8.56314,9.283494 -5.51066,0 -8.77024,-3.273082 -8.77024,-9.283494 0,-5.803316 4.17802,-9.170945 8.77024,-9.170945 z" />
          <path
             inkscape:connector-curvature="0"
             style="fill:#1f8dd1;fill-opacity:1"
             id="path6467"
             d="m 651.96788,124.02126 0,-19.07572 -9.4816,0 0,-9.684204 9.4816,-1.323639 0,-14.078297 14.99226,-2.755356 0,16.833653 14.27641,0 0,11.007843 -14.27641,0 0,23.04664 c 0,6.53268 1.11654,9.18897 5.39811,9.18897 2.75983,0 6.73526,-1.63881 8.0589,-2.35465 l 3.66927,7.34756 c -4.89387,3.46667 -11.52556,6.32556 -17.33789,6.32556 -11.51658,0 -14.78065,-6.83432 -14.78065,-24.47836 z" />
        </g>
        <g
           id="g4254">
          <path
             inkscape:connector-curvature="0"
             style="opacity:0.70106764;fill:#222222;fill-opacity:0.66666667"
             id="path6469"
             d="m 717.13694,87.098903 c -10.7107,0 -16.82015,7.959856 -16.82015,24.987097 0,16.523 6.62721,23.45634 17.33338,23.45634 10.19743,0 19.37739,-7.14496 19.37739,-7.14496 l 5.6142,9.18895 c 0,0 -10.71519,11.1159 -26.72493,11.1159 -20.70552,0 -32.64079,-12.43954 -32.64079,-36.10749 0,-23.965103 13.466,-38.241508 34.37413,-38.241508 12.33597,0 23.7625,4.794803 23.7625,4.794803 l -0.50425,19.377394 -9.99932,0 -2.34564,-9.792257 c 0,0 -4.79932,-1.634269 -11.42652,-1.634269 z" />
          <path
             inkscape:connector-curvature="0"
             style="opacity:0.70106764;fill:#222222;fill-opacity:0.66666667"
             id="path6471"
             d="m 765.26972,68.441862 0,29.880966 c 2.95793,-2.444675 9.58516,-6.928848 17.1308,-6.928848 10.40905,0 15.81615,6.928848 15.81615,18.34639 l 0,27.03106 7.14046,2.54824 0,8.15796 -27.53533,0 0,-8.15796 5.30356,-2.45369 0,-24.77998 c 0,-5.10099 -2.04399,-8.15796 -6.73525,-8.15796 -5.70877,0 -11.11587,5.40712 -11.11587,5.40712 l 0,27.43627 5.4071,2.54824 0,8.15796 -28.55731,0 0,-8.15796 8.15794,-2.54824 0,-57.321752 -8.15794,-2.043966 0,-8.153469 23.14569,-0.810381 z" />
          <path
             inkscape:connector-curvature="0"
             style="opacity:0.70106764;fill:#222222;fill-opacity:0.66666667"
             id="path6473"
             d="m 839.41613,147.47763 -1.8324,-6.63622 c 0,0 -7.85629,7.6537 -16.52749,7.6537 -9.89579,0 -15.80716,-5.8168 -15.80716,-16.01424 0,-12.03433 8.97735,-16.83365 24.47836,-16.83365 l 7.13594,0 0,-5.60521 c 0,-5.40713 -2.75081,-7.64471 -7.8518,-7.64471 -5.19551,0 -8.96835,1.52624 -8.96835,1.52624 l -1.53073,6.64071 -9.17994,0 -0.71585,-15.100313 c 0,0 12.34498,-4.069957 22.13722,-4.069957 15.4965,0 21.20977,5.398114 21.20977,20.18326 l 0,25.19419 7.6492,1.8324 0,8.15794 -20.19677,0.71586 z M 825.9546,137.0731 c 5.40713,0 10.90878,-5.91587 10.90878,-5.91587 l 0,-6.8298 -5.80781,0 c -7.95534,0 -11.11587,2.03947 -11.11587,6.6272 0,3.87187 2.14303,6.11847 6.0149,6.11847 z" />
          <path
             inkscape:connector-curvature="0"
             style="opacity:0.70106764;fill:#222222;fill-opacity:0.66666667"
             id="path6475"
             d="m 880.41297,92.406963 0.71134,7.032408 c 0,0 9.6887,-7.856296 18.7651,-7.856296 9.89579,0 15.19935,7.036902 15.19935,18.152775 l 0,27.03109 c 2.44917,0.81939 4.79031,1.73333 7.13595,2.54823 l 0,8.15796 -27.53082,0 0,-8.15796 5.40261,-2.54823 0,-24.68094 c 0,-4.69579 -2.65179,-8.15796 -6.93337,-8.15796 -6.32556,0 -10.91778,5.81233 -10.91778,5.81233 l 0,27.03106 5.30808,2.54824 0,8.15796 -28.25119,0 0,-8.15796 7.8518,-2.54824 0,-33.35213 -7.8518,-2.0395 0,-8.153443 21.11073,-0.819394 z" />
          <path
             inkscape:connector-curvature="0"
             style="opacity:0.70106764;fill:#222222;fill-opacity:0.66666667"
             id="path6477"
             d="m 933.44414,146.45563 c 0,0 -6.10946,-0.91394 -6.10946,-6.73076 0,-2.95344 4.07897,-9.58514 5.29908,-11.52108 -2.4492,-1.6298 -7.8518,-6.01942 -7.8518,-15.91069 0,-13.974766 10.50809,-20.903638 24.47835,-20.903638 5.91135,0 10.09388,1.52624 12.02982,2.440181 l 17.54499,-0.409697 0,8.162454 -8.36054,1.41819 c 0.20248,0.91843 1.73783,3.67379 1.73783,8.06341 0,14.78065 -10.40453,20.90811 -24.48285,20.90811 -2.74632,0 -4.79031,-0.50874 -5.20001,-0.50874 l -0.40071,6.82981 15.0913,0 c 12.9528,0 20.3949,5.60972 20.3949,15.81165 0,11.21943 -8.97286,19.37737 -28.54834,19.37737 -16.01875,0 -26.32424,-3.5702 -26.32424,-14.78514 -0.01,-8.77024 10.70168,-12.24143 10.70168,-12.24143 z m 8.97286,3.05698 c 0,0 -4.89387,2.25108 -4.89387,6.63172 0,5.09645 4.38511,6.10945 12.74567,6.10945 9.18443,0 13.0563,-2.03048 13.0563,-6.92435 0,-4.59223 -3.36311,-5.81682 -10.19743,-5.81682 l -10.71067,0 z m -2.34566,-37.93537 c 0,6.11846 2.34566,10.20645 8.15797,10.20645 6.4246,0 8.67119,-3.37665 8.67119,-10.20645 0,-6.4291 -2.54823,-9.69319 -8.15794,-9.69319 -6.11397,-0.005 -8.67122,3.26409 -8.67122,9.69319 z" />
          <path
             inkscape:connector-curvature="0"
             style="opacity:0.70106764;fill:#222222;fill-opacity:0.66666667"
             id="path6479"
             d="m 994.63776,123.30091 c 0.6123,8.46862 5.30809,13.26342 12.24144,13.26342 8.4686,0 17.1308,-4.7948 17.1308,-4.7948 l 4.3896,8.15794 c 0,0 -10.2019,8.56764 -23.2492,8.56764 -17.54053,0 -26.52238,-10.20643 -26.52238,-27.54433 0,-17.83764 10.10289,-29.561318 27.23368,-29.561318 15.1949,0 23.2493,9.373548 23.2493,23.960608 0,3.86738 -0.6078,7.64471 -0.6078,7.64471 l -33.86544,0.30613 z m 0.19809,-9.48157 18.35985,0 c 0,-6.11847 -2.4492,-10.5036 -8.3605,-10.5036 -5.60523,0 -9.17996,4.18253 -9.99935,10.5036 z" />
        </g>
      </g>
      <g
         style="font-style:normal;font-variant:normal;font-weight:normal;font-stretch:normal;font-size:44.57827759px;line-height:125%;font-family:'Trebuchet MS';-inkscape-font-specification:'Trebuchet MS';letter-spacing:0px;word-spacing:0px;fill:#000000;fill-opacity:1;stroke:none;stroke-width:1px;stroke-linecap:butt;stroke-linejoin:miter;stroke-opacity:1"
         id="text4312"
         transform="matrix(0.88186258,0,0,0.88186258,-29.035377,-26.097092)">
        <path
           d="m 314.1985,204.77484 0,-31.91004 6.44295,0 0,31.91004 -6.44295,0 z"
           style="font-style:normal;font-variant:normal;font-weight:bold;font-stretch:normal;font-family:'Helvetica Neue';-inkscape-font-specification:'Helvetica Neue';opacity:0.70099996;fill:#222222;fill-opacity:1"
           id="path4317"
           inkscape:connector-curvature="0" />
        <path
           d="m 347.74104,204.77484 -6.11645,0 0,-11.79757 q 0,-3.74388 -0.39181,-4.83222 -0.3918,-1.1101 -1.28423,-1.71957 -0.87067,-0.60947 -2.11138,-0.60947 -1.58897,0 -2.85144,0.87067 -1.26247,0.87067 -1.74134,2.30728 -0.4571,1.4366 -0.4571,5.31108 l 0,10.4698 -6.11645,0 0,-23.11627 5.68112,0 0,3.39561 q 3.02557,-3.91802 7.61835,-3.91802 2.02431,0 3.70035,0.74007 1.67604,0.71831 2.52494,1.85018 0.87067,1.13187 1.19717,2.56847 0.34827,1.43661 0.34827,4.11391 l 0,14.36605 z"
           style="font-style:normal;font-variant:normal;font-weight:bold;font-stretch:normal;font-family:'Helvetica Neue';-inkscape-font-specification:'Helvetica Neue';opacity:0.70099996;fill:#222222;fill-opacity:1"
           id="path4319"
           inkscape:connector-curvature="0" />
        <path
           d="m 364.56673,181.65857 0,4.87575 -4.17922,0 0,9.31616 q 0,2.82967 0.10884,3.30854 0.1306,0.4571 0.54417,0.76184 0.43533,0.30473 1.0448,0.30473 0.8489,0 2.45964,-0.5877 l 0.5224,4.74515 q -2.13314,0.9142 -4.83221,0.9142 -1.65427,0 -2.98205,-0.54417 -1.32777,-0.56593 -1.959,-1.4366 -0.60947,-0.89244 -0.8489,-2.39434 -0.19591,-1.06657 -0.19591,-4.30982 l 0,-10.07799 -2.8079,0 0,-4.87575 2.8079,0 0,-4.59279 6.13822,-3.56974 0,8.16253 4.17922,0 z"
           style="font-style:normal;font-variant:normal;font-weight:bold;font-stretch:normal;font-family:'Helvetica Neue';-inkscape-font-specification:'Helvetica Neue';opacity:0.70099996;fill:#222222;fill-opacity:1"
           id="path4321"
           inkscape:connector-curvature="0" />
        <path
           d="m 382.24132,197.41768 6.09468,1.02304 q -1.1754,3.35208 -3.72211,5.11518 -2.52494,1.74134 -6.33412,1.74134 -6.02939,0 -8.92436,-3.93978 -2.28551,-3.15617 -2.28551,-7.96662 0,-5.74642 3.00381,-8.98966 3.00381,-3.26502 7.59659,-3.26502 5.15872,0 8.14076,3.41738 2.98205,3.39561 2.85144,10.42627 l -15.32378,0 q 0.0653,2.72084 1.48014,4.24451 1.41484,1.50191 3.52621,1.50191 1.43661,0 2.41611,-0.7836 0.9795,-0.78361 1.48014,-2.52495 z m 0.34827,-6.18175 q -0.0653,-2.65554 -1.37131,-4.02685 -1.306,-1.39307 -3.17794,-1.39307 -2.00254,0 -3.30855,1.45837 -1.306,1.45838 -1.28423,3.96155 l 9.14203,0 z"
           style="font-style:normal;font-variant:normal;font-weight:bold;font-stretch:normal;font-family:'Helvetica Neue';-inkscape-font-specification:'Helvetica Neue';opacity:0.70099996;fill:#222222;fill-opacity:1"
           id="path4323"
           inkscape:connector-curvature="0" />
        <path
           d="m 393.66886,204.77484 0,-31.91004 6.11645,0 0,31.91004 -6.11645,0 z"
           style="font-style:normal;font-variant:normal;font-weight:bold;font-stretch:normal;font-family:'Helvetica Neue';-inkscape-font-specification:'Helvetica Neue';opacity:0.70099996;fill:#222222;fill-opacity:1"
           id="path4325"
           inkscape:connector-curvature="0" />
        <path
           d="m 406.03236,204.77484 0,-31.91004 6.11645,0 0,31.91004 -6.11645,0 z"
           style="font-style:normal;font-variant:normal;font-weight:bold;font-stretch:normal;font-family:'Helvetica Neue';-inkscape-font-specification:'Helvetica Neue';opacity:0.70099996;fill:#222222;fill-opacity:1"
           id="path4327"
           inkscape:connector-curvature="0" />
        <path
           d="m 418.39587,178.52416 0,-5.65936 6.11645,0 0,5.65936 -6.11645,0 z m 0,26.25068 0,-23.11627 6.11645,0 0,23.11627 -6.11645,0 z"
           style="font-style:normal;font-variant:normal;font-weight:bold;font-stretch:normal;font-family:'Helvetica Neue';-inkscape-font-specification:'Helvetica Neue';opacity:0.70099996;fill:#222222;fill-opacity:1"
           id="path4329"
           inkscape:connector-curvature="0" />
        <path
           d="m 430.19344,206.29851 6.98712,0.84891 q 0.17413,1.21893 0.80537,1.67603 0.87067,0.65301 2.74261,0.65301 2.39434,0 3.59151,-0.71831 0.80537,-0.47886 1.21894,-1.54543 0.28296,-0.76184 0.28296,-2.80791 l 0,-3.37385 q -2.7426,3.74388 -6.92182,3.74388 -4.65808,0 -7.37892,-3.93978 -2.13314,-3.11264 -2.13314,-7.74896 0,-5.81172 2.78614,-8.88083 2.80791,-3.06911 6.96536,-3.06911 4.28804,0 7.07419,3.76565 l 0,-3.24324 5.72465,0 0,20.7437 q 0,4.09214 -0.67477,6.11645 -0.67477,2.02431 -1.89371,3.17794 -1.21893,1.15364 -3.26501,1.80664 -2.0243,0.65301 -5.13695,0.65301 -5.87702,0 -8.33666,-2.02431 -2.45964,-2.00254 -2.45964,-5.09342 0,-0.30473 0.0218,-0.74007 z m 5.46345,-13.56067 q 0,3.67857 1.41484,5.39815 1.4366,1.6978 3.52621,1.6978 2.24197,0 3.78741,-1.74134 1.54544,-1.7631 1.54544,-5.20225 0,-3.59151 -1.48014,-5.33285 -1.48014,-1.74134 -3.74388,-1.74134 -2.19844,0 -3.63504,1.71958 -1.41484,1.6978 -1.41484,5.20225 z"
           style="font-style:normal;font-variant:normal;font-weight:bold;font-stretch:normal;font-family:'Helvetica Neue';-inkscape-font-specification:'Helvetica Neue';opacity:0.70099996;fill:#222222;fill-opacity:1"
           id="path4331"
           inkscape:connector-curvature="0" />
        <path
           d="m 471.39787,197.41768 6.09469,1.02304 q -1.17541,3.35208 -3.72212,5.11518 -2.52494,1.74134 -6.33412,1.74134 -6.02938,0 -8.92436,-3.93978 -2.28551,-3.15617 -2.28551,-7.96662 0,-5.74642 3.00381,-8.98966 3.00381,-3.26502 7.59659,-3.26502 5.15872,0 8.14076,3.41738 2.98205,3.39561 2.85145,10.42627 l -15.32379,0 q 0.0653,2.72084 1.48014,4.24451 1.41484,1.50191 3.52621,1.50191 1.43661,0 2.41611,-0.7836 0.9795,-0.78361 1.48014,-2.52495 z m 0.34827,-6.18175 q -0.0653,-2.65554 -1.37131,-4.02685 -1.306,-1.39307 -3.17794,-1.39307 -2.00254,0 -3.30855,1.45837 -1.306,1.45838 -1.28423,3.96155 l 9.14203,0 z"
           style="font-style:normal;font-variant:normal;font-weight:bold;font-stretch:normal;font-family:'Helvetica Neue';-inkscape-font-specification:'Helvetica Neue';opacity:0.70099996;fill:#222222;fill-opacity:1"
           id="path4333"
           inkscape:connector-curvature="0" />
        <path
           d="m 503.85208,204.77484 -6.11645,0 0,-11.79757 q 0,-3.74388 -0.3918,-4.83222 -0.39181,-1.1101 -1.28424,-1.71957 -0.87067,-0.60947 -2.11138,-0.60947 -1.58897,0 -2.85144,0.87067 -1.26247,0.87067 -1.74134,2.30728 -0.4571,1.4366 -0.4571,5.31108 l 0,10.4698 -6.11645,0 0,-23.11627 5.68112,0 0,3.39561 q 3.02557,-3.91802 7.61836,-3.91802 2.0243,0 3.70034,0.74007 1.67604,0.71831 2.52494,1.85018 0.87067,1.13187 1.19717,2.56847 0.34827,1.43661 0.34827,4.11391 l 0,14.36605 z"
           style="font-style:normal;font-variant:normal;font-weight:bold;font-stretch:normal;font-family:'Helvetica Neue';-inkscape-font-specification:'Helvetica Neue';opacity:0.70099996;fill:#222222;fill-opacity:1"
           id="path4335"
           inkscape:connector-curvature="0" />
        <path
           d="m 520.67777,181.65857 0,4.87575 -4.17922,0 0,9.31616 q 0,2.82967 0.10884,3.30854 0.1306,0.4571 0.54416,0.76184 0.43534,0.30473 1.04481,0.30473 0.8489,0 2.45964,-0.5877 l 0.5224,4.74515 q -2.13314,0.9142 -4.83221,0.9142 -1.65428,0 -2.98205,-0.54417 -1.32777,-0.56593 -1.959,-1.4366 -0.60947,-0.89244 -0.84891,-2.39434 -0.1959,-1.06657 -0.1959,-4.30982 l 0,-10.07799 -2.80791,0 0,-4.87575 2.80791,0 0,-4.59279 6.13822,-3.56974 0,8.16253 4.17922,0 z"
           style="font-style:normal;font-variant:normal;font-weight:bold;font-stretch:normal;font-family:'Helvetica Neue';-inkscape-font-specification:'Helvetica Neue';opacity:0.70099996;fill:#222222;fill-opacity:1"
           id="path4337"
           inkscape:connector-curvature="0" />
        <path
           d="m 537.41639,204.77484 0,-31.91004 21.87557,0 0,5.39816 -15.43262,0 0,7.55305 13.32124,0 0,5.39815 -13.32124,0 0,13.56068 -6.44295,0 z"
           style="font-style:normal;font-variant:normal;font-weight:bold;font-stretch:normal;font-family:'Helvetica Neue';-inkscape-font-specification:'Helvetica Neue';opacity:0.70099996;fill:#222222;fill-opacity:1"
           id="path4339"
           inkscape:connector-curvature="0" />
        <path
           d="m 579.79622,204.77484 0,-3.46091 q -1.26247,1.85017 -3.33031,2.91674 -2.04607,1.06657 -4.33158,1.06657 -2.32904,0 -4.17921,-1.02303 -1.85018,-1.02304 -2.67731,-2.87321 -0.82714,-1.85018 -0.82714,-5.11519 l 0,-14.62724 6.11645,0 0,10.62216 q 0,4.87575 0.32651,5.98586 0.34826,1.08833 1.2407,1.74134 0.89244,0.63123 2.26374,0.63123 1.56721,0 2.80791,-0.8489 1.2407,-0.87067 1.6978,-2.13314 0.45711,-1.28424 0.45711,-6.24706 l 0,-9.75149 6.11645,0 0,23.11627 -5.68112,0 z"
           style="font-style:normal;font-variant:normal;font-weight:bold;font-stretch:normal;font-family:'Helvetica Neue';-inkscape-font-specification:'Helvetica Neue';opacity:0.70099996;fill:#222222;fill-opacity:1"
           id="path4341"
           inkscape:connector-curvature="0" />
        <path
           d="m 612.85989,204.77484 -6.11645,0 0,-11.79757 q 0,-3.74388 -0.3918,-4.83222 -0.3918,-1.1101 -1.28424,-1.71957 -0.87067,-0.60947 -2.11137,-0.60947 -1.58897,0 -2.85145,0.87067 -1.26247,0.87067 -1.74133,2.30728 -0.45711,1.4366 -0.45711,5.31108 l 0,10.4698 -6.11645,0 0,-23.11627 5.68112,0 0,3.39561 q 3.02558,-3.91802 7.61836,-3.91802 2.0243,0 3.70034,0.74007 1.67604,0.71831 2.52494,1.85018 0.87067,1.13187 1.19718,2.56847 0.34826,1.43661 0.34826,4.11391 l 0,14.36605 z"
           style="font-style:normal;font-variant:normal;font-weight:bold;font-stretch:normal;font-family:'Helvetica Neue';-inkscape-font-specification:'Helvetica Neue';opacity:0.70099996;fill:#222222;fill-opacity:1"
           id="path4343"
           inkscape:connector-curvature="0" />
        <path
           d="m 640.28598,204.77484 -5.68112,0 0,-3.39561 q -1.41484,1.98077 -3.35208,2.96028 -1.91547,0.95773 -3.87448,0.95773 -3.98331,0 -6.83475,-3.19971 -2.82968,-3.22147 -2.82968,-8.96789 0,-5.87702 2.76438,-8.92437 2.76437,-3.06911 6.98712,-3.06911 3.87448,0 6.70416,3.22148 l 0,-11.49284 6.11645,0 0,31.91004 z m -16.32505,-12.05877 q 0,3.70034 1.02303,5.35462 1.48014,2.39434 4.13568,2.39434 2.11138,0 3.59152,-1.78488 1.48013,-1.80663 1.48013,-5.37638 0,-3.98331 -1.4366,-5.72465 -1.43661,-1.76311 -3.67858,-1.76311 -2.17667,0 -3.65681,1.74134 -1.45837,1.71957 -1.45837,5.15872 z"
           style="font-style:normal;font-variant:normal;font-weight:bold;font-stretch:normal;font-family:'Helvetica Neue';-inkscape-font-specification:'Helvetica Neue';opacity:0.70099996;fill:#222222;fill-opacity:1"
           id="path4345"
           inkscape:connector-curvature="0" />
        <path
           d="m 652.19238,204.77484 -6.11645,0 0,-23.11627 5.68112,0 0,3.28677 q 1.45837,-2.32904 2.61201,-3.06911 1.1754,-0.74007 2.65554,-0.74007 2.08961,0 4.02685,1.15364 l -1.89371,5.33285 q -1.54544,-1.00127 -2.87321,-1.00127 -1.28424,0 -2.17667,0.7183 -0.89244,0.69654 -1.41484,2.54671 -0.50064,1.85018 -0.50064,7.74896 l 0,7.13949 z"
           style="font-style:normal;font-variant:normal;font-weight:bold;font-stretch:normal;font-family:'Helvetica Neue';-inkscape-font-specification:'Helvetica Neue';opacity:0.70099996;fill:#222222;fill-opacity:1"
           id="path4347"
           inkscape:connector-curvature="0" />
        <path
           d="m 668.23447,188.71099 -5.55052,-1.00127 q 0.93597,-3.35208 3.22148,-4.96282 2.28551,-1.61074 6.79122,-1.61074 4.09215,0 6.09469,0.97951 2.00254,0.95773 2.80791,2.45964 0.82713,1.48014 0.82713,5.46345 l -0.0653,7.13949 q 0,3.04734 0.28297,4.50571 0.30473,1.43661 1.1101,3.09088 l -6.05115,0 q -0.23943,-0.60947 -0.5877,-1.80664 -0.15237,-0.54417 -0.21767,-0.7183 -1.5672,1.52367 -3.35208,2.28551 -1.78487,0.76183 -3.80917,0.76183 -3.56975,0 -5.63759,-1.93724 -2.04607,-1.93724 -2.04607,-4.89751 0,-1.95901 0.93597,-3.48268 0.93597,-1.54544 2.61201,-2.35081 1.6978,-0.82713 4.87574,-1.4366 4.28805,-0.80537 5.94232,-1.50191 l 0,-0.60947 q 0,-1.7631 -0.87067,-2.50317 -0.87067,-0.76184 -3.28677,-0.76184 -1.63251,0 -2.54671,0.65301 -0.9142,0.63123 -1.48014,2.24197 z m 8.18429,4.96282 q -1.1754,0.3918 -3.72211,0.93597 -2.54671,0.54416 -3.33031,1.06657 -1.19717,0.8489 -1.19717,2.1549 0,1.28424 0.95774,2.22021 0.95773,0.93597 2.43787,0.93597 1.65427,0 3.15618,-1.08834 1.1101,-0.82713 1.45837,-2.0243 0.23943,-0.78361 0.23943,-2.98205 l 0,-1.21893 z"
           style="font-style:normal;font-variant:normal;font-weight:bold;font-stretch:normal;font-family:'Helvetica Neue';-inkscape-font-specification:'Helvetica Neue';opacity:0.70099996;fill:#222222;fill-opacity:1"
           id="path4349"
           inkscape:connector-curvature="0" />
        <path
           d="m 688.47754,178.52416 0,-5.65936 6.11646,0 0,5.65936 -6.11646,0 z m 0,26.25068 0,-23.11627 6.11646,0 0,23.11627 -6.11646,0 z"
           style="font-style:normal;font-variant:normal;font-weight:bold;font-stretch:normal;font-family:'Helvetica Neue';-inkscape-font-specification:'Helvetica Neue';opacity:0.70099996;fill:#222222;fill-opacity:1"
           id="path4351"
           inkscape:connector-curvature="0" />
        <path
           d="m 698.68613,198.17952 6.13822,-0.93597 q 0.3918,1.78487 1.58897,2.72084 1.19717,0.91421 3.35208,0.91421 2.37257,0 3.56974,-0.87067 0.80537,-0.60947 0.80537,-1.63251 0,-0.69653 -0.43533,-1.15364 -0.4571,-0.43533 -2.04607,-0.80537 -7.4007,-1.6325 -9.38147,-2.98204 -2.74261,-1.87194 -2.74261,-5.20225 0,-3.00381 2.37258,-5.04988 2.37257,-2.04608 7.35715,-2.04608 4.74515,0 7.05243,1.54544 2.30727,1.54544 3.17794,4.57102 l -5.76818,1.06657 q -0.37004,-1.34954 -1.41484,-2.06784 -1.02304,-0.7183 -2.93851,-0.7183 -2.41611,0 -3.46091,0.67476 -0.69654,0.47887 -0.69654,1.24071 0,0.653 0.60947,1.1101 0.82714,0.60947 5.70289,1.71957 4.89751,1.11011 6.83475,2.72085 1.91547,1.6325 1.91547,4.54924 0,3.17795 -2.65554,5.46346 -2.65554,2.2855 -7.85779,2.2855 -4.72338,0 -7.48776,-1.91547 -2.74261,-1.91547 -3.59151,-5.20225 z"
           style="font-style:normal;font-variant:normal;font-weight:bold;font-stretch:normal;font-family:'Helvetica Neue';-inkscape-font-specification:'Helvetica Neue';opacity:0.70099996;fill:#222222;fill-opacity:1"
           id="path4353"
           inkscape:connector-curvature="0" />
        <path
           d="m 725.65512,178.52416 0,-5.65936 6.11646,0 0,5.65936 -6.11646,0 z m 0,26.25068 0,-23.11627 6.11646,0 0,23.11627 -6.11646,0 z"
           style="font-style:normal;font-variant:normal;font-weight:bold;font-stretch:normal;font-family:'Helvetica Neue';-inkscape-font-specification:'Helvetica Neue';opacity:0.70099996;fill:#222222;fill-opacity:1"
           id="path4355"
           inkscape:connector-curvature="0" />
        <path
           d="m 759.04532,204.77484 -6.11646,0 0,-11.79757 q 0,-3.74388 -0.3918,-4.83222 -0.3918,-1.1101 -1.28423,-1.71957 -0.87067,-0.60947 -2.11138,-0.60947 -1.58897,0 -2.85144,0.87067 -1.26247,0.87067 -1.74134,2.30728 -0.4571,1.4366 -0.4571,5.31108 l 0,10.4698 -6.11645,0 0,-23.11627 5.68111,0 0,3.39561 q 3.02558,-3.91802 7.61836,-3.91802 2.02431,0 3.70035,0.74007 1.67604,0.71831 2.52494,1.85018 0.87067,1.13187 1.19717,2.56847 0.34827,1.43661 0.34827,4.11391 l 0,14.36605 z"
           style="font-style:normal;font-variant:normal;font-weight:bold;font-stretch:normal;font-family:'Helvetica Neue';-inkscape-font-specification:'Helvetica Neue';opacity:0.70099996;fill:#222222;fill-opacity:1"
           id="path4357"
           inkscape:connector-curvature="0" />
        <path
           d="m 764.70467,206.29851 6.98712,0.84891 q 0.17413,1.21893 0.80537,1.67603 0.87067,0.65301 2.74261,0.65301 2.39434,0 3.59151,-0.71831 0.80537,-0.47886 1.21894,-1.54543 0.28296,-0.76184 0.28296,-2.80791 l 0,-3.37385 q -2.7426,3.74388 -6.92182,3.74388 -4.65808,0 -7.37892,-3.93978 -2.13314,-3.11264 -2.13314,-7.74896 0,-5.81172 2.78614,-8.88083 2.80791,-3.06911 6.96536,-3.06911 4.28804,0 7.07419,3.76565 l 0,-3.24324 5.72465,0 0,20.7437 q 0,4.09214 -0.67477,6.11645 -0.67477,2.02431 -1.89371,3.17794 -1.21893,1.15364 -3.26501,1.80664 -2.0243,0.65301 -5.13695,0.65301 -5.87702,0 -8.33666,-2.02431 -2.45964,-2.00254 -2.45964,-5.09342 0,-0.30473 0.0218,-0.74007 z m 5.46345,-13.56067 q 0,3.67857 1.41484,5.39815 1.4366,1.6978 3.52621,1.6978 2.24197,0 3.78741,-1.74134 1.54544,-1.7631 1.54544,-5.20225 0,-3.59151 -1.48014,-5.33285 -1.48014,-1.74134 -3.74388,-1.74134 -2.19844,0 -3.63504,1.71958 -1.41484,1.6978 -1.41484,5.20225 z"
           style="font-style:normal;font-variant:normal;font-weight:bold;font-stretch:normal;font-family:'Helvetica Neue';-inkscape-font-specification:'Helvetica Neue';opacity:0.70099996;fill:#222222;fill-opacity:1"
           id="path4359"
           inkscape:connector-curvature="0" />
        <path
           d="m 802.20874,181.65857 3.39561,0 0,-1.74134 q 0,-2.91675 0.60947,-4.35335 0.63124,-1.4366 2.28551,-2.32904 1.67604,-0.9142 4.22275,-0.9142 2.612,0 5.11518,0.7836 l -0.82714,4.26628 q -1.45837,-0.34827 -2.80791,-0.34827 -1.32777,0 -1.91547,0.63124 -0.56593,0.60947 -0.56593,2.37257 l 0,1.63251 4.57101,0 0,4.81045 -4.57101,0 0,18.30582 -6.11646,0 0,-18.30582 -3.39561,0 0,-4.81045 z"
           style="font-style:normal;font-variant:normal;font-weight:bold;font-stretch:normal;font-family:'Helvetica Neue';-inkscape-font-specification:'Helvetica Neue';opacity:0.70099996;fill:#222222;fill-opacity:1"
           id="path4361"
           inkscape:connector-curvature="0" />
        <path
           d="m 818.35967,192.8902 q 0,-3.04734 1.50191,-5.89878 1.5019,-2.85145 4.24451,-4.35335 2.76438,-1.50191 6.15999,-1.50191 5.24578,0 8.59786,3.41738 3.35207,3.39561 3.35207,8.59786 0,5.24579 -3.39561,8.7067 -3.37384,3.43914 -8.51079,3.43914 -3.17794,0 -6.07292,-1.4366 -2.87321,-1.43661 -4.37511,-4.20098 -1.50191,-2.78614 -1.50191,-6.76946 z m 6.26882,0.3265 q 0,3.43915 1.63251,5.26755 1.6325,1.82841 4.02684,1.82841 2.39434,0 4.00508,-1.82841 1.63251,-1.8284 1.63251,-5.31108 0,-3.39561 -1.63251,-5.22402 -1.61074,-1.8284 -4.00508,-1.8284 -2.39434,0 -4.02684,1.8284 -1.63251,1.82841 -1.63251,5.26755 z"
           style="font-style:normal;font-variant:normal;font-weight:bold;font-stretch:normal;font-family:'Helvetica Neue';-inkscape-font-specification:'Helvetica Neue';opacity:0.70099996;fill:#222222;fill-opacity:1"
           id="path4363"
           inkscape:connector-curvature="0" />
        <path
           d="m 852.88171,204.77484 -6.11645,0 0,-23.11627 5.68112,0 0,3.28677 q 1.45837,-2.32904 2.61201,-3.06911 1.1754,-0.74007 2.65554,-0.74007 2.08961,0 4.02685,1.15364 l -1.89371,5.33285 q -1.54544,-1.00127 -2.87321,-1.00127 -1.28424,0 -2.17667,0.7183 -0.89244,0.69654 -1.41484,2.54671 -0.50064,1.85018 -0.50064,7.74896 l 0,7.13949 z"
           style="font-style:normal;font-variant:normal;font-weight:bold;font-stretch:normal;font-family:'Helvetica Neue';-inkscape-font-specification:'Helvetica Neue';opacity:0.70099996;fill:#222222;fill-opacity:1"
           id="path4365"
           inkscape:connector-curvature="0" />
        <path
           d="m 876.82512,204.77484 0,-31.91004 6.26882,0 13.06004,21.30964 0,-21.30964 5.98585,0 0,31.91004 -6.46472,0 -12.86414,-20.809 0,20.809 -5.98585,0 z"
           style="font-style:normal;font-variant:normal;font-weight:bold;font-stretch:normal;font-family:'Helvetica Neue';-inkscape-font-specification:'Helvetica Neue';opacity:0.70099996;fill:#222222;fill-opacity:1"
           id="path4367"
           inkscape:connector-curvature="0" />
        <path
           d="m 907.51623,192.8902 q 0,-3.04734 1.5019,-5.89878 1.50191,-2.85145 4.24451,-4.35335 2.76438,-1.50191 6.15999,-1.50191 5.24579,0 8.59786,3.41738 3.35208,3.39561 3.35208,8.59786 0,5.24579 -3.39561,8.7067 -3.37385,3.43914 -8.5108,3.43914 -3.17794,0 -6.07291,-1.4366 -2.87321,-1.43661 -4.37512,-4.20098 -1.5019,-2.78614 -1.5019,-6.76946 z m 6.26882,0.3265 q 0,3.43915 1.6325,5.26755 1.63251,1.82841 4.02685,1.82841 2.39434,0 4.00508,-1.82841 1.6325,-1.8284 1.6325,-5.31108 0,-3.39561 -1.6325,-5.22402 -1.61074,-1.8284 -4.00508,-1.8284 -2.39434,0 -4.02685,1.8284 -1.6325,1.82841 -1.6325,5.26755 z"
           style="font-style:normal;font-variant:normal;font-weight:bold;font-stretch:normal;font-family:'Helvetica Neue';-inkscape-font-specification:'Helvetica Neue';opacity:0.70099996;fill:#222222;fill-opacity:1"
           id="path4369"
           inkscape:connector-curvature="0" />
        <path
           d="m 957.20969,204.77484 -6.11646,0 0,-11.79757 q 0,-3.74388 -0.3918,-4.83222 -0.3918,-1.1101 -1.28424,-1.71957 -0.87067,-0.60947 -2.11137,-0.60947 -1.58897,0 -2.85144,0.87067 -1.26247,0.87067 -1.74134,2.30728 -0.4571,1.4366 -0.4571,5.31108 l 0,10.4698 -6.11646,0 0,-23.11627 5.68112,0 0,3.39561 q 3.02558,-3.91802 7.61836,-3.91802 2.02431,0 3.70035,0.74007 1.67603,0.71831 2.52494,1.85018 0.87067,1.13187 1.19717,2.56847 0.34827,1.43661 0.34827,4.11391 l 0,14.36605 z"
           style="font-style:normal;font-variant:normal;font-weight:bold;font-stretch:normal;font-family:'Helvetica Neue';-inkscape-font-specification:'Helvetica Neue';opacity:0.70099996;fill:#222222;fill-opacity:1"
           id="path4371"
           inkscape:connector-curvature="0" />
        <path
           d="m 963.26084,181.65857 5.70288,0 0,3.39561 q 1.11011,-1.74134 3.00381,-2.82968 1.89371,-1.08834 4.20098,-1.08834 4.02685,0 6.83476,3.15618 2.80791,3.15618 2.80791,8.79376 0,5.78996 -2.82968,9.01143 -2.82968,3.19971 -6.85652,3.19971 -1.91547,0 -3.48268,-0.76183 -1.54544,-0.76184 -3.26501,-2.61201 l 0,11.6452 -6.11645,0 0,-31.91003 z m 6.05115,11.16633 q 0,3.89625 1.54544,5.76819 1.54544,1.85017 3.76564,1.85017 2.13314,0 3.54798,-1.6978 1.41484,-1.71958 1.41484,-5.61582 0,-3.63505 -1.45837,-5.39815 -1.45837,-1.76311 -3.61328,-1.76311 -2.24197,0 -3.72211,1.74134 -1.48014,1.71957 -1.48014,5.11518 z"
           style="font-style:normal;font-variant:normal;font-weight:bold;font-stretch:normal;font-family:'Helvetica Neue';-inkscape-font-specification:'Helvetica Neue';opacity:0.70099996;fill:#222222;fill-opacity:1"
           id="path4373"
           inkscape:connector-curvature="0" />
        <path
           d="m 996.54218,204.77484 -6.11646,0 0,-23.11627 5.68112,0 0,3.28677 q 1.45837,-2.32904 2.61201,-3.06911 1.1754,-0.74007 2.65555,-0.74007 2.0896,0 4.0268,1.15364 l -1.8937,5.33285 q -1.5454,-1.00127 -2.8732,-1.00127 -1.28422,0 -2.17665,0.7183 -0.89244,0.69654 -1.41484,2.54671 -0.50063,1.85018 -0.50063,7.74896 l 0,7.13949 z"
           style="font-style:normal;font-variant:normal;font-weight:bold;font-stretch:normal;font-family:'Helvetica Neue';-inkscape-font-specification:'Helvetica Neue';opacity:0.70099996;fill:#222222;fill-opacity:1"
           id="path4375"
           inkscape:connector-curvature="0" />
        <path
           d="m 1006.5984,192.8902 q 0,-3.04734 1.5019,-5.89878 1.5019,-2.85145 4.2445,-4.35335 2.7644,-1.50191 6.16,-1.50191 5.2458,0 8.5978,3.41738 3.3521,3.39561 3.3521,8.59786 0,5.24579 -3.3956,8.7067 -3.3738,3.43914 -8.5108,3.43914 -3.1779,0 -6.0729,-1.4366 -2.8732,-1.43661 -4.3751,-4.20098 -1.5019,-2.78614 -1.5019,-6.76946 z m 6.2688,0.3265 q 0,3.43915 1.6325,5.26755 1.6325,1.82841 4.0269,1.82841 2.3943,0 4.005,-1.82841 1.6325,-1.8284 1.6325,-5.31108 0,-3.39561 -1.6325,-5.22402 -1.6107,-1.8284 -4.005,-1.8284 -2.3944,0 -4.0269,1.8284 -1.6325,1.82841 -1.6325,5.26755 z"
           style="font-style:normal;font-variant:normal;font-weight:bold;font-stretch:normal;font-family:'Helvetica Neue';-inkscape-font-specification:'Helvetica Neue';opacity:0.70099996;fill:#222222;fill-opacity:1"
           id="path4377"
           inkscape:connector-curvature="0" />
        <path
           d="m 1032.5879,181.65857 3.3956,0 0,-1.74134 q 0,-2.91675 0.6094,-4.35335 0.6313,-1.4366 2.2855,-2.32904 1.6761,-0.9142 4.2228,-0.9142 2.612,0 5.1152,0.7836 l -0.8272,4.26628 q -1.4583,-0.34827 -2.8079,-0.34827 -1.3277,0 -1.9154,0.63124 -0.566,0.60947 -0.566,2.37257 l 0,1.63251 4.571,0 0,4.81045 -4.571,0 0,18.30582 -6.1164,0 0,-18.30582 -3.3956,0 0,-4.81045 z"
           style="font-style:normal;font-variant:normal;font-weight:bold;font-stretch:normal;font-family:'Helvetica Neue';-inkscape-font-specification:'Helvetica Neue';opacity:0.70099996;fill:#222222;fill-opacity:1"
           id="path4379"
           inkscape:connector-curvature="0" />
        <path
           d="m 1050.1537,178.52416 0,-5.65936 6.1164,0 0,5.65936 -6.1164,0 z m 0,26.25068 0,-23.11627 6.1164,0 0,23.11627 -6.1164,0 z"
           style="font-style:normal;font-variant:normal;font-weight:bold;font-stretch:normal;font-family:'Helvetica Neue';-inkscape-font-specification:'Helvetica Neue';opacity:0.70099996;fill:#222222;fill-opacity:1"
           id="path4381"
           inkscape:connector-curvature="0" />
        <path
           d="m 1073.1175,181.65857 0,4.87575 -4.1792,0 0,9.31616 q 0,2.82967 0.1088,3.30854 0.1306,0.4571 0.5442,0.76184 0.4353,0.30473 1.0448,0.30473 0.8489,0 2.4597,-0.5877 l 0.5224,4.74515 q -2.1332,0.9142 -4.8323,0.9142 -1.6542,0 -2.982,-0.54417 -1.3278,-0.56593 -1.959,-1.4366 -0.6095,-0.89244 -0.8489,-2.39434 -0.1959,-1.06657 -0.1959,-4.30982 l 0,-10.07799 -2.8079,0 0,-4.87575 2.8079,0 0,-4.59279 6.1382,-3.56974 0,8.16253 4.1792,0 z"
           style="font-style:normal;font-variant:normal;font-weight:bold;font-stretch:normal;font-family:'Helvetica Neue';-inkscape-font-specification:'Helvetica Neue';opacity:0.70099996;fill:#222222;fill-opacity:1"
           id="path4383"
           inkscape:connector-curvature="0" />
        <path
           d="m 1075.2507,198.17952 6.1382,-0.93597 q 0.3918,1.78487 1.589,2.72084 1.1972,0.91421 3.3521,0.91421 2.3725,0 3.5697,-0.87067 0.8054,-0.60947 0.8054,-1.63251 0,-0.69653 -0.4353,-1.15364 -0.4571,-0.43533 -2.0461,-0.80537 -7.4007,-1.6325 -9.3815,-2.98204 -2.7426,-1.87194 -2.7426,-5.20225 0,-3.00381 2.3726,-5.04988 2.3726,-2.04608 7.3571,-2.04608 4.7452,0 7.0525,1.54544 2.3072,1.54544 3.1779,4.57102 l -5.7682,1.06657 q -0.37,-1.34954 -1.4148,-2.06784 -1.0231,-0.7183 -2.9385,-0.7183 -2.4161,0 -3.4609,0.67476 -0.6966,0.47887 -0.6966,1.24071 0,0.653 0.6095,1.1101 0.8271,0.60947 5.7029,1.71957 4.8975,1.11011 6.8347,2.72085 1.9155,1.6325 1.9155,4.54924 0,3.17795 -2.6555,5.46346 -2.6556,2.2855 -7.8578,2.2855 -4.7234,0 -7.4878,-1.91547 -2.7426,-1.91547 -3.5915,-5.20225 z"
           style="font-style:normal;font-variant:normal;font-weight:bold;font-stretch:normal;font-family:'Helvetica Neue';-inkscape-font-specification:'Helvetica Neue';opacity:0.70099996;fill:#222222;fill-opacity:1"
           id="path4385"
           inkscape:connector-curvature="0" />
      </g>
    </g>
  </g>
</svg>
