<?xml version="1.0" encoding="UTF-8" standalone="no"?>
<!-- Created with Inkscape (http://www.inkscape.org/) -->

<svg
   xmlns:dc="http://purl.org/dc/elements/1.1/"
   xmlns:cc="http://creativecommons.org/ns#"
   xmlns:rdf="http://www.w3.org/1999/02/22-rdf-syntax-ns#"
   xmlns:svg="http://www.w3.org/2000/svg"
   xmlns="http://www.w3.org/2000/svg"
   xmlns:sodipodi="http://sodipodi.sourceforge.net/DTD/sodipodi-0.dtd"
   xmlns:inkscape="http://www.inkscape.org/namespaces/inkscape"
   version="1.1"
   width="920.33417"
   height="190.09184"
   id="svg3807"
   inkscape:version="0.91 r13725"
   sodipodi:docname="commitchange.svg">
  <sodipodi:namedview
     pagecolor="#ffffff"
     bordercolor="#666666"
     borderopacity="1"
     objecttolerance="10"
     gridtolerance="10"
     guidetolerance="10"
     inkscape:pageopacity="0"
     inkscape:pageshadow="2"
     inkscape:window-width="1366"
     inkscape:window-height="702"
     id="namedview24"
     showgrid="false"
     showguides="true"
     inkscape:guide-bbox="true"
     inkscape:zoom="1.4452836"
     inkscape:cx="415.14502"
     inkscape:cy="63.225703"
     inkscape:window-x="0"
     inkscape:window-y="27"
     inkscape:window-maximized="1"
     inkscape:current-layer="svg3807"
     fit-margin-top="0"
     fit-margin-left="0"
     fit-margin-right="0"
     fit-margin-bottom="0">
    <sodipodi:guide
       position="381.54552,190.43521"
       orientation="0,1"
       id="guide4214" />
    <sodipodi:guide
       position="359.47069,0.71106664"
       orientation="0,1"
       id="guide4216" />
    <sodipodi:guide
       position="364.24363,100.34608"
       orientation="0,1"
       id="guide4218" />
  </sodipodi:namedview>
  <defs
     id="defs3809" />
  <metadata
     id="metadata3812">
    <rdf:RDF>
      <cc:Work
         rdf:about="">
        <dc:format>image/svg+xml</dc:format>
        <dc:type
           rdf:resource="http://purl.org/dc/dcmitype/StillImage" />
        <dc:title />
      </cc:Work>
    </rdf:RDF>
  </metadata>
  <g
     id="g4223">
    <path
       d="m 158.74339,164.86316 c 1.03593,-0.98249 2.07371,-1.99999 3.11518,-3.03961 l 0,0.0682 c 16.65424,-16.70216 24.98044,-36.82366 24.98044,-60.37554 0,-23.551874 -8.3262,-43.654937 -24.98044,-60.309177 -16.65977,-16.685576 -36.77389,-25.004401 -60.34051,-25.004401 -23.500273,0 -43.577523,8.320668 -60.237293,25.004401 -16.70401,16.65424 -25.05786,36.755453 -25.05786,60.309177 0,23.49474 8.352,43.59964 25.05786,60.30734 0.35944,0.37419 0.71888,0.73916 1.06911,1.09676 0.98801,-14.14734 6.6193,-26.37213 16.8865,-36.68356 l 0,-0.0774 c 1.85067,-1.82856 3.78983,-3.54283 5.81378,-5.12807 -7.12253,-8.55292 -10.67826,-18.5381 -10.67826,-29.979474 0,-13.1022 4.63775,-24.292891 13.91325,-33.575764 9.27734,-9.273655 20.46988,-13.909562 33.572073,-13.909562 13.10957,0 24.29842,4.635907 33.57392,13.909562 9.27918,9.282873 13.92062,20.471724 13.92062,33.575764 0,12.069944 -3.94467,22.514094 -11.82479,31.337984 1.39538,1.16129 2.77602,2.42395 4.13453,3.76956 10.80176,10.8165 16.49756,23.71777 17.08189,38.70383 z M 173.33866,29.71957 c 19.8026,19.806288 29.70667,43.736046 29.70667,71.79664 0,28.0053 -9.90407,51.9369 -29.70667,71.78927 -6.1806,6.13636 -12.72985,11.34 -19.65514,15.61278 -1.79906,1.07095 -3.71794,1.41565 -5.74189,1.00644 -2.03132,-0.40553 -3.67185,-1.42119 -4.94189,-3.04514 -1.26266,-1.65528 -1.79906,-3.51702 -1.60736,-5.59442 l 1.14469,-14.18237 c -0.0461,-11.48378 -4.16771,-21.30121 -12.3575,-29.45967 -2.98431,-2.96771 -6.164,-5.38797 -9.53541,-7.27182 -1.67187,-0.9106 -2.84237,-2.23962 -3.49674,-3.98523 -0.76866,-1.77141 -0.88294,-3.53545 -0.35023,-5.29027 0.48848,-1.78801 1.50045,-3.25712 3.04329,-4.37969 1.447,-1.08018 2.81104,-2.27648 4.11426,-3.57417 6.12898,-6.12713 9.19255,-13.483754 9.19255,-22.086454 0,-8.61007 -3.06357,-15.97406 -9.19255,-22.084608 -6.11793,-6.132668 -13.48192,-9.196237 -22.09567,-9.196237 -8.591643,0 -15.959323,3.063569 -22.086463,9.196237 -6.11423,6.110548 -9.17411,13.476388 -9.17411,22.084608 0,8.6027 3.05804,15.959324 9.17411,22.086454 1.03778,1.02857 2.12349,1.96865 3.26265,2.82579 1.47649,1.16681 2.435,2.67463 2.89398,4.52899 0.44977,1.79907 0.27281,3.57232 -0.53824,5.32346 -0.80737,1.7198 -2.0516,3.01196 -3.72163,3.86909 -3.90964,1.93731 -7.55754,4.58061 -10.94737,7.9557 -8.18795,8.20454 -12.28377,18.11598 -12.28377,29.73063 l 0.94746,12.50865 c 0.12903,2.05712 -0.45161,3.89858 -1.75114,5.51516 -1.31612,1.67741 -2.98062,2.68754 -5.01378,3.04145 -2.05713,0.33364 -3.96864,-0.0811 -5.74005,-1.20921 -6.03129,-3.9078 -11.72709,-8.55292 -17.08373,-13.92246 C 9.937245,153.45495 0,129.5252 0,101.5199 0,73.457456 9.957521,49.529544 29.874407,29.723257 l -0.0774,0 C 49.605137,9.902223 73.510927,9.9999999e-7 101.51992,9.9999999e-7 129.58052,-0.003699 153.5158,9.898536 173.33868,29.71957 Z"
       id="path6453"
       style="fill:#42b3df;fill-opacity:1;fill-rule:evenodd"
       inkscape:connector-curvature="0" />
    <g
       id="g4207">
      <g
         id="g4199">
        <path
           d="m 257.52605,63.931628 c -10.35063,0 -16.27025,7.695503 -16.27025,24.157267 0,15.974265 6.40712,22.677355 16.76645,22.677355 9.86314,0 18.72951,-6.90768 18.72951,-6.90768 l 5.43212,8.88379 c 0,0 -10.35499,10.74674 -25.8374,10.74674 -20.01354,0 -31.55245,-12.02643 -31.55245,-34.908361 0,-23.169217 13.01011,-36.971501 33.22822,-36.971501 11.93065,0 22.97335,4.635569 22.97335,4.635569 l -0.4875,18.733865 -9.66291,0 -2.27208,-9.467048 c -0.004,0 -4.63559,-1.579996 -11.04706,-1.579996 z"
           id="path6457"
           style="fill:#42b3df;fill-opacity:1"
           inkscape:connector-curvature="0" />
        <path
           d="m 334.13725,94.696227 c 0,17.745783 -10.35933,28.592623 -26.3249,28.592623 -16.07002,0 -25.14098,-8.38322 -25.14098,-27.112729 0,-17.745786 10.5465,-28.096423 26.62088,-28.096423 15.97427,0 24.845,9.65421 24.845,26.616529 z m -36.18803,0.9924 c 0,11.329983 3.15569,16.261553 10.35498,16.261553 7.10355,0 10.55085,-4.43972 10.55085,-16.766459 0,-10.546489 -2.95981,-15.769697 -10.05464,-15.769697 -7.20366,0.0048 -10.85119,3.943526 -10.85119,16.274603 z"
           id="path6459"
           style="fill:#42b3df;fill-opacity:1"
           inkscape:connector-curvature="0" />
        <path
           d="m 419.61918,111.95018 6.70746,2.4636 0,7.88703 -26.42067,0 0,-7.88703 5.22756,-2.4636 0,-23.169228 c 0,-5.423402 -1.57567,-8.087246 -5.7194,-8.087246 -6.41148,0 -10.94262,5.127457 -10.94262,5.127457 l 0,26.133357 5.1231,2.46361 0,7.88704 -24.84499,0 0,-7.88704 5.13179,-2.46361 0,-23.169218 c 0,-5.423411 -1.37979,-8.087236 -5.62364,-8.087236 -6.40712,0 -11.03836,5.127438 -11.03836,5.127438 l 0,26.133386 5.2232,2.4636 0,7.88702 -27.31295,0 0,-7.88702 7.59104,-2.4636 0,-32.344624 -7.49528,-1.876018 0,-7.882663 20.31388,-0.792178 0.69206,6.990365 c 0,0 8.58345,-7.974083 17.2496,-7.974083 6.80757,0 11.14282,3.242739 13.41055,8.465947 1.68013,-1.667084 9.07095,-8.465947 17.84593,-8.465947 10.05899,0 14.88609,6.698771 14.88609,17.737104 l 0,26.133387 z"
           id="path6461"
           style="fill:#42b3df;fill-opacity:1"
           inkscape:connector-curvature="0" />
        <path
           d="m 510.52888,111.95018 6.70745,2.4636 0,7.88703 -26.42938,0 0,-7.88703 5.22756,-2.4636 0,-23.169228 c 0,-5.423402 -1.57565,-8.087246 -5.7194,-8.087246 -6.40711,0 -10.94259,5.127457 -10.94259,5.127457 l 0,26.133357 5.13178,2.46361 0,7.88704 -24.84933,0 0,-7.88704 5.12743,-2.46361 0,-23.169218 c 0,-5.423411 -1.37545,-8.087236 -5.61929,-8.087236 -6.41146,0 -11.04272,5.127438 -11.04272,5.127438 l 0,26.133386 5.22322,2.4636 0,7.88702 -27.3086,0 0,-7.88702 7.58668,-2.4636 0,-32.344624 -7.48658,-1.876018 0,-7.882663 20.30517,-0.792178 0.68771,6.990365 c 0,0 8.58344,-7.974083 17.25832,-7.974083 6.80321,0 11.14281,3.242739 13.41491,8.465947 1.66706,-1.667084 9.07094,-8.465947 17.84154,-8.465947 10.06336,0 14.89046,6.698771 14.89046,17.737104 l 0,26.133387 z"
           id="path6463"
           style="fill:#42b3df;fill-opacity:1"
           inkscape:connector-curvature="0" />
        <path
           d="m 539.32609,69.063407 0,42.891113 6.89895,2.46361 0,7.88704 -29.2847,0 0,-7.88704 7.88703,-2.46361 0,-32.244503 -7.88703,-1.971769 0,-7.882663 22.38575,-0.792178 z M 531.4347,43.918075 c 5.12744,0 8.27876,2.659481 8.27876,8.866378 0,5.815155 -4.23947,8.975185 -8.27876,8.975185 -5.32765,0 -8.47898,-3.164381 -8.47898,-8.975185 0,-5.610588 4.03927,-8.866378 8.47898,-8.866378 z"
           id="path6465"
           style="fill:#42b3df;fill-opacity:1"
           inkscape:connector-curvature="0" />
        <path
           d="m 553.71599,99.627784 0,-18.442214 -9.16671,0 0,-9.362587 9.16671,-1.279682 0,-13.610758 14.49437,-2.663845 0,16.274603 13.80229,0 0,10.642269 -13.80229,0 0,22.28126 c 0,6.31573 1.07946,8.8838 5.21883,8.8838 2.66818,0 6.51159,-1.58438 7.79127,-2.27645 l 3.54741,7.10355 c -4.73134,3.35154 -11.14279,6.11549 -16.7621,6.11549 -11.13411,0 -14.28978,-6.60736 -14.28978,-23.665436 z"
           id="path6467"
           style="fill:#42b3df;fill-opacity:1"
           inkscape:connector-curvature="0" />
      </g>
      <g
         id="g4191">
        <path
           d="m 616.72078,63.931625 c -10.355,0 -16.26155,7.695508 -16.26155,24.157273 0,15.974272 6.40712,22.677352 16.75773,22.677352 9.85878,0 18.73387,-6.90767 18.73387,-6.90767 l 5.42775,8.88378 c 0,0 -10.35934,10.74674 -25.83739,10.74674 -20.01789,0 -31.55679,-12.02642 -31.55679,-34.908357 0,-23.16922 13.0188,-36.971505 33.23256,-36.971505 11.9263,0 22.97335,4.635568 22.97335,4.635568 l -0.4875,18.733869 -9.66725,0 -2.26774,-9.467056 c 0,0 -4.63993,-1.579994 -11.04704,-1.579994 z"
           id="path6469"
           style="opacity:0.70106764;fill:#494949;fill-opacity:1"
           inkscape:connector-curvature="0" />
        <path
           d="m 663.25506,45.894186 0,28.888616 c 2.8597,-2.363487 9.26684,-6.69874 16.56189,-6.69874 10.06336,0 15.29089,6.69874 15.29089,17.737104 l 0,26.133354 6.90333,2.46362 0,7.88703 -26.62088,0 0,-7.88703 5.12743,-2.37221 0,-23.957032 c 0,-4.931586 -1.97611,-7.887034 -6.51157,-7.887034 -5.51919,0 -10.74672,5.227549 -10.74672,5.227549 l 0,26.525107 5.22753,2.46362 0,7.88703 -27.60891,0 0,-7.88703 7.88701,-2.46362 0,-55.418089 -7.88701,-1.976086 0,-7.882691 22.37701,-0.783468 z"
           id="path6471"
           style="opacity:0.70106764;fill:#494949;fill-opacity:1"
           inkscape:connector-curvature="0" />
        <path
           d="m 734.93907,122.30517 -1.77155,-6.41583 c 0,0 -7.59538,7.39952 -15.97861,7.39952 -9.56715,0 -15.2822,-5.62363 -15.2822,-15.48241 0,-11.634666 8.67921,-16.274601 23.66543,-16.274601 l 6.89895,0 0,-5.41906 c 0,-5.227559 -2.65945,-7.390829 -7.59104,-7.390829 -5.02296,0 -8.67051,1.475554 -8.67051,1.475554 l -1.47989,6.420171 -8.87508,0 -0.69207,-14.59883 c 0,0 11.935,-3.934793 21.40204,-3.934793 14.98186,0 20.50539,5.218842 20.50539,19.512972 l 0,24.357486 7.39517,1.77155 0,7.88701 -19.52603,0.69209 z m -13.01448,-10.059 c 5.22756,0 10.5465,-5.7194 10.5465,-5.7194 l 0,-6.602981 -5.61493,0 c -7.69114,0 -10.74671,1.971741 -10.74671,6.407111 0,3.74328 2.07186,5.91527 5.81514,5.91527 z"
           id="path6473"
           style="opacity:0.70106764;fill:#494949;fill-opacity:1"
           inkscape:connector-curvature="0" />
        <path
           d="m 774.5744,69.063403 0.68771,6.798862 c 0,0 9.36694,-7.595388 18.14191,-7.595388 9.56715,0 14.69458,6.803206 14.69458,17.54992 l 0,26.133383 c 2.36783,0.79218 4.63122,1.67577 6.89897,2.4636 l 0,7.88704 -26.61652,0 0,-7.88704 5.22319,-2.4636 0,-23.861282 c 0,-4.539843 -2.56373,-7.887034 -6.70312,-7.887034 -6.11548,0 -10.5552,5.619302 -10.5552,5.619302 l 0,26.133354 5.1318,2.46362 0,7.88703 -27.31296,0 0,-7.88703 7.59104,-2.46362 0,-32.2445 -7.59104,-1.971768 0,-7.882667 20.40964,-0.792182 z"
           id="path6475"
           style="opacity:0.70106764;fill:#494949;fill-opacity:1"
           inkscape:connector-curvature="0" />
        <path
           d="m 825.8444,121.31711 c 0,0 -5.90657,-0.88359 -5.90657,-6.50723 0,-2.85536 3.94351,-9.26682 5.1231,-11.13847 -2.36786,-1.57567 -7.59104,-5.81951 -7.59104,-15.38229 0,-13.510663 10.15911,-20.209426 23.66542,-20.209426 5.71503,0 9.75866,1.475553 11.63031,2.359142 l 16.96232,-0.396091 0,7.891378 -8.08289,1.371092 c 0.19576,0.887929 1.68012,3.551783 1.68012,7.795624 0,14.289781 -10.059,20.213751 -23.66977,20.213751 -2.65512,0 -4.63123,-0.49185 -5.02732,-0.49185 l -0.3874,6.603 14.59011,0 c 12.52264,0 19.71759,5.42342 19.71759,15.28654 0,10.84683 -8.67487,18.73384 -27.60025,18.73384 -15.48677,0 -25.45001,-3.45163 -25.45001,-14.29412 -0.01,-8.47898 10.34628,-11.83489 10.34628,-11.83489 z m 8.67487,2.95546 c 0,0 -4.73135,2.17632 -4.73135,6.41148 0,4.92719 4.23948,5.90655 12.32239,5.90655 8.87941,0 12.6227,-1.96305 12.6227,-6.69439 0,-4.43972 -3.25142,-5.62364 -9.85877,-5.62364 l -10.35497,0 z m -2.26776,-36.675536 c 0,5.915265 2.26776,9.867493 7.88704,9.867493 6.21124,0 8.38322,-3.264511 8.38322,-9.867493 0,-6.215589 -2.4636,-9.371278 -7.88701,-9.371278 -5.91093,-0.0048 -8.38325,3.155689 -8.38325,9.371278 z"
           id="path6477"
           style="opacity:0.70106764;fill:#494949;fill-opacity:1"
           inkscape:connector-curvature="0" />
        <path
           d="m 885.00577,98.93136 c 0.59197,8.18738 5.13181,12.82294 11.8349,12.82294 8.18736,0 16.56189,-4.63556 16.56189,-4.63556 l 4.24382,7.88701 c 0,0 -9.8631,8.28311 -22.47709,8.28311 -16.95801,0 -25.64157,-9.86748 -25.64157,-26.629582 0,-17.245251 9.76737,-28.579584 26.32924,-28.579584 14.69028,0 22.47719,9.062251 22.47719,23.164874 0,3.738944 -0.58761,7.390828 -0.58761,7.390828 l -32.74077,0.295964 z m 0.19151,-9.166687 17.75012,0 c 0,-5.915275 -2.36786,-10.154774 -8.08285,-10.154774 -5.41908,0 -8.87509,4.043628 -9.66727,10.154774 z"
           id="path6479"
           style="opacity:0.70106764;fill:#494949;fill-opacity:1"
           inkscape:connector-curvature="0" />
      </g>
    </g>
  </g>
</svg>
