<?xml version="1.0" encoding="UTF-8" standalone="no"?>
<!-- Created with Inkscape (http://www.inkscape.org/) -->

<svg
   xmlns:dc="http://purl.org/dc/elements/1.1/"
   xmlns:cc="http://creativecommons.org/ns#"
   xmlns:rdf="http://www.w3.org/1999/02/22-rdf-syntax-ns#"
   xmlns:svg="http://www.w3.org/2000/svg"
   xmlns="http://www.w3.org/2000/svg"
   xmlns:sodipodi="http://sodipodi.sourceforge.net/DTD/sodipodi-0.dtd"
   xmlns:inkscape="http://www.inkscape.org/namespaces/inkscape"
   version="1.1"
   width="920.33417"
   height="190.09184"
   id="svg3807"
   inkscape:version="0.91 r13725"
   sodipodi:docname="commitchange.svg">
  <sodipodi:namedview
     pagecolor="#ffffff"
     bordercolor="#666666"
     borderopacity="1"
     objecttolerance="10"
     gridtolerance="10"
     guidetolerance="10"
     inkscape:pageopacity="0"
     inkscape:pageshadow="2"
     inkscape:window-width="1366"
     inkscape:window-height="702"
     id="namedview24"
     showgrid="false"
     showguides="true"
     inkscape:guide-bbox="true"
     inkscape:zoom="0.67764214"
     inkscape:cx="817.77696"
     inkscape:cy="-47.479211"
     inkscape:window-x="0"
     inkscape:window-y="27"
     inkscape:window-maximized="1"
     inkscape:current-layer="g4262"
     fit-margin-top="0"
     fit-margin-left="0"
     fit-margin-right="0"
     fit-margin-bottom="0">
    <sodipodi:guide
       position="381.54552,190.43521"
       orientation="0,1"
       id="guide4214" />
    <sodipodi:guide
       position="359.47069,0.71106664"
       orientation="0,1"
       id="guide4216" />
    <sodipodi:guide
       position="364.24363,100.34608"
       orientation="0,1"
       id="guide4218" />
  </sodipodi:namedview>
  <defs
     id="defs3809" />
  <metadata
     id="metadata3812">
    <rdf:RDF>
      <cc:Work
         rdf:about="">
        <dc:format>image/svg+xml</dc:format>
        <dc:type
           rdf:resource="http://purl.org/dc/dcmitype/StillImage" />
        <dc:title />
      </cc:Work>
    </rdf:RDF>
  </metadata>
  <path
     inkscape:connector-curvature="0"
     style="fill:#1f8dd1;fill-opacity:1;fill-rule:evenodd"
     id="path6453"
     d="m 158.74339,164.86316 c 1.03593,-0.98249 2.07371,-1.99999 3.11518,-3.03961 l 0,0.0682 c 16.65424,-16.70216 24.98044,-36.82366 24.98044,-60.37554 0,-23.551874 -8.3262,-43.654937 -24.98044,-60.309177 -16.65977,-16.685576 -36.77389,-25.004401 -60.34051,-25.004401 -23.500273,0 -43.577523,8.320668 -60.237293,25.004401 -16.70401,16.65424 -25.05786,36.755453 -25.05786,60.309177 0,23.49474 8.352,43.59964 25.05786,60.30734 0.35944,0.37419 0.71888,0.73916 1.06911,1.09676 0.98801,-14.14734 6.6193,-26.37213 16.8865,-36.68356 l 0,-0.0774 c 1.85067,-1.82856 3.78983,-3.54283 5.81378,-5.12807 -7.12253,-8.55292 -10.67826,-18.5381 -10.67826,-29.979474 0,-13.1022 4.63775,-24.292891 13.91325,-33.575764 9.27734,-9.273655 20.46988,-13.909562 33.572073,-13.909562 13.10957,0 24.29842,4.635907 33.57392,13.909562 9.27918,9.282873 13.92062,20.471724 13.92062,33.575764 0,12.069944 -3.94467,22.514094 -11.82479,31.337984 1.39538,1.16129 2.77602,2.42395 4.13453,3.76956 10.80176,10.8165 16.49756,23.71777 17.08189,38.70383 z M 173.33866,29.71957 c 19.8026,19.806288 29.70667,43.736046 29.70667,71.79664 0,28.0053 -9.90407,51.9369 -29.70667,71.78927 -6.1806,6.13636 -12.72985,11.34 -19.65514,15.61278 -1.79906,1.07095 -3.71794,1.41565 -5.74189,1.00644 -2.03132,-0.40553 -3.67185,-1.42119 -4.94189,-3.04514 -1.26266,-1.65528 -1.79906,-3.51702 -1.60736,-5.59442 l 1.14469,-14.18237 c -0.0461,-11.48378 -4.16771,-21.30121 -12.3575,-29.45967 -2.98431,-2.96771 -6.164,-5.38797 -9.53541,-7.27182 -1.67187,-0.9106 -2.84237,-2.23962 -3.49674,-3.98523 -0.76866,-1.77141 -0.88294,-3.53545 -0.35023,-5.29027 0.48848,-1.78801 1.50045,-3.25712 3.04329,-4.37969 1.447,-1.08018 2.81104,-2.27648 4.11426,-3.57417 6.12898,-6.12713 9.19255,-13.483754 9.19255,-22.086454 0,-8.61007 -3.06357,-15.97406 -9.19255,-22.084608 -6.11793,-6.132668 -13.48192,-9.196237 -22.09567,-9.196237 -8.591643,0 -15.959323,3.063569 -22.086463,9.196237 -6.11423,6.110548 -9.17411,13.476388 -9.17411,22.084608 0,8.6027 3.05804,15.959324 9.17411,22.086454 1.03778,1.02857 2.12349,1.96865 3.26265,2.82579 1.47649,1.16681 2.435,2.67463 2.89398,4.52899 0.44977,1.79907 0.27281,3.57232 -0.53824,5.32346 -0.80737,1.7198 -2.0516,3.01196 -3.72163,3.86909 -3.90964,1.93731 -7.55754,4.58061 -10.94737,7.9557 -8.18795,8.20454 -12.28377,18.11598 -12.28377,29.73063 l 0.94746,12.50865 c 0.12903,2.05712 -0.45161,3.89858 -1.75114,5.51516 -1.31612,1.67741 -2.98062,2.68754 -5.01378,3.04145 -2.05713,0.33364 -3.96864,-0.0811 -5.74005,-1.20921 -6.03129,-3.9078 -11.72709,-8.55292 -17.08373,-13.92246 C 9.937245,153.45495 0,129.5252 0,101.5199 0,73.457456 9.957521,49.529544 29.874407,29.723257 l -0.0774,0 C 49.605137,9.902223 73.510927,9.9999999e-7 101.51992,9.9999999e-7 129.58052,-0.003699 153.5158,9.898536 173.33868,29.71957 Z" />
  <g
     id="g4262"
     transform="matrix(0.96678991,0,0,0.96678991,-74.599979,-44.274718)">
    <g
       id="g3493"
       transform="translate(-2.0687018,24.824423)">
      <g
         id="g4240">
        <path
           d="m 345.60355,87.098903 c -10.70618,0 -16.82914,7.959856 -16.82914,24.987097 0,16.523 6.6272,23.45634 17.34239,23.45634 10.20194,0 19.37288,-7.14496 19.37288,-7.14496 l 5.61872,9.18895 c 0,0 -10.71069,11.1159 -26.72494,11.1159 -20.70102,0 -32.6363,-12.43954 -32.6363,-36.10749 0,-23.965103 13.45702,-38.241508 34.36964,-38.241508 12.34048,0 23.7625,4.794803 23.7625,4.794803 l -0.50424,19.377394 -9.99484,0 -2.35013,-9.792257 c -0.004,0 -4.79483,-1.634269 -11.42654,-1.634269 z"
           id="path6457"
           style="fill:#1f8dd1;fill-opacity:1"
           inkscape:connector-curvature="0" />
        <path
           d="m 424.84642,118.9203 c 0,18.35537 -10.71519,29.57481 -27.22919,29.57481 -16.62204,0 -26.00459,-8.6712 -26.00459,-28.04408 0,-18.35537 10.90878,-29.061568 27.53533,-29.061568 16.523,0 25.69845,9.985848 25.69845,27.530838 z m -37.43113,1.02649 c 0,11.71918 3.26409,16.82015 10.71069,16.82015 7.34756,0 10.91328,-4.59223 10.91328,-17.3424 0,-10.90877 -3.06148,-16.3114 -10.40003,-16.3114 -7.45111,0.005 -11.22394,4.07899 -11.22394,16.83365 z"
           id="path6459"
           style="fill:#1f8dd1;fill-opacity:1"
           inkscape:connector-curvature="0" />
        <path
           d="m 513.26473,136.76694 6.93786,2.54823 0,8.15796 -27.32824,0 0,-8.15796 5.40713,-2.54823 0,-23.96511 c 0,-5.6097 -1.6298,-8.36505 -5.91587,-8.36505 -6.63172,0 -11.3185,5.30359 -11.3185,5.30359 l 0,27.03106 5.29908,2.54824 0,8.15796 -25.69844,0 0,-8.15796 5.30807,-2.54824 0,-23.9651 c 0,-5.60971 -1.42719,-8.36504 -5.81682,-8.36504 -6.62721,0 -11.41753,5.30357 -11.41753,5.30357 l 0,27.03109 5.40262,2.54823 0,8.15794 -28.25118,0 0,-8.15794 7.8518,-2.54823 0,-33.45569 -7.75275,-1.94046 0,-8.153443 21.01168,-0.819394 0.71584,7.230491 c 0,0 8.8783,-8.247992 17.84214,-8.247992 7.04141,0 11.52558,3.354122 13.87121,8.756758 1.73784,-1.724351 9.38255,-8.756758 18.45895,-8.756758 10.40453,0 15.39744,6.928872 15.39744,18.346388 l 0,27.03109 z"
           id="path6461"
           style="fill:#1f8dd1;fill-opacity:1"
           inkscape:connector-curvature="0" />
        <path
           d="m 607.29725,136.76694 6.93786,2.54823 0,8.15796 -27.33725,0 0,-8.15796 5.40713,-2.54823 0,-23.96511 c 0,-5.6097 -1.62978,-8.36505 -5.91587,-8.36505 -6.6272,0 -11.31847,5.30359 -11.31847,5.30359 l 0,27.03106 5.30806,2.54824 0,8.15796 -25.70293,0 0,-8.15796 5.30356,-2.54824 0,-23.9651 c 0,-5.60971 -1.4227,-8.36504 -5.81232,-8.36504 -6.6317,0 -11.42204,5.30357 -11.42204,5.30357 l 0,27.03109 5.40264,2.54823 0,8.15794 -28.24668,0 0,-8.15794 7.84729,-2.54823 0,-33.45569 -7.74375,-1.94046 0,-8.153443 21.00267,-0.819394 0.71134,7.230491 c 0,0 8.87829,-8.247992 17.85116,-8.247992 7.0369,0 11.52557,3.354122 13.87572,8.756758 1.72432,-1.724351 9.38253,-8.756758 18.45441,-8.756758 10.40905,0 15.40196,6.928872 15.40196,18.346388 l 0,27.03109 z"
           id="path6463"
           style="fill:#1f8dd1;fill-opacity:1"
           inkscape:connector-curvature="0" />
        <path
           d="m 637.08367,92.406963 0,44.364467 7.13594,2.54824 0,8.15796 -30.29066,0 0,-8.15796 8.15796,-2.54824 0,-33.35213 -8.15796,-2.0395 0,-8.153443 23.15472,-0.819394 z m -8.16246,-26.009092 c 5.30357,0 8.56314,2.750836 8.56314,9.170945 0,6.014907 -4.3851,9.283494 -8.56314,9.283494 -5.51066,0 -8.77024,-3.273082 -8.77024,-9.283494 0,-5.803316 4.17802,-9.170945 8.77024,-9.170945 z"
           id="path6465"
           style="fill:#1f8dd1;fill-opacity:1"
           inkscape:connector-curvature="0" />
        <path
           d="m 651.96788,124.02126 0,-19.07572 -9.4816,0 0,-9.684204 9.4816,-1.323639 0,-14.078297 14.99226,-2.755356 0,16.833653 14.27641,0 0,11.007843 -14.27641,0 0,23.04664 c 0,6.53268 1.11654,9.18897 5.39811,9.18897 2.75983,0 6.73526,-1.63881 8.0589,-2.35465 l 3.66927,7.34756 c -4.89387,3.46667 -11.52556,6.32556 -17.33789,6.32556 -11.51658,0 -14.78065,-6.83432 -14.78065,-24.47836 z"
           id="path6467"
           style="fill:#1f8dd1;fill-opacity:1"
           inkscape:connector-curvature="0" />
      </g>
      <g
         id="g4254">
        <path
           d="m 717.13694,87.098903 c -10.7107,0 -16.82015,7.959856 -16.82015,24.987097 0,16.523 6.62721,23.45634 17.33338,23.45634 10.19743,0 19.37739,-7.14496 19.37739,-7.14496 l 5.6142,9.18895 c 0,0 -10.71519,11.1159 -26.72493,11.1159 -20.70552,0 -32.64079,-12.43954 -32.64079,-36.10749 0,-23.965103 13.466,-38.241508 34.37413,-38.241508 12.33597,0 23.7625,4.794803 23.7625,4.794803 l -0.50425,19.377394 -9.99932,0 -2.34564,-9.792257 c 0,0 -4.79932,-1.634269 -11.42652,-1.634269 z"
           id="path6469"
           style="opacity:0.70106764;fill:#222222;fill-opacity:0.66666667"
           inkscape:connector-curvature="0" />
        <path
           d="m 765.26972,68.441862 0,29.880966 c 2.95793,-2.444675 9.58516,-6.928848 17.1308,-6.928848 10.40905,0 15.81615,6.928848 15.81615,18.34639 l 0,27.03106 7.14046,2.54824 0,8.15796 -27.53533,0 0,-8.15796 5.30356,-2.45369 0,-24.77998 c 0,-5.10099 -2.04399,-8.15796 -6.73525,-8.15796 -5.70877,0 -11.11587,5.40712 -11.11587,5.40712 l 0,27.43627 5.4071,2.54824 0,8.15796 -28.55731,0 0,-8.15796 8.15794,-2.54824 0,-57.321752 -8.15794,-2.043966 0,-8.153469 23.14569,-0.810381 z"
           id="path6471"
           style="opacity:0.70106764;fill:#222222;fill-opacity:0.66666667"
           inkscape:connector-curvature="0" />
        <path
           d="m 839.41613,147.47763 -1.8324,-6.63622 c 0,0 -7.85629,7.6537 -16.52749,7.6537 -9.89579,0 -15.80716,-5.8168 -15.80716,-16.01424 0,-12.03433 8.97735,-16.83365 24.47836,-16.83365 l 7.13594,0 0,-5.60521 c 0,-5.40713 -2.75081,-7.64471 -7.8518,-7.64471 -5.19551,0 -8.96835,1.52624 -8.96835,1.52624 l -1.53073,6.64071 -9.17994,0 -0.71585,-15.100313 c 0,0 12.34498,-4.069957 22.13722,-4.069957 15.4965,0 21.20977,5.398114 21.20977,20.18326 l 0,25.19419 7.6492,1.8324 0,8.15794 -20.19677,0.71586 z M 825.9546,137.0731 c 5.40713,0 10.90878,-5.91587 10.90878,-5.91587 l 0,-6.8298 -5.80781,0 c -7.95534,0 -11.11587,2.03947 -11.11587,6.6272 0,3.87187 2.14303,6.11847 6.0149,6.11847 z"
           id="path6473"
           style="opacity:0.70106764;fill:#222222;fill-opacity:0.66666667"
           inkscape:connector-curvature="0" />
        <path
           d="m 880.41297,92.406963 0.71134,7.032408 c 0,0 9.6887,-7.856296 18.7651,-7.856296 9.89579,0 15.19935,7.036902 15.19935,18.152775 l 0,27.03109 c 2.44917,0.81939 4.79031,1.73333 7.13595,2.54823 l 0,8.15796 -27.53082,0 0,-8.15796 5.40261,-2.54823 0,-24.68094 c 0,-4.69579 -2.65179,-8.15796 -6.93337,-8.15796 -6.32556,0 -10.91778,5.81233 -10.91778,5.81233 l 0,27.03106 5.30808,2.54824 0,8.15796 -28.25119,0 0,-8.15796 7.8518,-2.54824 0,-33.35213 -7.8518,-2.0395 0,-8.153443 21.11073,-0.819394 z"
           id="path6475"
           style="opacity:0.70106764;fill:#222222;fill-opacity:0.66666667"
           inkscape:connector-curvature="0" />
        <path
           d="m 933.44414,146.45563 c 0,0 -6.10946,-0.91394 -6.10946,-6.73076 0,-2.95344 4.07897,-9.58514 5.29908,-11.52108 -2.4492,-1.6298 -7.8518,-6.01942 -7.8518,-15.91069 0,-13.974766 10.50809,-20.903638 24.47835,-20.903638 5.91135,0 10.09388,1.52624 12.02982,2.440181 l 17.54499,-0.409697 0,8.162454 -8.36054,1.41819 c 0.20248,0.91843 1.73783,3.67379 1.73783,8.06341 0,14.78065 -10.40453,20.90811 -24.48285,20.90811 -2.74632,0 -4.79031,-0.50874 -5.20001,-0.50874 l -0.40071,6.82981 15.0913,0 c 12.9528,0 20.3949,5.60972 20.3949,15.81165 0,11.21943 -8.97286,19.37737 -28.54834,19.37737 -16.01875,0 -26.32424,-3.5702 -26.32424,-14.78514 -0.01,-8.77024 10.70168,-12.24143 10.70168,-12.24143 z m 8.97286,3.05698 c 0,0 -4.89387,2.25108 -4.89387,6.63172 0,5.09645 4.38511,6.10945 12.74567,6.10945 9.18443,0 13.0563,-2.03048 13.0563,-6.92435 0,-4.59223 -3.36311,-5.81682 -10.19743,-5.81682 l -10.71067,0 z m -2.34566,-37.93537 c 0,6.11846 2.34566,10.20645 8.15797,10.20645 6.4246,0 8.67119,-3.37665 8.67119,-10.20645 0,-6.4291 -2.54823,-9.69319 -8.15794,-9.69319 -6.11397,-0.005 -8.67122,3.26409 -8.67122,9.69319 z"
           id="path6477"
           style="opacity:0.70106764;fill:#222222;fill-opacity:0.66666667"
           inkscape:connector-curvature="0" />
        <path
           d="m 994.63776,123.30091 c 0.6123,8.46862 5.30809,13.26342 12.24144,13.26342 8.4686,0 17.1308,-4.7948 17.1308,-4.7948 l 4.3896,8.15794 c 0,0 -10.2019,8.56764 -23.2492,8.56764 -17.54053,0 -26.52238,-10.20643 -26.52238,-27.54433 0,-17.83764 10.10289,-29.561318 27.23368,-29.561318 15.1949,0 23.2493,9.373548 23.2493,23.960608 0,3.86738 -0.6078,7.64471 -0.6078,7.64471 l -33.86544,0.30613 z m 0.19809,-9.48157 18.35985,0 c 0,-6.11847 -2.4492,-10.5036 -8.3605,-10.5036 -5.60523,0 -9.17996,4.18253 -9.99935,10.5036 z"
           id="path6479"
           style="opacity:0.70106764;fill:#222222;fill-opacity:0.66666667"
           inkscape:connector-curvature="0" />
      </g>
    </g>
  </g>
</svg>
