<?xml version="1.0" encoding="UTF-8" standalone="no"?>
<svg
   xmlns:dc="http://purl.org/dc/elements/1.1/"
   xmlns:cc="http://creativecommons.org/ns#"
   xmlns:rdf="http://www.w3.org/1999/02/22-rdf-syntax-ns#"
   xmlns:svg="http://www.w3.org/2000/svg"
   xmlns="http://www.w3.org/2000/svg"
   xmlns:sodipodi="http://sodipodi.sourceforge.net/DTD/sodipodi-0.dtd"
   xmlns:inkscape="http://www.inkscape.org/namespaces/inkscape"
   id="svg2"
   version="1.1"
   viewBox="0 0 252.16611 57.414772"
   height="57.414772pt"
   width="252.16611pt"
   inkscape:version="0.91 r13725"
   sodipodi:docname="dstyle.svg">
  <sodipodi:namedview
     pagecolor="#ffffff"
     bordercolor="#666666"
     borderopacity="1"
     objecttolerance="10"
     gridtolerance="10"
     guidetolerance="10"
     inkscape:pageopacity="0"
     inkscape:pageshadow="2"
     inkscape:window-width="1366"
     inkscape:window-height="702"
     id="namedview4160"
     showgrid="false"
     inkscape:zoom="1.1185417"
     inkscape:cx="191.15993"
     inkscape:cy="65.606095"
     inkscape:window-x="0"
     inkscape:window-y="27"
     inkscape:window-maximized="1"
     inkscape:current-layer="svg2"
     fit-margin-top="0"
     fit-margin-left="0"
     fit-margin-right="0"
     fit-margin-bottom="0" />
  <metadata
     id="metadata23">
    <rdf:RDF>
      <cc:Work
         rdf:about="">
        <dc:format>image/svg+xml</dc:format>
        <dc:type
           rdf:resource="http://purl.org/dc/dcmitype/StillImage" />
        <dc:title></dc:title>
      </cc:Work>
    </rdf:RDF>
  </metadata>
  <defs
     id="defs21" />
  <g
     transform="translate(-118.20593,-112.81019)"
     id="g4158">
    <path
       inkscape:connector-curvature="0"
       id="path5"
       d="m 132.16406,121.17969 -8.41797,3.32812 -1.32422,8.95313 7.09375,5.625 8.41797,-3.32813 1.32422,-8.95312 z m 0,0"
       style="fill:none;stroke:#00b0cf;stroke-width:3;stroke-linecap:butt;stroke-linejoin:miter;stroke-miterlimit:4;stroke-opacity:1" />
    <path
       inkscape:connector-curvature="0"
       id="path7"
       d="m 149.01172,114.52344 -8.41797,3.32812 -1.32422,8.95313 7.08984,5.625 8.41797,-3.32813 1.32813,-8.95312 z m 0,0"
       style="fill:none;stroke:#00b0cf;stroke-width:3;stroke-linecap:butt;stroke-linejoin:miter;stroke-miterlimit:4;stroke-opacity:1" />
    <path
       inkscape:connector-curvature="0"
       id="path9"
       d="m 163.14062,125.76563 -8.41796,3.32812 -1.32422,8.95312 7.08984,5.625 8.41797,-3.32812 1.32812,-8.95313 z m 0,0"
       style="fill:none;stroke:#00b0cf;stroke-width:3;stroke-linecap:butt;stroke-linejoin:miter;stroke-miterlimit:4;stroke-opacity:1" />
    <path
       inkscape:connector-curvature="0"
       id="path11"
       d="m 126.90625,157.26172 -7.08984,-5.625 1.32422,-8.95703 8.41796,-3.32422 7.08985,5.62109 -1.32032,8.95313 z m 0,0"
       style="fill:none;stroke:#00b0cf;stroke-width:3;stroke-linecap:butt;stroke-linejoin:miter;stroke-miterlimit:4;stroke-opacity:1" />
    <path
       inkscape:connector-curvature="0"
       id="path13"
       d="m 141.10156,168.51172 -7.08984,-5.625 1.32422,-8.95313 8.41797,-3.32812 7.09375,5.625 -1.32422,8.95312 z m 0,0"
       style="fill:none;stroke:#00b0cf;stroke-width:3;stroke-linecap:butt;stroke-linejoin:miter;stroke-miterlimit:4;stroke-opacity:1" />
    <path
       inkscape:connector-curvature="0"
       id="path15"
       d="m 157.88672,161.84375 -7.09766,-5.625 1.32422,-8.95313 8.41797,-3.32812 7.09375,5.625 -1.32422,8.95312 z m 0,0"
       style="fill:none;stroke:#00b0cf;stroke-width:3;stroke-linecap:butt;stroke-linejoin:miter;stroke-miterlimit:4;stroke-opacity:1" />
  </g>
  <g
     style="font-style:normal;font-variant:normal;font-weight:normal;font-stretch:normal;font-size:13.27767944px;line-height:125%;font-family:'Trebuchet MS';-inkscape-font-specification:'Trebuchet MS';letter-spacing:0px;word-spacing:0px;fill:#000000;fill-opacity:1;stroke:none;stroke-width:1px;stroke-linecap:butt;stroke-linejoin:miter;stroke-opacity:1"
     id="text4189">
    <path
       d="m 62.369209,9.9205327 -0.803922,0 0,-1.3031317 0.803922,0 0,-1.4133467 1.620811,-0.5964582 0,2.0098049 1.906073,0 0,1.3031317 -1.906073,0 0,3.0406403 q 0,0.745573 0.233396,1.056769 0.233397,0.304712 0.816889,0.304712 0.583491,0 1.089184,-0.317679 l 0,1.491146 q -0.564042,0.194497 -1.607844,0.194497 -1.037318,0 -1.594877,-0.583492 -0.557559,-0.589975 -0.557559,-1.672676 l 0,-3.5139173 z"
       style="font-weight:bold"
       id="path4727" />
    <path
       d="m 71.880125,15.560953 0,-4.27894 q 0,-0.64184 -0.401961,-1.030835 -0.401961,-0.3889945 -1.050285,-0.3889945 -0.401961,0 -0.810406,0.2204305 -0.408444,0.213947 -0.583491,0.492726 l 0,4.985613 -1.646744,0 0,-9.5303655 1.646744,-0.3889945 0,3.4166685 q 0.628874,-0.5705253 1.731025,-0.5705253 1.303132,0 2.022772,0.7261231 0.71964,0.7196399 0.71964,2.0681537 l 0,4.27894 -1.627294,0 z"
       style="font-weight:bold"
       id="path4729" />
    <path
       d="m 81.468839,12.585145 -4.95968,0 q 0.04538,0.829855 0.570525,1.290165 0.525143,0.46031 1.413347,0.46031 1.108635,0 1.685643,-0.577008 l 0.628875,1.238299 q -0.855788,0.693707 -2.554398,0.693707 -1.588394,0 -2.515498,-0.927104 -0.92062,-0.933586 -0.92062,-2.59978 0,-1.64026 1.011386,-2.6581288 1.017869,-1.017869 2.437699,-1.017869 1.510595,0 2.424732,0.9011706 0.914137,0.9011702 0.914137,2.2950672 0,0.29823 -0.136148,0.901171 z m -4.901331,-1.218849 3.410186,0 q -0.168565,-1.5235622 -1.685643,-1.5235622 -1.387414,0 -1.724543,1.5235622 z"
       style="font-weight:bold"
       id="path4731" />
    <path
       d="m 91.355783,15.560953 0,-0.421411 q -0.20098,0.220431 -0.68074,0.388995 -0.47976,0.162081 -0.991936,0.162081 -1.452246,0 -2.288585,-0.92062 -0.829855,-0.920621 -0.829855,-2.567364 0,-1.646744 0.953037,-2.6775791 0.95952,-1.0373187 2.398799,-1.0373187 0.790956,0 1.43928,0.3241621 l 0,-2.7813108 1.620811,-0.3889945 0,9.91936 -1.620811,0 z m 0,-5.283842 q -0.518659,-0.4149275 -1.082701,-0.4149275 -0.972487,0 -1.497629,0.5964585 -0.525143,0.589975 -0.525143,1.698609 0,2.165403 2.087604,2.165403 0.233397,0 0.570525,-0.136148 0.343612,-0.142631 0.447344,-0.285263 l 0,-3.624132 z"
       style="font-weight:bold"
       id="path4733" />
    <path
       d="m 95.278144,15.560953 -1.458729,0 3.585233,-9.5368487 1.445763,0 -3.572267,9.5368487 z"
       style="font-weight:bold"
       id="path4735" />
    <path
       d="m 99.349623,15.113609 0.577008,-1.290165 q 0.726119,0.577009 1.640259,0.577009 0.94655,0 0.94655,-0.674257 0,-0.395478 -0.28526,-0.648325 -0.28526,-0.252846 -1.10863,-0.596458 -1.79586,-0.745573 -1.79586,-2.087604 0,-0.9011703 0.68722,-1.4003799 0.68723,-0.5056929 1.75696,-0.5056929 1.0827,0 2.03574,0.4862432 l -0.46679,1.2577486 q -0.53163,-0.4538266 -1.47818,-0.4538266 -0.84931,0 -0.84931,0.6742576 0,0.265812 0.27878,0.479759 0.27878,0.213947 1.19292,0.577009 0.91414,0.356578 1.3161,0.868754 0.40196,0.512176 0.40196,1.2383 0,0.966003 -0.71964,1.523561 -0.71316,0.551076 -1.94497,0.551076 -0.69371,0 -1.11512,-0.116698 -0.41493,-0.110215 -1.069737,-0.460311 z"
       style="font-weight:bold"
       id="path4737" />
    <path
       d="m 105.75507,9.9205327 -0.80393,0 0,-1.3031317 0.80393,0 0,-1.4133467 1.62081,-0.5964582 0,2.0098049 1.90607,0 0,1.3031317 -1.90607,0 0,3.0406403 q 0,0.745573 0.23339,1.056769 0.2334,0.304712 0.81689,0.304712 0.58349,0 1.08919,-0.317679 l 0,1.491146 q -0.56405,0.194497 -1.60785,0.194497 -1.03732,0 -1.59488,-0.583492 -0.55755,-0.589975 -0.55755,-1.672676 l 0,-3.5139173 z"
       style="font-weight:bold"
       id="path4739" />
    <path
       d="m 113.84615,16.676071 q -0.25933,0.693707 -1.11512,1.147534 -0.8493,0.46031 -1.98387,0.46031 l 0,-1.432797 q 1.87366,0 1.87366,-0.94007 0,-0.622391 -0.51866,-1.906073 l -2.17189,-5.387574 1.67916,0 1.89311,4.797599 1.70509,-4.797599 1.67916,0 -3.04064,8.05867 z"
       style="font-weight:bold"
       id="path4741" />
    <path
       d="m 118.13157,6.0305875 1.62081,-0.3889945 0,7.805823 q 0,1.283682 0.76502,1.530045 -0.37602,0.713157 -1.28368,0.713157 -1.10215,0 -1.10215,-1.530045 l 0,-8.1299855 z"
       style="font-weight:bold"
       id="path4743" />
    <path
       d="m 127.96665,12.585145 -4.95968,0 q 0.0454,0.829855 0.57052,1.290165 0.52515,0.46031 1.41335,0.46031 1.10864,0 1.68564,-0.577008 l 0.62888,1.238299 q -0.85579,0.693707 -2.5544,0.693707 -1.58839,0 -2.5155,-0.927104 -0.92062,-0.933586 -0.92062,-2.59978 0,-1.64026 1.01139,-2.6581288 1.01787,-1.017869 2.4377,-1.017869 1.51059,0 2.42473,0.9011706 0.91414,0.9011702 0.91414,2.2950672 0,0.29823 -0.13615,0.901171 z m -4.90133,-1.218849 3.41018,0 q -0.16856,-1.5235622 -1.68564,-1.5235622 -1.38741,0 -1.72454,1.5235622 z"
       style="font-weight:bold"
       id="path4745" />
    <path
       d="m 137.85359,15.560953 0,-4.013127 q 0,-0.888204 -0.34361,-1.296648 -0.33713,-0.4084442 -1.10863,-0.4084442 -0.35658,0 -0.76503,0.2009802 -0.40196,0.200981 -0.62887,0.49921 l 0,5.018029 -1.62081,0 0,-6.943552 1.16698,0 0.29823,0.6483242 q 0.66129,-0.777989 1.95146,-0.777989 1.2383,0 1.95145,0.7455728 0.71964,0.7390896 0.71964,2.068154 l 0,4.25949 -1.62081,0 z"
       style="font-weight:bold"
       id="path4747" />
    <path
       d="m 147.41638,12.585145 -4.95968,0 q 0.0454,0.829855 0.57052,1.290165 0.52514,0.46031 1.41335,0.46031 1.10863,0 1.68564,-0.577008 l 0.62887,1.238299 q -0.85578,0.693707 -2.55439,0.693707 -1.5884,0 -2.5155,-0.927104 -0.92062,-0.933586 -0.92062,-2.59978 0,-1.64026 1.01139,-2.6581288 1.01786,-1.017869 2.43769,-1.017869 1.5106,0 2.42474,0.9011706 0.91413,0.9011702 0.91413,2.2950672 0,0.29823 -0.13614,0.901171 z m -4.90134,-1.218849 3.41019,0 q -0.16856,-1.5235622 -1.68564,-1.5235622 -1.38742,0 -1.72455,1.5235622 z"
       style="font-weight:bold"
       id="path4749" />
    <path
       d="m 149.08905,9.9205327 -0.80392,0 0,-1.3031317 0.80392,0 0,-1.4133467 1.62081,-0.5964582 0,2.0098049 1.90607,0 0,1.3031317 -1.90607,0 0,3.0406403 q 0,0.745573 0.2334,1.056769 0.23339,0.304712 0.81689,0.304712 0.58349,0 1.08918,-0.317679 l 0,1.491146 q -0.56404,0.194497 -1.60784,0.194497 -1.03732,0 -1.59488,-0.583492 -0.55756,-0.589975 -0.55756,-1.672676 l 0,-3.5139173 z"
       style="font-weight:bold"
       id="path4751" />
    <path
       d="m 160.92745,15.690618 -0.58997,0 -1.90607,-4.265973 -1.89959,4.265973 -0.59646,0 -2.61923,-7.073217 1.70509,0 1.3939,4.142792 1.69861,-4.142792 0.58349,0 1.75696,4.168725 1.50411,-4.168725 1.59488,0 -2.62572,7.073217 z"
       style="font-weight:bold"
       id="path4753" />
    <path
       d="m 164.05237,12.072969 q 0,-1.588394 0.91414,-2.5868135 0.92062,-0.9984193 2.42473,-0.9984193 1.58191,0 2.45715,0.9595198 0.87524,0.95952 0.87524,2.625713 0,1.65971 -0.89469,2.638679 -0.8882,0.97897 -2.4377,0.97897 -1.58191,0 -2.46363,-0.985453 -0.87524,-0.991936 -0.87524,-2.632196 z m 1.68565,0 q 0,2.295068 1.65322,2.295068 0.75854,0 1.1994,-0.596459 0.44735,-0.596458 0.44735,-1.698609 0,-2.2626514 -1.64675,-2.2626514 -0.75854,0 -1.20588,0.5964584 -0.44734,0.596458 -0.44734,1.666193 z"
       style="font-weight:bold"
       id="path4755" />
    <path
       d="m 176.03989,10.127996 q -0.43438,-0.2852622 -0.95304,-0.2852622 -0.56404,0 -1.0049,0.5121762 -0.43438,0.512176 -0.43438,1.251266 l 0,3.954777 -1.62081,0 0,-6.943552 1.62081,0 0,0.6353578 q 0.68074,-0.7650226 1.80883,-0.7650226 0.82985,0 1.27071,0.2528464 l -0.68722,1.3874134 z"
       style="font-weight:bold"
       id="path4757" />
    <path
       d="m 182.1471,15.560953 -2.04222,-3.144372 -0.77799,0.823372 0,2.321 -1.62081,0 0,-9.5303655 1.62081,-0.3889945 0,5.64042 2.31452,-2.664612 1.95146,0 -2.34694,2.632196 2.8267,4.311356 -1.92553,0 z"
       style="font-weight:bold"
       id="path4759" />
    <path
       d="m 185.24609,14.711648 q 0,-0.486243 0.33713,-0.823371 0.34361,-0.343612 0.82986,-0.343612 0.48624,0 0.82337,0.343612 0.34361,0.337128 0.34361,0.823371 0,0.486244 -0.34361,0.829855 -0.33713,0.343612 -0.82337,0.343612 -0.48625,0 -0.82986,-0.343612 -0.33713,-0.343611 -0.33713,-0.829855 z"
       style="font-weight:bold"
       id="path4761" />
    <path
       d="m 66.524967,32.151567 0,-0.512176 q -0.641841,0.641841 -1.867174,0.641841 -1.303131,0 -2.113536,-0.933587 -0.810406,-0.933587 -0.810406,-2.489565 0,-1.562461 0.933587,-2.664612 0.933587,-1.108634 2.223752,-1.108634 1.076218,0 1.633777,0.505692 l 0,-3.222171 1.231816,0 0,9.783212 -1.231816,0 z m 0,-5.329225 q -0.466793,-0.70019 -1.277199,-0.70019 -0.991936,0 -1.607844,0.73909 -0.609424,0.739089 -0.609424,1.88014 0,2.509015 2.282101,2.509015 0.291746,0 0.70019,-0.181531 0.408444,-0.188014 0.512176,-0.395478 l 0,-3.851046 z"
       style=""
       id="path4763" />
    <path
       d="m 70.784457,22.588785 q 0.317679,0 0.538109,0.226914 0.226914,0.22043 0.226914,0.531626 0,0.317679 -0.226914,0.544592 -0.22043,0.22043 -0.538109,0.22043 -0.311196,0 -0.538109,-0.22043 -0.22043,-0.226913 -0.22043,-0.544592 0,-0.317679 0.22043,-0.538109 0.22043,-0.220431 0.538109,-0.220431 z m -0.674257,9.569266 0,-5.906234 -0.953037,0 0,-1.037319 2.184853,0 0,6.943553 -1.231816,0 z"
       style=""
       id="path4765" />
    <path
       d="m 73.047108,34.05764 0.667774,-0.985452 q 1.076218,0.719639 1.983872,0.719639 0.836338,0 1.316098,-0.291745 0.486243,-0.285263 0.486243,-0.713157 0,-0.842821 -1.218849,-0.842821 -0.207464,0 -0.752056,0.103731 -0.544592,0.103732 -0.849305,0.103732 -1.478179,0 -1.478179,-1.115117 0,-0.343612 0.343612,-0.622392 0.350095,-0.278779 0.862271,-0.401961 -1.465213,-0.687223 -1.465213,-2.385833 0,-1.089184 0.75854,-1.815307 0.758539,-0.726123 1.873657,-0.726123 1.024352,0 1.60136,0.42141 l 0.615908,-0.739089 0.803922,0.758539 -0.739089,0.557559 q 0.473276,0.615908 0.473276,1.607844 0,1.050285 -0.654807,1.763442 -0.654808,0.713156 -1.718059,0.816888 l -1.017869,0.103732 q -0.181531,0.01945 -0.486243,0.142631 -0.304713,0.116699 -0.304713,0.311196 0,0.265813 0.635358,0.265813 0.278779,0 0.868754,-0.09725 0.589975,-0.103732 0.875238,-0.103732 1.024352,0 1.594878,0.492727 0.577008,0.486243 0.577008,1.354997 0,0.95952 -0.862271,1.549495 -0.855788,0.589975 -2.171886,0.589975 -0.674257,0 -1.41983,-0.23988 -0.745573,-0.23988 -1.1994,-0.583492 z m 2.612747,-7.98087 q -0.641841,0 -1.050286,0.453827 -0.401961,0.453826 -0.401961,1.102151 0,0.726123 0.388995,1.205883 0.395478,0.473276 1.063252,0.473276 0.654807,0 1.024352,-0.46031 0.369545,-0.466793 0.369545,-1.218849 0,-0.648325 -0.401961,-1.102151 -0.395478,-0.453827 -0.991936,-0.453827 z"
       style=""
       id="path4767" />
    <path
       d="m 81.235442,22.588785 q 0.317679,0 0.538109,0.226914 0.226914,0.22043 0.226914,0.531626 0,0.317679 -0.226914,0.544592 -0.22043,0.22043 -0.538109,0.22043 -0.311196,0 -0.538109,-0.22043 -0.22043,-0.226913 -0.22043,-0.544592 0,-0.317679 0.22043,-0.538109 0.22043,-0.220431 0.538109,-0.220431 z m -0.674257,9.569266 0,-5.906234 -0.953037,0 0,-1.037319 2.184853,0 0,6.943553 -1.231816,0 z"
       style=""
       id="path4769" />
    <path
       d="m 84.191802,26.186985 -0.803922,0 0,-0.972487 0.803922,0 0,-1.452246 1.231816,-0.473276 0,1.925522 1.906073,0 0,0.972487 -1.906073,0 0,3.449084 q 0,0.875238 0.291746,1.244783 0.298229,0.369545 0.953036,0.369545 0.473277,0 0.97897,-0.23988 l 0.181531,1.082701 q -0.765023,0.194497 -1.67916,0.194497 -0.823372,0 -1.393897,-0.609424 -0.564042,-0.615908 -0.564042,-1.549495 l 0,-3.941811 z"
       style=""
       id="path4771" />
    <path
       d="m 92.937694,31.360612 q -0.73909,0.927103 -2.262652,0.927103 -0.816888,0 -1.41983,-0.589975 -0.596458,-0.596458 -0.596458,-1.478179 0,-1.056768 0.92062,-1.782891 0.927104,-0.732607 2.359901,-0.732607 0.388994,0 0.88172,0.168565 0,-1.685643 -1.504112,-1.685643 -1.154017,0 -1.776408,0.622391 L 89.021816,25.77854 q 0.350095,-0.285262 0.966003,-0.486243 0.622391,-0.207463 1.186433,-0.207463 1.510595,0 2.191336,0.687223 0.687223,0.687224 0.687223,2.184853 l 0,2.489565 q 0,0.914137 0.544593,1.218849 l 0,0.615908 q -0.752056,0 -1.128084,-0.213947 -0.369545,-0.213947 -0.531626,-0.706673 z M 92.820995,28.747865 Q 92.237504,28.6182 92.004107,28.6182 q -0.933587,0 -1.523562,0.47976 -0.589975,0.47976 -0.589975,1.134568 0,1.082701 1.277199,1.082701 0.933587,0 1.653226,-0.888204 l 0,-1.67916 z"
       style=""
       id="path4773" />
    <path
       d="m 96.088548,30.193628 0,-7.825273 1.231816,0 0,7.617809 q 0,0.557559 0.317679,0.881721 0.324162,0.317679 0.842822,0.317679 l 0,1.102151 q -2.392317,0 -2.392317,-2.094087 z"
       style=""
       id="path4775" />
    <path
       d="m 111.94008,32.158051 0,-4.395638 q 0,-1.640261 -1.41983,-1.640261 -0.44735,0 -0.83634,0.27878 -0.389,0.272296 -0.53163,0.622391 l 0,5.134728 -1.23181,0 0,-4.933748 q 0,-0.512176 -0.389,-0.803922 -0.38251,-0.298229 -1.01787,-0.298229 -0.36954,0 -0.79095,0.285263 -0.41493,0.285263 -0.58998,0.628874 l 0,5.121762 -1.23181,0 0,-6.943553 0.80392,0 0.40844,0.803922 q 0.71316,-0.933586 1.78289,-0.933586 1.49115,0 2.08761,0.927103 0.20746,-0.395478 0.7715,-0.66129 0.56405,-0.265813 1.1605,-0.265813 1.07622,0 1.6662,0.641841 0.58997,0.635357 0.58997,1.789374 l 0,4.642002 -1.23181,0 z"
       style=""
       id="path4777" />
    <path
       d="m 118.84473,31.360612 q -0.73909,0.927103 -2.26265,0.927103 -0.81689,0 -1.41983,-0.589975 -0.59646,-0.596458 -0.59646,-1.478179 0,-1.056768 0.92062,-1.782891 0.9271,-0.732607 2.3599,-0.732607 0.38899,0 0.88172,0.168565 0,-1.685643 -1.50411,-1.685643 -1.15402,0 -1.77641,0.622391 l -0.51866,-1.030836 q 0.3501,-0.285262 0.966,-0.486243 0.6224,-0.207463 1.18644,-0.207463 1.51059,0 2.19133,0.687223 0.68723,0.687224 0.68723,2.184853 l 0,2.489565 q 0,0.914137 0.54459,1.218849 l 0,0.615908 q -0.75206,0 -1.12808,-0.213947 -0.36955,-0.213947 -0.53163,-0.706673 z m -0.1167,-2.612747 q -0.58349,-0.129665 -0.81689,-0.129665 -0.93358,0 -1.52356,0.47976 -0.58997,0.47976 -0.58997,1.134568 0,1.082701 1.27719,1.082701 0.93359,0 1.65323,-0.888204 l 0,-1.67916 z"
       style=""
       id="path4779" />
    <path
       d="m 125.67158,26.400932 q -0.40196,-0.27878 -0.8104,-0.27878 -0.65481,0 -1.14754,0.602942 -0.48624,0.602941 -0.48624,1.452246 l 0,3.980711 -1.23182,0 0,-6.943553 1.23182,0 0,1.108635 q 0.67426,-1.238299 2.00332,-1.238299 0.33065,0 0.95304,0.116698 l -0.51218,1.1994 z"
       style=""
       id="path4781" />
    <path
       d="m 131.5454,32.158051 -2.17837,-3.475018 -1.07622,1.108634 0,2.366384 -1.23181,0 0,-9.789696 1.23181,0 0,6.074798 2.65813,-3.228655 1.43928,0 -2.22375,2.63868 2.71648,4.304873 -1.33555,0 z"
       style=""
       id="path4783" />
    <path
       d="m 139.59758,28.806214 -5.00506,0 q 0,1.21885 0.66778,1.873657 0.58997,0.570526 1.51707,0.570526 1.05677,0 1.76345,-0.615908 l 0.51865,0.888204 q -0.28526,0.285262 -0.87523,0.492726 -0.73909,0.272296 -1.64675,0.272296 -1.30961,0 -2.22375,-0.888204 -1.01787,-0.978969 -1.01787,-2.632196 0,-1.718059 1.0438,-2.755378 0.93359,-0.927103 2.21079,-0.927103 1.48466,0 2.32748,0.836338 0.81689,0.803922 0.81689,2.132986 0,0.408445 -0.0973,0.752056 z m -2.98877,-2.684062 q -0.82337,0 -1.38093,0.531626 -0.53163,0.505693 -0.60294,1.257749 l 3.84456,0 q 0,-0.745573 -0.46679,-1.244782 -0.51218,-0.544593 -1.3939,-0.544593 z"
       style=""
       id="path4785" />
    <path
       d="m 141.42586,26.186985 -0.80392,0 0,-0.972487 0.80392,0 0,-1.452246 1.23181,-0.473276 0,1.925522 1.90608,0 0,0.972487 -1.90608,0 0,3.449084 q 0,0.875238 0.29175,1.244783 0.29823,0.369545 0.95304,0.369545 0.47327,0 0.97897,-0.23988 l 0.18153,1.082701 q -0.76503,0.194497 -1.67916,0.194497 -0.82337,0 -1.3939,-0.609424 -0.56404,-0.615908 -0.56404,-1.549495 l 0,-3.941811 z"
       style=""
       id="path4787" />
    <path
       d="m 147.52011,22.588785 q 0.31768,0 0.53811,0.226914 0.22691,0.22043 0.22691,0.531626 0,0.317679 -0.22691,0.544592 -0.22043,0.22043 -0.53811,0.22043 -0.3112,0 -0.53811,-0.22043 -0.22043,-0.226913 -0.22043,-0.544592 0,-0.317679 0.22043,-0.538109 0.22043,-0.220431 0.53811,-0.220431 z m -0.67426,9.569266 0,-5.906234 -0.95303,0 0,-1.037319 2.18485,0 0,6.943553 -1.23182,0 z"
       style=""
       id="path4789" />
    <path
       d="m 154.30806,32.158051 0,-4.03906 q 0,-1.108635 -0.33713,-1.549495 -0.33064,-0.447344 -1.11512,-0.447344 -0.42141,0 -0.88172,0.252847 -0.46031,0.252846 -0.70667,0.622391 l 0,5.160661 -1.23182,0 0,-6.943553 0.84283,0 0.38899,0.894688 q 0.60942,-1.024352 1.99035,-1.024352 2.28211,0 2.28211,2.774827 l 0,4.29839 -1.23182,0 z"
       style=""
       id="path4791" />
    <path
       d="m 157.04399,34.05764 0.66777,-0.985452 q 1.07622,0.719639 1.98387,0.719639 0.83634,0 1.3161,-0.291745 0.48624,-0.285263 0.48624,-0.713157 0,-0.842821 -1.21884,-0.842821 -0.20747,0 -0.75206,0.103731 -0.54459,0.103732 -0.84931,0.103732 -1.47817,0 -1.47817,-1.115117 0,-0.343612 0.34361,-0.622392 0.35009,-0.278779 0.86227,-0.401961 -1.46521,-0.687223 -1.46521,-2.385833 0,-1.089184 0.75854,-1.815307 0.75853,-0.726123 1.87365,-0.726123 1.02435,0 1.60136,0.42141 l 0.61591,-0.739089 0.80392,0.758539 -0.73909,0.557559 q 0.47328,0.615908 0.47328,1.607844 0,1.050285 -0.65481,1.763442 -0.6548,0.713156 -1.71806,0.816888 l -1.01787,0.103732 q -0.18153,0.01945 -0.48624,0.142631 -0.30471,0.116699 -0.30471,0.311196 0,0.265813 0.63536,0.265813 0.27878,0 0.86875,-0.09725 0.58998,-0.103732 0.87524,-0.103732 1.02435,0 1.59488,0.492727 0.577,0.486243 0.577,1.354997 0,0.95952 -0.86227,1.549495 -0.85578,0.589975 -2.17188,0.589975 -0.67426,0 -1.41983,-0.23988 -0.74558,-0.23988 -1.1994,-0.583492 z m 2.61274,-7.98087 q -0.64184,0 -1.05028,0.453827 -0.40196,0.453826 -0.40196,1.102151 0,0.726123 0.38899,1.205883 0.39548,0.473276 1.06325,0.473276 0.65481,0 1.02436,-0.46031 0.36954,-0.466793 0.36954,-1.218849 0,-0.648325 -0.40196,-1.102151 -0.39548,-0.453827 -0.99194,-0.453827 z"
       style=""
       id="path4793" />
    <path
       d="m 65.876643,40.0676 q -0.376028,-0.129665 -0.70019,-0.129665 -0.564042,0 -0.933587,0.427894 -0.363062,0.427894 -0.363062,1.082701 0,0.175048 0.03242,0.363062 l 1.413346,0 0,1.037319 -1.413346,0 0,5.906233 -1.231816,0 0,-5.906233 -1.011386,0 0,-1.037319 1.011386,0 q 0,-1.329065 0.654807,-2.087604 0.654808,-0.758539 1.731026,-0.758539 0.538109,0 1.154017,0.194497 L 65.876643,40.0676 Z"
       style=""
       id="path4795" />
    <path
       d="m 66.57035,45.26716 q 0,-1.607844 0.862271,-2.593297 0.868754,-0.991936 2.282101,-0.991936 1.491146,0 2.314518,0.953037 0.823371,0.946553 0.823371,2.632196 0,1.67916 -0.842821,2.651646 -0.842822,0.966003 -2.295068,0.966003 -1.484662,0 -2.314517,-0.97897 Q 66.57035,46.92687 66.57035,45.26716 Z m 1.296648,0 q 0,2.612746 1.847724,2.612746 0.862271,0 1.348515,-0.70019 0.492726,-0.70019 0.492726,-1.912556 0,-2.58033 -1.841241,-2.58033 -0.842821,0 -1.348514,0.687223 -0.49921,0.687224 -0.49921,1.893107 z"
       style=""
       id="path4797" />
    <path
       d="m 77.92899,42.998025 q -0.401961,-0.278779 -0.810406,-0.278779 -0.654807,0 -1.147533,0.602941 -0.486244,0.602942 -0.486244,1.452247 l 0,3.98071 -1.231816,0 0,-6.943552 1.231816,0 0,1.108634 q 0.674258,-1.238299 2.003322,-1.238299 0.330646,0 0.953037,0.116699 l -0.512176,1.199399 z"
       style=""
       id="path4799" />
    <path
       d="m 84.541897,48.372633 0,3.105473 -1.231816,0 0,-9.666514 1.231816,0 0,0.570525 q 0.70019,-0.70019 1.692126,-0.70019 1.478179,0 2.301551,0.920621 0.823371,0.92062 0.823371,2.697028 0,1.581911 -0.829855,2.586814 -0.829855,0.998419 -2.398799,0.998419 -0.44086,0 -0.946553,-0.155598 -0.49921,-0.155598 -0.641841,-0.356578 z m 0,-5.063412 0,4.045543 q 0.116698,0.175047 0.492726,0.337128 0.376028,0.155598 0.732606,0.155598 2.295068,0 2.295068,-2.593297 0,-1.316098 -0.544592,-1.925522 -0.544593,-0.609425 -1.743992,-0.609425 -0.25933,0 -0.635358,0.181531 -0.376028,0.18153 -0.596458,0.408444 z"
       style=""
       id="path4801" />
    <path
       d="m 96.548861,45.403308 -5.005063,0 q 0,1.21885 0.667774,1.873657 0.589975,0.570525 1.517079,0.570525 1.056768,0 1.763441,-0.615908 l 0.51866,0.888204 q -0.285263,0.285263 -0.875238,0.492727 -0.73909,0.272296 -1.646743,0.272296 -1.309615,0 -2.223752,-0.888204 -1.017869,-0.97897 -1.017869,-2.632196 0,-1.71806 1.043802,-2.755378 0.933586,-0.927104 2.210785,-0.927104 1.484662,0 2.327484,0.836338 0.816888,0.803922 0.816888,2.132987 0,0.408444 -0.09725,0.752056 z m -2.988775,-2.684062 q -0.823371,0 -1.38093,0.531626 -0.531626,0.505693 -0.602942,1.257749 l 3.844563,0 q 0,-0.745573 -0.466794,-1.244783 -0.512176,-0.544592 -1.393897,-0.544592 z"
       style=""
       id="path4803" />
    <path
       d="m 97.48245,45.26716 q 0,-1.607844 0.862271,-2.593297 0.868754,-0.991936 2.282099,-0.991936 1.49115,0 2.31452,0.953037 0.82337,0.946553 0.82337,2.632196 0,1.67916 -0.84282,2.651646 -0.84282,0.966003 -2.29507,0.966003 -1.48466,0 -2.314515,-0.97897 Q 97.48245,46.92687 97.48245,45.26716 Z m 1.296648,0 q 0,2.612746 1.847722,2.612746 0.86227,0 1.34852,-0.70019 0.49272,-0.70019 0.49272,-1.912556 0,-2.58033 -1.84124,-2.58033 -0.842819,0 -1.348512,0.687223 -0.49921,0.687224 -0.49921,1.893107 z"
       style=""
       id="path4805" />
    <path
       d="m 106.29966,48.372633 0,3.105473 -1.23182,0 0,-9.666514 1.23182,0 0,0.570525 q 0.70019,-0.70019 1.69212,-0.70019 1.47818,0 2.30155,0.920621 0.82338,0.92062 0.82338,2.697028 0,1.581911 -0.82986,2.586814 -0.82985,0.998419 -2.3988,0.998419 -0.44086,0 -0.94655,-0.155598 -0.49921,-0.155598 -0.64184,-0.356578 z m 0,-5.063412 0,4.045543 q 0.1167,0.175047 0.49272,0.337128 0.37603,0.155598 0.73261,0.155598 2.29507,0 2.29507,-2.593297 0,-1.316098 -0.54459,-1.925522 -0.5446,-0.609425 -1.744,-0.609425 -0.25933,0 -0.63535,0.181531 -0.37603,0.18153 -0.59646,0.408444 z"
       style=""
       id="path4807" />
    <path
       d="m 112.55599,46.790722 0,-7.825273 1.23181,0 0,7.617809 q 0,0.557559 0.31768,0.881721 0.32416,0.317679 0.84282,0.317679 l 0,1.102151 q -2.39231,0 -2.39231,-2.094087 z"
       style=""
       id="path4809" />
    <path
       d="m 122.2225,45.403308 -5.00506,0 q 0,1.21885 0.66777,1.873657 0.58998,0.570525 1.51708,0.570525 1.05677,0 1.76344,-0.615908 l 0.51866,0.888204 q -0.28526,0.285263 -0.87524,0.492727 -0.73909,0.272296 -1.64674,0.272296 -1.30961,0 -2.22375,-0.888204 -1.01787,-0.97897 -1.01787,-2.632196 0,-1.71806 1.0438,-2.755378 0.93359,-0.927104 2.21079,-0.927104 1.48466,0 2.32748,0.836338 0.81689,0.803922 0.81689,2.132987 0,0.408444 -0.0973,0.752056 z m -2.98877,-2.684062 q -0.82338,0 -1.38093,0.531626 -0.53163,0.505693 -0.60295,1.257749 l 3.84457,0 q 0,-0.745573 -0.4668,-1.244783 -0.51217,-0.544592 -1.39389,-0.544592 z"
       style=""
       id="path4811" />
    <path
       d="m 124.18692,51.108561 -0.33064,-0.466793 q 1.11511,-0.914138 1.11511,-1.555979 0,-0.285262 -0.19449,-0.570525 -0.55756,-0.265813 -0.55756,-0.765022 0,-0.343612 0.26581,-0.564042 0.26581,-0.226914 0.66778,-0.226914 0.35657,0 0.63535,0.311196 0.28527,0.311195 0.28527,0.726123 0,0.862271 -0.36307,1.549495 -0.35657,0.693707 -1.52356,1.562461 z"
       style=""
       id="path4813" />
    <path
       d="m 133.52927,48.255934 -0.43438,0.628875 -0.6159,0 0,-9.91936 1.23181,0 0,3.358319 q 0.17505,-0.23988 0.65481,-0.44086 0.48624,-0.200981 0.95304,-0.200981 1.42631,0 2.30803,0.985453 0.8882,0.985453 0.8882,2.489565 0,1.737509 -0.8882,2.735928 -0.8882,0.991936 -2.40528,0.991936 -0.49273,0 -0.97249,-0.181531 -0.47328,-0.188014 -0.71964,-0.447344 z m 0.18153,-4.992096 0,4.006644 q 0,0.103732 0.46031,0.343612 0.46031,0.233396 0.70019,0.233396 1.25775,0 1.80234,-0.602941 0.5446,-0.602942 0.5446,-2.022772 0,-1.17995 -0.63536,-1.84124 -0.63536,-0.661291 -1.71158,-0.661291 -0.22691,0 -0.63536,0.194497 -0.40196,0.194497 -0.52514,0.350095 z"
       style=""
       id="path4815" />
    <path
       d="m 143.64313,42.998025 q -0.40196,-0.278779 -0.8104,-0.278779 -0.65481,0 -1.14754,0.602941 -0.48624,0.602942 -0.48624,1.452247 l 0,3.98071 -1.23182,0 0,-6.943552 1.23182,0 0,1.108634 q 0.67426,-1.238299 2.00332,-1.238299 0.33065,0 0.95304,0.116699 l -0.51218,1.199399 z"
       style=""
       id="path4817" />
    <path
       d="m 148.95291,47.957705 q -0.73909,0.927104 -2.26265,0.927104 -0.81689,0 -1.41983,-0.589975 -0.59646,-0.596458 -0.59646,-1.478179 0,-1.056769 0.92062,-1.782892 0.9271,-0.732606 2.3599,-0.732606 0.38899,0 0.88172,0.168564 0,-1.685643 -1.50411,-1.685643 -1.15402,0 -1.77641,0.622392 l -0.51866,-1.030836 q 0.35009,-0.285263 0.966,-0.486243 0.62239,-0.207464 1.18643,-0.207464 1.5106,0 2.19134,0.687224 0.68722,0.687223 0.68722,2.184852 l 0,2.489565 q 0,0.914137 0.5446,1.21885 l 0,0.615908 q -0.75206,0 -1.12809,-0.213947 -0.36954,-0.213947 -0.53162,-0.706674 z m -0.1167,-2.612746 q -0.58349,-0.129665 -0.81689,-0.129665 -0.93359,0 -1.52356,0.47976 -0.58998,0.47976 -0.58998,1.134567 0,1.082702 1.2772,1.082702 0.93359,0 1.65323,-0.888204 l 0,-1.67916 z"
       style=""
       id="path4819" />
    <path
       d="m 156.27897,48.755144 0,-4.03906 q 0,-1.108634 -0.33713,-1.549494 -0.33064,-0.447344 -1.11512,-0.447344 -0.42141,0 -0.88172,0.252846 -0.46031,0.252847 -0.70667,0.622392 l 0,5.16066 -1.23182,0 0,-6.943552 0.84282,0 0.389,0.894687 q 0.60942,-1.024352 1.99035,-1.024352 2.28211,0 2.28211,2.774828 l 0,4.298389 -1.23182,0 z"
       style=""
       id="path4821" />
    <path
       d="m 163.66986,48.748661 0,-0.512176 q -0.64184,0.641841 -1.86717,0.641841 -1.30313,0 -2.11354,-0.933587 -0.8104,-0.933587 -0.8104,-2.489565 0,-1.562461 0.93359,-2.664612 0.93358,-1.108635 2.22375,-1.108635 1.07622,0 1.63377,0.505693 l 0,-3.222171 1.23182,0 0,9.783212 -1.23182,0 z m 0,-5.329225 q -0.46679,-0.70019 -1.27719,-0.70019 -0.99194,0 -1.60785,0.739089 -0.60942,0.73909 -0.60942,1.880141 0,2.509014 2.2821,2.509014 0.29174,0 0.70019,-0.181531 0.40844,-0.188014 0.51217,-0.395477 l 0,-3.851046 z"
       style=""
       id="path4823" />
    <path
       d="m 166.20482,48.340217 0.43437,-1.166984 q 1.03084,0.674257 1.65971,0.674257 1.14105,0 1.14105,-0.95952 0,-0.687223 -1.10215,-1.17995 -0.8493,-0.388994 -1.14753,-0.589975 -0.29175,-0.20098 -0.51218,-0.453827 -0.21394,-0.259329 -0.32416,-0.544592 -0.10373,-0.291746 -0.10373,-0.622391 0,-0.855788 0.62239,-1.335548 0.62239,-0.47976 1.62729,-0.47976 0.75854,0 1.91256,0.47976 l -0.3501,1.141051 q -0.7326,-0.583492 -1.47169,-0.583492 -0.44086,0 -0.74557,0.207464 -0.29823,0.207463 -0.29823,0.525142 0,0.667774 0.75854,1.011386 l 0.88172,0.401961 q 0.8104,0.369545 1.17995,0.842821 0.36954,0.473277 0.36954,1.186434 0,0.933587 -0.65481,1.465212 -0.6548,0.525143 -1.8153,0.525143 -1.09567,0 -2.06167,-0.544592 z"
       style=""
       id="path4825" />
    <path
       d="m 172.60377,51.108561 -0.33065,-0.466793 q 1.11512,-0.914138 1.11512,-1.555979 0,-0.285262 -0.1945,-0.570525 -0.55755,-0.265813 -0.55755,-0.765022 0,-0.343612 0.26581,-0.564042 0.26581,-0.226914 0.66777,-0.226914 0.35658,0 0.63536,0.311196 0.28526,0.311195 0.28526,0.726123 0,0.862271 -0.36306,1.549495 -0.35658,0.693707 -1.52356,1.562461 z"
       style=""
       id="path4827" />
    <path
       d="m 184.8182,47.957705 q -0.73909,0.927104 -2.26265,0.927104 -0.81689,0 -1.41983,-0.589975 -0.59646,-0.596458 -0.59646,-1.478179 0,-1.056769 0.92062,-1.782892 0.92711,-0.732606 2.3599,-0.732606 0.389,0 0.88172,0.168564 0,-1.685643 -1.50411,-1.685643 -1.15402,0 -1.77641,0.622392 l -0.51866,-1.030836 q 0.3501,-0.285263 0.96601,-0.486243 0.62239,-0.207464 1.18643,-0.207464 1.5106,0 2.19134,0.687224 0.68722,0.687223 0.68722,2.184852 l 0,2.489565 q 0,0.914137 0.54459,1.21885 l 0,0.615908 q -0.75205,0 -1.12808,-0.213947 -0.36955,-0.213947 -0.53163,-0.706674 z m -0.1167,-2.612746 q -0.58349,-0.129665 -0.81688,-0.129665 -0.93359,0 -1.52357,0.47976 -0.58997,0.47976 -0.58997,1.134567 0,1.082702 1.2772,1.082702 0.93358,0 1.65322,-0.888204 l 0,-1.67916 z"
       style=""
       id="path4829" />
    <path
       d="m 192.14426,48.755144 0,-4.03906 q 0,-1.108634 -0.33712,-1.549494 -0.33065,-0.447344 -1.11512,-0.447344 -0.42141,0 -0.88172,0.252846 -0.46031,0.252847 -0.70668,0.622392 l 0,5.16066 -1.23181,0 0,-6.943552 0.84282,0 0.38899,0.894687 q 0.60943,-1.024352 1.99036,-1.024352 2.2821,0 2.2821,2.774828 l 0,4.298389 -1.23182,0 z"
       style=""
       id="path4831" />
    <path
       d="m 199.53516,48.748661 0,-0.512176 q -0.64184,0.641841 -1.86717,0.641841 -1.30314,0 -2.11354,-0.933587 -0.81041,-0.933587 -0.81041,-2.489565 0,-1.562461 0.93359,-2.664612 0.93359,-1.108635 2.22375,-1.108635 1.07622,0 1.63378,0.505693 l 0,-3.222171 1.23182,0 0,9.783212 -1.23182,0 z m 0,-5.329225 q -0.46679,-0.70019 -1.2772,-0.70019 -0.99193,0 -1.60784,0.739089 -0.60943,0.73909 -0.60943,1.880141 0,2.509014 2.2821,2.509014 0.29175,0 0.70019,-0.181531 0.40845,-0.188014 0.51218,-0.395477 l 0,-3.851046 z"
       style=""
       id="path4833" />
    <path
       d="m 206.95847,42.784078 -0.80393,0 0,-0.972486 0.80393,0 0,-1.452246 1.23181,-0.473277 0,1.925523 1.90608,0 0,0.972486 -1.90608,0 0,3.449085 q 0,0.875238 0.29175,1.244782 0.29823,0.369545 0.95303,0.369545 0.47328,0 0.97897,-0.23988 l 0.18154,1.082702 q -0.76503,0.194497 -1.67916,0.194497 -0.82338,0 -1.3939,-0.609425 -0.56404,-0.615908 -0.56404,-1.549495 l 0,-3.941811 z"
       style=""
       id="path4835" />
    <path
       d="m 216.06095,48.755144 0,-4.363222 q 0,-0.777989 -0.38251,-1.225332 -0.38251,-0.447344 -1.07622,-0.447344 -0.44734,0 -0.90117,0.265813 -0.44734,0.259329 -0.68722,0.609425 l 0,5.16066 -1.23182,0 0,-9.789695 1.23182,0 0,3.611166 q 0.24636,-0.382512 0.79095,-0.635358 0.55108,-0.25933 1.13457,-0.25933 1.10215,0 1.72454,0.726123 0.62888,0.726123 0.62888,1.983872 l 0,4.363222 -1.23182,0 z"
       style=""
       id="path4837" />
    <path
       d="m 224.89112,45.403308 -5.00506,0 q 0,1.21885 0.66778,1.873657 0.58997,0.570525 1.51707,0.570525 1.05677,0 1.76345,-0.615908 l 0.51866,0.888204 q -0.28527,0.285263 -0.87524,0.492727 -0.73909,0.272296 -1.64675,0.272296 -1.30961,0 -2.22375,-0.888204 -1.01787,-0.97897 -1.01787,-2.632196 0,-1.71806 1.04381,-2.755378 0.93358,-0.927104 2.21078,-0.927104 1.48466,0 2.32749,0.836338 0.81688,0.803922 0.81688,2.132987 0,0.408444 -0.0973,0.752056 z m -2.98877,-2.684062 q -0.82337,0 -1.38093,0.531626 -0.53163,0.505693 -0.60294,1.257749 l 3.84456,0 q 0,-0.745573 -0.46679,-1.244783 -0.51218,-0.544592 -1.3939,-0.544592 z"
       style=""
       id="path4839" />
    <path
       d="m 234.19458,47.957705 q -0.73909,0.927104 -2.26266,0.927104 -0.81688,0 -1.41983,-0.589975 -0.59645,-0.596458 -0.59645,-1.478179 0,-1.056769 0.92062,-1.782892 0.9271,-0.732606 2.3599,-0.732606 0.38899,0 0.88172,0.168564 0,-1.685643 -1.50411,-1.685643 -1.15402,0 -1.77641,0.622392 l -0.51866,-1.030836 q 0.35009,-0.285263 0.966,-0.486243 0.62239,-0.207464 1.18643,-0.207464 1.5106,0 2.19134,0.687224 0.68722,0.687223 0.68722,2.184852 l 0,2.489565 q 0,0.914137 0.5446,1.21885 l 0,0.615908 q -0.75206,0 -1.12809,-0.213947 -0.36954,-0.213947 -0.53162,-0.706674 z m -0.1167,-2.612746 q -0.58349,-0.129665 -0.81689,-0.129665 -0.93359,0 -1.52356,0.47976 -0.58998,0.47976 -0.58998,1.134567 0,1.082702 1.2772,1.082702 0.93359,0 1.65323,-0.888204 l 0,-1.67916 z"
       style=""
       id="path4841" />
    <path
       d="m 241.02143,42.998025 q -0.40196,-0.278779 -0.81041,-0.278779 -0.6548,0 -1.14753,0.602941 -0.48624,0.602942 -0.48624,1.452247 l 0,3.98071 -1.23182,0 0,-6.943552 1.23182,0 0,1.108634 q 0.67425,-1.238299 2.00332,-1.238299 0.33064,0 0.95303,0.116699 l -0.51217,1.199399 z"
       style=""
       id="path4843" />
    <path
       d="m 242.8497,42.784078 -0.80392,0 0,-0.972486 0.80392,0 0,-1.452246 1.23182,-0.473277 0,1.925523 1.90607,0 0,0.972486 -1.90607,0 0,3.449085 q 0,0.875238 0.29174,1.244782 0.29823,0.369545 0.95304,0.369545 0.47328,0 0.97897,-0.23988 l 0.18153,1.082702 q -0.76502,0.194497 -1.67916,0.194497 -0.82337,0 -1.3939,-0.609425 -0.56404,-0.615908 -0.56404,-1.549495 l 0,-3.941811 z"
       style=""
       id="path4845" />
    <path
       d="m 247.2194,48.340217 0.43438,-1.166984 q 1.03084,0.674257 1.65971,0.674257 1.14105,0 1.14105,-0.95952 0,-0.687223 -1.10215,-1.17995 -0.8493,-0.388994 -1.14753,-0.589975 -0.29175,-0.20098 -0.51218,-0.453827 -0.21395,-0.259329 -0.32416,-0.544592 -0.10373,-0.291746 -0.10373,-0.622391 0,-0.855788 0.62239,-1.335548 0.62239,-0.47976 1.62729,-0.47976 0.75854,0 1.91256,0.47976 l -0.3501,1.141051 q -0.7326,-0.583492 -1.47169,-0.583492 -0.44086,0 -0.74558,0.207464 -0.29823,0.207463 -0.29823,0.525142 0,0.667774 0.75854,1.011386 l 0.88172,0.401961 q 0.81041,0.369545 1.17995,0.842821 0.36955,0.473277 0.36955,1.186434 0,0.933587 -0.65481,1.465212 -0.65481,0.525143 -1.81531,0.525143 -1.09566,0 -2.06167,-0.544592 z"
       style=""
       id="path4847" />
  </g>
</svg>
