<?xml version="1.0" encoding="UTF-8" standalone="no"?>
<svg
   xmlns:dc="http://purl.org/dc/elements/1.1/"
   xmlns:cc="http://creativecommons.org/ns#"
   xmlns:rdf="http://www.w3.org/1999/02/22-rdf-syntax-ns#"
   xmlns:svg="http://www.w3.org/2000/svg"
   xmlns="http://www.w3.org/2000/svg"
   viewBox="0 0 446.79999 106.5625"
   height="106.5625"
   width="446.79999"
   xml:space="preserve"
   version="1.1"
   id="svg2"><metadata
     id="metadata8"><rdf:RDF><cc:Work
         rdf:about=""><dc:format>image/svg+xml</dc:format><dc:type
           rdf:resource="http://purl.org/dc/dcmitype/StillImage" /><dc:title></dc:title></cc:Work></rdf:RDF></metadata><defs
     id="defs6" /><g
     transform="matrix(1.25,0,0,-1.25,0,106.5625)"
     id="g10"><g
       id="g4316"><g
         id="g4305"><path
           d="M 83.6863,43.4078 C 83.6863,20.3008 64.9516,1.56641 41.8457,1.56641 18.7328,1.56641 0,20.3008 0,43.4078 c 0,23.1113 18.7328,41.8457 41.8457,41.8457 23.1059,0 41.8406,-18.7344 41.8406,-41.8457"
           style="fill:#f8d706;fill-opacity:1;fill-rule:nonzero;stroke:none"
           id="path48" /><path
           d="m 63.5277,40.1758 c 0,-15.8621 -9.7093,-28.718 -21.682,-28.718 -11.9785,0 -21.6859,12.8559 -21.6859,28.718 0,15.8597 9.7074,28.7187 21.6859,28.7187 11.9727,0 21.682,-12.859 21.682,-28.7187"
           style="fill:#ffffff;fill-opacity:1;fill-rule:nonzero;stroke:none"
           id="path50" /><path
           d="m 28.252,46.1449 c 10.5668,-4.1074 21.7992,-7.3246 33.2543,-6.1312 -0.0555,1.2832 -0.1567,3.8558 -0.2231,5.1547 C 50.3867,46.518 39.1605,47.6063 28.252,46.1449 Z M 24.0395,46.848 C 21.6816,36.1492 23.6578,23.4305 32.3031,15.9891 36.9727,11.6953 44.4586,10.823 49.8227,14.3965 58.0543,19.3387 61.2484,29.368 61.7348,38.4766 l -2.6567,0.0457 c 0.7321,-4.7008 -1.8191,-9.0008 -5.9488,-11.1192 -0.3324,-0.3211 -0.975,-0.9746 -1.3074,-1.2898 -1.1801,-1.0828 -2.0656,0.6648 -2.8989,1.2578 -5.5558,1.8055 -7.7839,7.5769 -6.8261,13.0137 -6.3739,1.0164 -12.2446,3.784 -18.0574,6.4632 z m 10.7867,16.3536 c 2.7574,-0.9477 4.5941,-2.9879 4.2242,-6.0414 -0.5848,-2.3813 -2.5809,-2.7747 -4.016,-3.7848 0.7668,-0.8703 1.5508,-1.732 2.3207,-2.6024 0.7664,1.05 2.2969,3.1543 3.0492,4.209 l 0.1445,-2.5304 c 2.1528,0 4.4617,-0.2176 6.0649,1.5539 0.3238,-1.0133 0.9488,-3.0442 1.2707,-4.0528 0.7953,1.143 1.5906,2.2813 2.3976,3.4141 -5.2367,1.4945 -2.5511,6.4062 -2.5629,7.6836 1.2907,0.7773 2.6278,1.4812 4.0012,2.1277 -0.732,0.8785 -1.4637,1.7535 -2.1953,2.6364 -0.7937,-1.1762 -1.6035,-2.3457 -2.4105,-3.5082 -2.6305,1.8066 -5.579,1.0097 -8.2844,-0.0817 -0.552,1.2086 -1.0903,2.4137 -1.643,3.6199 -0.7953,-0.8765 -1.5766,-1.7605 -2.3609,-2.6429 z m -3.6285,6.6964 c 9.0828,4.1915 21.3011,2.8461 28.1003,-4.9128 3.1571,-4.143 3.979,-10.3407 9.2329,-12.6204 3.3359,-1.939 7.0046,-0.0394 10.0144,1.5625 -0.1625,-4.3332 -0.1508,-8.6707 -0.1883,-13.0085 -3.2957,1.1687 -6.655,2.148 -10.0402,2.964 1.525,-6.1047 0.1535,-12.334 -2.5805,-17.8605 1.27,0.7414 2.4649,1.5754 3.5789,2.5121 1.2438,0.023 2.4879,0 3.7297,-0.0813 -4.7656,-3.448 -7.7691,-9.0207 -13.4922,-11.209 -6.4351,-2.291 -12.039,-7.96207 -19.3386,-6.7402 -5.0176,0.2949 -8.5129,4.3445 -13.084,5.907 -6.7184,2.7602 -12.4531,7.9407 -15.3465,14.6606 2.216,-1.2168 4.409,-2.4961 6.6195,-3.7512 -2.8234,5.7274 -3.1593,12.2656 -1.9043,18.4629 -3.2285,-0.6785 -6.4484,-1.3727 -9.69333,-2.0254 0.16875,3.8629 0.13008,7.7188 0.17891,11.5797 4.92342,-3.4879 11.92812,-1.6422 14.67112,3.6699 2.141,4.3981 4.8609,8.8235 9.5422,10.8906"
           style="fill:#100f0d;fill-opacity:1;fill-rule:nonzero;stroke:none"
           id="path52" /><path
           d="m 26.1578,36.1406 c 4.0016,-1.1543 8.1414,-2.1035 12.007,0.0731 l 0.1247,-2.818 -1.6665,0.2652 0.304,-1.573 c -2.7957,-0.1399 -5.6016,-0.116 -8.3965,0.1902 -0.5907,0.961 -1.7825,2.8996 -2.3727,3.8625"
           style="fill:#100f0d;fill-opacity:1;fill-rule:nonzero;stroke:none"
           id="path54" /><path
           d="m 38.2781,23.0168 c 2.7801,-0.5148 7.1836,1.5828 8.6074,-1.8723 -0.9253,-5.7179 -9.8894,-3.8066 -8.6074,1.8723"
           style="fill:#100f0d;fill-opacity:1;fill-rule:nonzero;stroke:none"
           id="path56" /><path
           d="m 49.6117,18.9465 c 0,-0.4836 -0.3937,-0.8801 -0.8804,-0.8801 -0.4856,0 -0.8793,0.3965 -0.8793,0.8801 0,0.4922 0.3937,0.8875 0.8793,0.8875 0.4867,0 0.8804,-0.3953 0.8804,-0.8875"
           style="fill:#100f0d;fill-opacity:1;fill-rule:nonzero;stroke:none"
           id="path58" /><path
           d="m 41.5188,59.0293 -0.486,-0.6422 0.6449,-0.6414 0.4805,0.3969 c 0,0 0.0813,0.9621 -0.6394,0.8867"
           style="fill:#100f0d;fill-opacity:1;fill-rule:nonzero;stroke:none"
           id="path60" /><path
           d="m 43.0375,57.4238 c -0.932,-0.0293 -0.5613,-1.3617 -0.5613,-1.3617 l 1.6058,-0.2402 c 0,0 -0.1074,1.6316 -1.0445,1.6019"
           style="fill:#100f0d;fill-opacity:1;fill-rule:nonzero;stroke:none"
           id="path62" /><path
           d="m 43.8125,59.4273 -0.2109,-0.9589 1.6035,-0.3258 -0.2172,1.1773 -1.1754,0.1074"
           style="fill:#100f0d;fill-opacity:1;fill-rule:nonzero;stroke:none"
           id="path64" /></g><g
         id="g4269"><path
           d="m 105.589,8.3125 -0.847,2.8066 -1.875,6.2403 c -0.538,1.8054 -1.088,3.5488 -1.644,5.2312 -0.561,1.6817 -0.928,2.6516 -1.111,2.9067 -0.1819,0.2539 -0.405,0.439 -0.6651,0.5488 -0.2606,0.1031 -0.9031,0.2059 -1.927,0.3008 l 0,1.148 c 1.4781,-0.0945 3.0671,-0.1414 4.7621,-0.1414 1.8,0 3.484,0.0469 5.04,0.1414 l 0,-1.148 c -1.249,-0.0176 -2.062,-0.0625 -2.436,-0.1449 -0.258,-0.0528 -0.445,-0.1504 -0.555,-0.2918 -0.116,-0.1418 -0.174,-0.3039 -0.174,-0.4954 0,-0.3093 0.194,-1.1367 0.585,-2.4824 l 1.875,-6.4976 c 0.309,-1.0942 0.682,-2.2688 1.128,-3.5364 l 1.533,3.5125 2.969,6.6282 c 0.701,1.5722 1.357,3.1574 1.976,4.7597 l 0.987,0 c 0.891,-2.4582 1.493,-4.084 1.817,-4.8808 l 2.315,-5.8477 c 0.798,-1.9609 1.394,-3.4375 1.797,-4.4324 l 1.512,3.9754 c 0.978,2.5578 1.743,4.7375 2.298,6.5398 0.306,0.9836 0.463,1.6778 0.463,2.0805 0,0.3789 -0.133,0.6441 -0.397,0.818 -0.26,0.1679 -1.131,0.266 -2.612,0.2953 l 0,1.148 c 2.048,-0.0945 3.46,-0.1414 4.242,-0.1414 0.94,0 2.222,0.0469 3.839,0.1414 l 0,-1.148 c -0.784,-0.0176 -1.305,-0.0864 -1.577,-0.2129 -0.269,-0.1289 -0.503,-0.3418 -0.706,-0.6367 -0.347,-0.4582 -0.894,-1.5344 -1.632,-3.2305 l -2.118,-5.052 -0.909,-2.2617 c -0.172,-0.4453 -0.69,-1.8113 -1.55,-4.0976 -0.382,-0.96878 -0.662,-1.82034 -0.851,-2.543 l -1.892,0 -0.972,2.5195 -4.6,11.5637 -1.933,-4.173 -2.281,-5.0696 c -0.526,-1.1679 -0.948,-2.1648 -1.273,-2.9851 l -0.665,-1.8555 -1.936,0"
           style="fill:#f8d706;fill-opacity:1;fill-rule:nonzero;stroke:none"
           id="path14" /><path
           d="m 137.935,19.3152 c 0,-1.655 0.274,-3.3379 0.827,-5.0484 0.55,-1.7094 1.348,-2.9594 2.39,-3.7473 1.042,-0.78591 2.175,-1.18083 3.4,-1.18083 1.559,0 2.865,0.62031 3.914,1.85863 1.045,1.239 1.568,3.1425 1.568,5.7168 0,2.1386 -0.306,3.9882 -0.937,5.541 -0.622,1.5547 -1.421,2.6535 -2.387,3.2961 -0.969,0.6367 -2.04,0.9578 -3.209,0.9578 -1.652,0 -2.995,-0.5988 -4.024,-1.7996 -1.027,-1.1946 -1.542,-3.0617 -1.542,-5.5942 z m -3.814,-1.4929 c 0,3.0156 0.961,5.4754 2.877,7.382 1.915,1.9043 4.374,2.8562 7.371,2.8562 2.824,0 5.125,-0.8878 6.898,-2.6679 1.777,-1.7774 2.662,-4.0684 2.662,-6.8797 0,-1.968 -0.457,-3.7656 -1.372,-5.3938 -0.911,-1.6316 -2.204,-2.9062 -3.871,-3.82535 -1.666,-0.92266 -3.503,-1.38672 -5.509,-1.38672 -1.56,0 -2.882,0.26406 -3.964,0.79102 -1.082,0.52265 -1.959,1.18086 -2.63,1.97465 -0.674,0.7968 -1.183,1.6132 -1.533,2.4464 -0.616,1.4657 -0.929,3.0321 -0.929,4.7032"
           style="fill:#f8d706;fill-opacity:1;fill-rule:nonzero;stroke:none"
           id="path16" /><path
           d="m 160.381,8.53047 0,1.15117 c 1.531,0.02813 2.356,0.05742 2.477,0.08008 0.231,0.04101 0.405,0.10547 0.518,0.19141 0.113,0.09067 0.205,0.21487 0.274,0.37697 0.134,0.3066 0.217,0.7922 0.244,1.4519 0.069,3.5879 0.098,5.468 0.098,5.6274 l 0,2.398 c 0,1.0774 -0.017,2.2348 -0.057,3.4731 -0.03,0.7918 -0.087,1.2633 -0.171,1.4109 -0.09,0.1473 -0.243,0.2551 -0.466,0.3328 -0.22,0.0735 -1.1,0.1047 -2.63,0.0899 l 0,1.1527 c 2.717,0.375 4.698,0.868 5.949,1.4723 0.269,0.1332 0.451,0.1984 0.543,0.1984 0.096,0 0.171,-0.0332 0.223,-0.1035 0.053,-0.0625 0.081,-0.168 0.081,-0.2981 0,-0.0945 -0.006,-0.2058 -0.02,-0.3242 -0.067,-0.8183 -0.107,-2.0918 -0.119,-3.8105 0.602,0.7004 1.163,1.3926 1.673,2.0785 0.509,0.6812 0.879,1.1277 1.111,1.3308 0.399,0.3504 0.868,0.6282 1.389,0.8352 0.526,0.209 1.07,0.3152 1.634,0.3152 0.564,0 1.123,-0.1269 1.676,-0.3632 l 0.121,-0.2832 c -0.202,-1.7883 -0.318,-3.3633 -0.347,-4.7207 l -0.903,0 c -0.306,0.6453 -0.671,1.1179 -1.082,1.4101 -0.41,0.2977 -0.926,0.4453 -1.539,0.4453 -1.036,0 -1.921,-0.4277 -2.645,-1.282 -0.726,-0.8535 -1.088,-2.1352 -1.088,-3.8402 l 0,-2.077 c 0,-0.8906 0.029,-2.5109 0.099,-4.8633 0.012,-0.8367 0.046,-1.3664 0.104,-1.5937 0.052,-0.2266 0.121,-0.3946 0.208,-0.4953 0.09,-0.1004 0.231,-0.1883 0.434,-0.2508 0.402,-0.12307 1.494,-0.24417 3.27,-0.36526 l 0,-1.15117 c -2.373,0.09726 -4.386,0.14453 -6.053,0.14453 -1.722,0 -3.388,-0.04727 -5.006,-0.14453"
           style="fill:#f8d706;fill-opacity:1;fill-rule:nonzero;stroke:none"
           id="path18" /><path
           d="m 180.676,8.53047 0,1.15117 1.891,0.02031 c 0.301,0.01368 0.521,0.0625 0.677,0.15352 0.156,0.08594 0.273,0.19723 0.354,0.33003 0.15,0.2715 0.237,0.7461 0.263,1.4344 0.015,0.1711 0.061,2.1008 0.142,5.7832 l 0,8.3653 c 0,2.2453 -0.035,1.7179 -0.102,4.1117 -0.054,1.6121 -0.13,2.5133 -0.222,2.7019 -0.07,0.1297 -0.177,0.2293 -0.325,0.2805 -0.203,0.0965 -1.139,0.1441 -2.8,0.1441 l 0,1.1868 c 3.038,0.3796 5.15,0.8515 6.331,1.416 0.177,0.0769 0.312,0.1179 0.405,0.1179 0.093,0 0.168,-0.0293 0.223,-0.0918 0.054,-0.0585 0.081,-0.1453 0.081,-0.25 0,-0.0957 -0.015,-0.2312 -0.041,-0.405 l -0.02,-0.6641 c -0.066,-2.4023 -0.11,-4.4539 -0.122,-6.1465 l -0.04,-0.3008 0,-8.0988 0.223,-0.1219 c 0.714,0.4434 1.741,1.2305 3.087,2.3582 0.899,0.7696 2.922,2.6223 6.07,5.5704 1.036,-0.0411 1.695,-0.0614 1.978,-0.0614 0.267,0 0.95,0.0203 2.036,0.0614 l 0,-1.1485 c -0.78,-0.0406 -1.277,-0.0992 -1.491,-0.1617 -0.295,-0.0941 -0.851,-0.4066 -1.675,-0.9262 -1.29,-0.823 -2.841,-1.9793 -4.661,-3.4812 l -2.054,-1.6289 c 1.087,-1.1192 2.968,-2.9864 5.644,-5.6133 2.014,-2.0598 3.226,-3.2578 3.637,-3.5996 0.411,-0.3418 0.811,-0.543 1.204,-0.6074 0.388,-0.0684 0.995,-0.1036 1.817,-0.1036 l 0,-0.90933 c -0.996,-0.18555 -1.837,-0.35899 -2.523,-0.50938 -0.689,-0.15664 -1.475,-0.34023 -2.367,-0.55508 -0.457,0.37696 -0.897,0.76407 -1.328,1.15742 -0.431,0.39649 -1.311,1.28207 -2.642,2.65237 -2.728,2.7988 -4.971,4.9804 -6.732,6.5594 l -0.223,-0.1036 0,-1.189 c 0.058,-3.4973 0.093,-5.3879 0.101,-5.6711 0.014,-0.6707 0.095,-1.1602 0.24,-1.4699 0.055,-0.1211 0.136,-0.2246 0.243,-0.31527 0.108,-0.08594 0.269,-0.15625 0.486,-0.21094 0.093,-0.01172 0.839,-0.03242 2.24,-0.06055 l 0,-1.15117 c -1.777,0.09726 -3.379,0.14453 -4.818,0.14453 -1.397,0 -3.125,-0.04727 -5.187,-0.14453"
           style="fill:#f8d706;fill-opacity:1;fill-rule:nonzero;stroke:none"
           id="path20" /><path
           d="m 208.851,14.623 1.21,0 c 0.011,-0.7812 0.054,-1.3945 0.121,-1.8527 0.069,-0.4566 0.179,-0.9078 0.341,-1.3418 0.163,-0.4375 0.417,-0.8094 0.75,-1.1101 0.338,-0.3008 0.703,-0.5391 1.102,-0.7059 0.399,-0.16836 0.799,-0.27852 1.21,-0.3332 0.416,-0.05274 1.039,-0.07891 1.874,-0.07891 1.372,0 2.501,0.35938 3.386,1.08871 0.885,0.7226 1.325,1.7175 1.325,2.9863 0,0.5664 -0.142,1.0613 -0.416,1.4922 -0.278,0.4289 -0.678,0.7644 -1.192,1.0066 -0.515,0.2426 -1.635,0.5559 -3.345,0.9504 -1.713,0.3867 -2.816,0.6699 -3.314,0.8438 -0.755,0.2832 -1.357,0.6308 -1.799,1.03 -0.449,0.4043 -0.795,0.9145 -1.062,1.5344 -0.261,0.6192 -0.394,1.2891 -0.394,2.0184 0,1.0625 0.278,2.0383 0.84,2.9347 0.558,0.8946 1.438,1.62 2.638,2.1758 1.198,0.5574 2.504,0.8379 3.918,0.8379 0.848,0 1.832,-0.1183 2.951,-0.3516 1.117,-0.2351 2.026,-0.5273 2.726,-0.8769 -0.093,-1.4949 -0.162,-3.0117 -0.202,-4.5606 l -1.152,0 c -0.064,0.9817 -0.139,1.6258 -0.231,1.9356 -0.087,0.3125 -0.206,0.5871 -0.354,0.8281 -0.147,0.2434 -0.405,0.5028 -0.769,0.7742 -0.365,0.2793 -0.83,0.5215 -1.407,0.7383 -0.57,0.218 -1.272,0.3215 -2.112,0.3215 -1.181,0 -2.135,-0.3469 -2.858,-1.048 -0.724,-0.6993 -1.082,-1.5145 -1.082,-2.459 0,-0.5242 0.103,-0.9785 0.312,-1.3535 0.211,-0.3766 0.488,-0.6825 0.842,-0.9149 0.348,-0.2363 0.839,-0.448 1.473,-0.6367 l 3.356,-0.8273 c 1.695,-0.4278 2.864,-0.8016 3.501,-1.1114 0.646,-0.3062 1.157,-0.7859 1.551,-1.4433 0.388,-0.6512 0.585,-1.4344 0.585,-2.3465 0,-1.8172 -0.747,-3.3996 -2.252,-4.75 -1.504,-1.35432 -3.513,-2.02658 -6.032,-2.02658 -1.158,0 -2.701,0.17382 -4.624,0.52187 -1.065,0.20274 -1.638,0.3418 -1.719,0.42461 -0.052,0.03828 -0.078,0.10352 -0.078,0.20039 0,0.09453 0.011,0.20664 0.038,0.34063 0.121,0.58128 0.199,1.14648 0.24,1.69528 0.046,0.5496 0.078,1.7051 0.104,3.4492"
           style="fill:#f8d706;fill-opacity:1;fill-rule:nonzero;stroke:none"
           id="path22" /><path
           d="m 236.28,12.6875 c 0.715,-0.7258 1.528,-1.2957 2.443,-1.7141 0.914,-0.4187 1.875,-0.6257 2.886,-0.6257 1.222,0 2.333,0.3066 3.333,0.9191 1.005,0.6133 1.8,1.5625 2.385,2.8523 0.584,1.2918 0.877,2.7 0.877,4.2196 0,1.4629 -0.281,2.7375 -0.839,3.8215 -0.558,1.082 -1.345,1.8945 -2.37,2.4421 -1.024,0.5411 -2.049,0.8125 -3.084,0.8125 -0.767,0 -1.525,-0.1503 -2.269,-0.4539 -0.748,-0.2988 -1.423,-0.7414 -2.031,-1.3164 -0.601,-0.5793 -1.007,-1.134 -1.21,-1.6582 -0.081,-0.2539 -0.121,-0.7441 -0.121,-1.4726 l 0,-7.8262 z m -6.921,12.468 0,1.15 c 0.244,0 0.755,0.0558 1.534,0.1679 0.782,0.1164 1.652,0.3137 2.604,0.5879 0.954,0.2746 1.673,0.5422 2.158,0.7961 0.148,0.0801 0.272,0.1211 0.365,0.1211 0.092,0 0.17,-0.0351 0.231,-0.1008 0.058,-0.0672 0.09,-0.1824 0.09,-0.3418 0,-0.0652 -0.006,-0.2273 -0.021,-0.4832 -0.028,-0.3906 -0.04,-0.7472 -0.04,-1.0691 l 0,-2.1391 c 2.275,2.1125 3.693,3.302 4.254,3.5676 0.743,0.3652 1.846,0.5488 3.313,0.5488 1.704,0 3.179,-0.3867 4.418,-1.1621 1.235,-0.7707 2.135,-1.7746 2.69,-3.0039 0.556,-1.2312 0.839,-2.5469 0.839,-3.9433 0,-0.8489 -0.098,-1.6465 -0.295,-2.4012 -0.193,-0.7551 -0.442,-1.4613 -0.743,-2.1301 -0.304,-0.6648 -0.64,-1.2781 -1.01,-1.8367 -0.37,-0.5559 -0.718,-0.9785 -1.035,-1.2617 -0.191,-0.1711 -0.678,-0.5754 -1.465,-1.2102 -0.787,-0.6308 -1.629,-1.17967 -2.523,-1.64373 -0.891,-0.4625 -1.516,-0.7457 -1.867,-0.85508 -0.765,-0.24336 -1.579,-0.36562 -2.438,-0.36562 -0.675,0 -1.331,0.08242 -1.968,0.24453 -0.642,0.16172 -1.362,0.43633 -2.17,0.82617 l 0,-3.20508 c 0.058,-3.40273 0.089,-2.43672 0.101,-2.79023 0.015,-0.65625 0.096,-1.13985 0.247,-1.45235 0.052,-0.14414 0.139,-0.2625 0.249,-0.34648 0.118,-0.09297 0.283,-0.15625 0.5,-0.19649 0.121,-0.02304 0.926,-0.05234 2.416,-0.08203 L 239.793,0 c -1.685,0.0644531 -3.906,0.0976563 -6.678,0.0976563 -1.533,0 -2.711,-0.0332032 -3.53,-0.0976563 l 0,1.14531 1.927,0.02344 c 0.284,0.01172 0.507,0.06484 0.66,0.15039 0.156,0.09102 0.274,0.19766 0.358,0.33633 0.145,0.26836 0.238,0.7457 0.281,1.42851 0.011,0.17969 0.043,-0.74101 0.101,2.93438 l 0,7.16404 c 0,2.3293 -0.023,4.7219 -0.081,7.166 -0.055,2.4516 -0.112,3.7883 -0.171,4.0102 -0.06,0.2234 -0.159,0.3887 -0.292,0.5008 -0.136,0.1164 -0.306,0.1972 -0.526,0.2383 l -2.483,0.0578"
           style="fill:#f8d706;fill-opacity:1;fill-rule:nonzero;stroke:none"
           id="path24" /><path
           d="m 271.238,19.1824 c -1.747,-0.2945 -3.24,-0.625 -4.479,-0.9832 -1.236,-0.3683 -2.112,-0.7402 -2.624,-1.1347 -0.31,-0.2247 -0.576,-0.5723 -0.808,-1.0274 -0.347,-0.673 -0.523,-1.4199 -0.523,-2.2363 0,-0.9981 0.278,-1.7735 0.83,-2.3313 0.551,-0.5554 1.314,-0.8386 2.298,-0.8386 0.902,0 1.794,0.2597 2.673,0.7773 0.88,0.5184 1.759,1.2938 2.633,2.3301 l 0,5.4441 z m -9.259,3.166 -1.07,0.2832 c 0.012,0.3125 0.021,0.7356 0.021,1.2715 0,0.5637 -0.009,1.0149 -0.021,1.3528 1.713,1.114 3.112,1.8703 4.2,2.2597 0.84,0.2832 1.772,0.4219 2.814,0.4219 1.533,0 2.823,-0.2891 3.876,-0.8672 1.054,-0.5793 1.829,-1.4055 2.345,-2.4797 0.346,-0.7547 0.52,-1.782 0.52,-3.0867 l -0.098,-3.6926 0,-6.0113 c 0,-0.6469 0.051,-1.1066 0.163,-1.3898 0.08,-0.2012 0.207,-0.3504 0.38,-0.44536 0.139,-0.08086 0.416,-0.13281 0.848,-0.16211 l 1.313,-0.12109 0,-1.15117 c -1.101,0.09726 -2.075,0.14453 -2.907,0.14453 -0.805,0 -1.881,-0.04727 -3.226,-0.14453 l 0.101,3.55233 c -2.744,-2.0711 -4.372,-3.2371 -4.884,-3.50194 -0.509,-0.25938 -1.158,-0.39219 -1.932,-0.39219 -1.632,0 -2.9,0.4336 -3.803,1.30156 -0.908,0.86717 -1.365,2.01957 -1.365,3.46017 0,0.9297 0.159,1.7769 0.475,2.5406 0.317,0.7695 0.697,1.3781 1.139,1.8293 0.445,0.4512 0.897,0.7805 1.351,0.9949 0.782,0.3653 2.05,0.7524 3.805,1.1711 1.754,0.4141 3.49,0.7266 5.214,0.9297 0.012,1.2754 -0.141,2.2715 -0.467,2.9852 -0.321,0.7121 -0.864,1.2961 -1.633,1.7543 -0.765,0.457 -1.699,0.6843 -2.804,0.6843 -0.79,0 -1.487,-0.1062 -2.089,-0.3191 -0.597,-0.2152 -0.964,-0.4008 -1.097,-0.5449 l -0.364,-0.7297 c -0.365,-0.8066 -0.632,-1.4375 -0.805,-1.8977"
           style="fill:#f8d706;fill-opacity:1;fill-rule:nonzero;stroke:none"
           id="path26" /><path
           d="m 299.899,10.832 -0.806,-1.35348 c -0.929,-0.49727 -1.844,-0.85625 -2.752,-1.08672 -0.909,-0.22696 -1.937,-0.34492 -3.078,-0.34492 -2.825,0 -5.073,0.85234 -6.748,2.55472 -1.672,1.7031 -2.512,4.0449 -2.512,7.0195 0,1.573 0.226,2.9426 0.678,4.1086 0.446,1.1648 1.007,2.0625 1.661,2.693 0.446,0.4453 1.29,1.0214 2.535,1.7265 1.243,0.7071 2.11,1.1653 2.609,1.3664 0.914,0.3887 2.014,0.584 3.292,0.584 1.21,0 2.297,-0.1269 3.264,-0.3808 0.62,-0.1622 1.239,-0.4305 1.857,-0.8106 -0.158,-1.0359 -0.266,-1.8164 -0.332,-2.3437 -0.064,-0.534 -0.147,-1.4993 -0.255,-2.8985 l -1.148,0 c -0.081,1.302 -0.163,2.1172 -0.243,2.4414 -0.056,0.2 -0.174,0.3828 -0.362,0.5438 -0.487,0.3761 -1.108,0.7011 -1.869,0.9789 -0.76,0.2742 -1.595,0.416 -2.497,0.416 -1.131,0 -2.112,-0.2363 -2.94,-0.6992 -0.827,-0.4668 -1.476,-1.2012 -1.933,-2.2114 -0.457,-1.0105 -0.685,-2.2656 -0.685,-3.7617 0,-1.8289 0.321,-3.4843 0.969,-4.9683 0.642,-1.4778 1.522,-2.5578 2.63,-3.2407 1.114,-0.6785 2.353,-1.0175 3.724,-1.0175 0.683,0 1.352,0.0832 2.008,0.2511 0.651,0.168 1.49,0.4864 2.511,0.961 l 0.422,-0.5274"
           style="fill:#f8d706;fill-opacity:1;fill-rule:nonzero;stroke:none"
           id="path28" /><path
           d="m 309.757,19.9094 c 0.38,-0.0403 1.095,-0.0813 2.139,-0.1196 2.004,-0.0679 3.385,-0.0972 4.137,-0.0972 1.788,0 2.966,0.0293 3.53,0.0972 0.011,0.3227 0.02,0.5676 0.02,0.7446 0,2.1265 -0.431,3.6851 -1.29,4.6844 -0.861,0.9894 -2.012,1.4902 -3.449,1.4902 -1.523,0 -2.742,-0.5481 -3.671,-1.6348 -0.933,-1.0879 -1.402,-2.8086 -1.416,-5.1648 z m 12.931,-8.2453 -0.642,-1.4512 c -0.926,-0.58126 -1.608,-0.96563 -2.041,-1.15743 -0.629,-0.28008 -1.351,-0.51953 -2.166,-0.7168 -0.817,-0.19414 -1.67,-0.29179 -2.569,-0.29179 -1.778,0 -3.386,0.37421 -4.827,1.11406 -1.438,0.73437 -2.557,1.84176 -3.356,3.31486 -0.798,1.4722 -1.204,3.1953 -1.204,5.1746 0,1.55 0.215,2.9426 0.637,4.1883 0.422,1.2445 0.909,2.1593 1.44,2.7519 0.394,0.4309 1.003,0.9239 1.817,1.4817 0.823,0.5586 1.635,0.998 2.444,1.3222 1.061,0.4395 2.213,0.666 3.448,0.666 1.51,0 2.869,-0.3417 4.085,-1.03 1.216,-0.6836 2.109,-1.6211 2.671,-2.802 0.569,-1.1863 0.848,-2.5226 0.848,-4.0156 0,-0.3762 -0.029,-0.8328 -0.099,-1.3699 -0.966,-0.1887 -1.835,-0.3125 -2.598,-0.3657 -1.45,-0.1043 -2.899,-0.1621 -4.351,-0.1621 l -6.468,0 c 0.029,-1.9273 0.362,-3.4898 1.003,-4.6824 0.637,-1.1926 1.517,-2.0715 2.64,-2.6387 1.122,-0.5636 2.291,-0.8468 3.5,-0.8468 0.824,0 1.638,0.13 2.45,0.3957 0.814,0.2656 1.82,0.7558 3.02,1.4636 l 0.318,-0.3425"
           style="fill:#f8d706;fill-opacity:1;fill-rule:nonzero;stroke:none"
           id="path30" /><path
           d="m 330.633,14.623 1.21,0 c 0.017,-0.7812 0.055,-1.3945 0.121,-1.8527 0.07,-0.4566 0.185,-0.9078 0.348,-1.3418 0.159,-0.4375 0.408,-0.8094 0.747,-1.1101 0.336,-0.3008 0.702,-0.5391 1.098,-0.7059 0.4,-0.16836 0.805,-0.27852 1.215,-0.3332 0.411,-0.05274 1.036,-0.07891 1.87,-0.07891 1.376,0 2.506,0.35938 3.385,1.08871 0.886,0.7226 1.325,1.7175 1.325,2.9863 0,0.5664 -0.139,1.0613 -0.416,1.4922 -0.272,0.4289 -0.673,0.7644 -1.192,1.0066 -0.516,0.2426 -1.632,0.5559 -3.343,0.9504 -1.712,0.3867 -2.817,0.6699 -3.314,0.8438 -0.755,0.2832 -1.352,0.6308 -1.797,1.03 -0.446,0.4043 -0.799,0.9145 -1.063,1.5344 -0.263,0.6192 -0.397,1.2891 -0.397,2.0184 0,1.0625 0.279,2.0383 0.841,2.9347 0.56,0.8946 1.44,1.62 2.637,2.1758 1.198,0.5574 2.506,0.8379 3.918,0.8379 0.848,0 1.831,-0.1183 2.951,-0.3516 1.117,-0.2351 2.029,-0.5273 2.73,-0.8769 -0.097,-1.4949 -0.159,-3.0117 -0.2,-4.5606 l -1.152,0 c -0.07,0.9817 -0.144,1.6258 -0.235,1.9356 -0.083,0.3125 -0.204,0.5871 -0.355,0.8281 -0.145,0.2434 -0.406,0.5028 -0.764,0.7742 -0.365,0.2793 -0.834,0.5215 -1.406,0.7383 -0.574,0.218 -1.279,0.3215 -2.114,0.3215 -1.185,0 -2.139,-0.3469 -2.86,-1.048 -0.722,-0.6993 -1.085,-1.5145 -1.085,-2.459 0,-0.5242 0.103,-0.9785 0.312,-1.3535 0.21,-0.3766 0.492,-0.6825 0.842,-0.9149 0.351,-0.2363 0.841,-0.448 1.473,-0.6367 l 3.356,-0.8273 c 1.696,-0.4278 2.864,-0.8016 3.507,-1.1114 0.637,-0.3062 1.156,-0.7859 1.545,-1.4433 0.394,-0.6512 0.591,-1.4344 0.591,-2.3465 0,-1.8172 -0.756,-3.3996 -2.255,-4.75 -1.504,-1.35432 -3.515,-2.02658 -6.033,-2.02658 -1.157,0 -2.698,0.17382 -4.625,0.52187 -1.063,0.20274 -1.635,0.3418 -1.717,0.42461 -0.059,0.03828 -0.08,0.10352 -0.08,0.20039 0,0.09453 0.015,0.20664 0.039,0.34063 0.123,0.58128 0.203,1.14648 0.244,1.69528 0.04,0.5496 0.074,1.7051 0.098,3.4492"
           style="fill:#f8d706;fill-opacity:1;fill-rule:nonzero;stroke:none"
           id="path32" /><path
           d="m 121.158,76.9609 c -0.202,-1.2457 -0.312,-2.5316 -0.326,-3.8586 l -0.053,-4.2093 -0.251,-0.2535 -1.589,0 -0.277,0.2285 c -0.084,2.15 -0.177,3.4129 -0.278,3.7789 -0.2,0.6754 -0.738,1.0711 -1.612,1.1875 -0.335,0.0511 -1.921,0.0765 -4.739,0.0765 l -3.38,0 c -0.034,-0.5886 -0.049,-2.9261 -0.049,-7.0105 l 0,-14.316 c 0,-4.0028 0.108,-6.6074 0.328,-7.8164 0.086,-0.4875 0.37,-0.7992 0.856,-0.9321 0.254,-0.0691 1.235,-0.1535 2.951,-0.2527 l 0.255,-0.2508 0,-1.6906 -0.255,-0.2523 c -1.667,0.1031 -4.253,0.1503 -7.766,0.1503 -3.594,0 -6.1859,-0.0472 -7.766,-0.1503 l -0.2257,0.2273 0,1.7156 0.2523,0.2508 c 1.7156,0.0992 2.6988,0.1836 2.9514,0.2527 0.483,0.1329 0.773,0.4446 0.857,0.9321 0.216,1.209 0.326,3.8136 0.326,7.8164 l 0,14.316 c 0,4.1508 -0.024,6.4883 -0.076,7.0105 l -3.6041,0 c -3.0098,0 -4.7656,-0.0968 -5.2695,-0.2769 C 92.15,73.5309 91.9645,73.4047 91.866,73.2559 91.7129,72.9828 91.5891,72.4473 91.4871,71.6402 91.3684,70.7504 91.2934,69.8332 91.2613,68.893 l -0.2519,-0.2535 -1.591,0 -0.2754,0.2535 -0.0489,4.3113 c -0.0203,1.2102 -0.1211,2.4605 -0.3066,3.7566 l 0.2258,0.2504 c 0.9957,-0.1664 4.6117,-0.2504 10.8441,-0.2504 l 10.2076,0 c 5.749,0 9.358,0.084 10.839,0.2504 l 0.254,-0.2504"
           style="fill:#f8d706;fill-opacity:1;fill-rule:nonzero;stroke:none"
           id="path34" /><path
           d="m 163.584,41.6418 -0.251,-0.2523 c -1.664,0.1031 -4.254,0.1503 -7.767,0.1503 -3.596,0 -6.183,-0.0472 -7.765,-0.1503 l -0.249,0.2273 0,1.7156 0.278,0.2508 c 1.712,0.0992 2.696,0.1836 2.945,0.2527 0.489,0.1329 0.776,0.4446 0.863,0.9321 0.214,1.209 0.323,3.8136 0.323,7.8164 l 0,6.0742 c -0.856,0.0824 -3.576,0.123 -8.165,0.123 -4.238,0 -7.025,-0.0406 -8.37,-0.123 l 0,-6.0742 c 0,-4.0028 0.113,-6.6074 0.327,-7.8164 0.081,-0.4875 0.37,-0.7992 0.856,-0.9321 0.255,-0.0691 1.236,-0.1535 2.949,-0.2527 l 0.252,-0.2508 0,-1.6906 -0.223,-0.2523 c -1.682,0.1031 -4.271,0.1503 -7.763,0.1503 -3.617,0 -6.204,-0.0472 -7.769,-0.1503 l -0.252,0.2273 0,1.7156 0.252,0.2508 c 1.716,0.0992 2.699,0.1836 2.951,0.2527 0.483,0.1329 0.772,0.4446 0.856,0.9321 0.223,1.209 0.327,3.8136 0.327,7.8164 l 0,13.3355 c 0,3.9985 -0.104,6.6039 -0.327,7.8125 -0.084,0.4867 -0.373,0.7996 -0.856,0.9324 -0.252,0.068 -1.235,0.152 -2.951,0.2536 l -0.252,0.2531 0,1.7113 0.252,0.2301 c 1.617,-0.1027 4.201,-0.152 7.769,-0.152 3.645,0 6.232,0.0493 7.763,0.152 l 0.223,-0.2301 0,-1.7371 -0.252,-0.2273 c -1.713,-0.1016 -2.694,-0.1856 -2.949,-0.2536 -0.486,-0.1328 -0.775,-0.4457 -0.856,-0.9324 -0.214,-1.2086 -0.327,-3.814 -0.327,-7.8125 l 0,-4.1625 c 1.785,-0.0832 4.233,-0.1258 7.364,-0.1258 4.907,0 7.962,0.0426 9.171,0.1258 l 0,4.1625 c 0,3.9985 -0.109,6.6039 -0.323,7.8125 -0.087,0.4867 -0.374,0.7996 -0.863,0.9324 -0.249,0.068 -1.233,0.152 -2.945,0.2536 l -0.278,0.2531 0,1.7113 0.249,0.2301 c 1.632,-0.1027 4.221,-0.152 7.765,-0.152 3.664,0 6.256,0.0493 7.767,0.152 l 0.251,-0.2301 0,-1.7371 -0.229,-0.2273 c -1.747,-0.1016 -2.74,-0.1856 -2.974,-0.2536 -0.486,-0.1328 -0.769,-0.4457 -0.856,-0.9324 -0.22,-1.2086 -0.324,-3.814 -0.324,-7.8125 l 0,-13.3355 c 0,-4.0028 0.104,-6.6074 0.324,-7.8164 0.087,-0.4875 0.37,-0.7992 0.856,-0.9321 0.255,-0.0691 1.239,-0.1535 2.952,-0.2527 l 0.251,-0.2508 0,-1.6906"
           style="fill:#f8d706;fill-opacity:1;fill-rule:nonzero;stroke:none"
           id="path36" /><path
           d="m 194.566,49.9613 c -0.373,-2.455 -0.551,-5.2254 -0.551,-8.3195 l -0.255,-0.2523 -18.327,0.1503 c -3.062,0 -5.22,-0.0472 -6.482,-0.1503 l -0.248,0.2523 0,0.7055 0.127,0.3027 c 1.244,0.7898 1.915,1.2859 2.014,1.4867 0.15,0.3203 0.243,1.4371 0.278,3.3535 l 0.081,5.6481 0,12.7816 c 0,3.9985 -0.116,6.6039 -0.333,7.8125 -0.084,0.4867 -0.368,0.7996 -0.86,0.9324 -0.249,0.068 -1.232,0.152 -2.95,0.2536 l -0.247,0.2531 0,1.7113 0.247,0.2301 c 1.701,-0.1027 4.322,-0.152 7.869,-0.152 3.157,0 9.167,0.0493 18.026,0.152 l 0.272,-0.2027 -0.328,-2.7985 c -0.1,-0.8926 -0.175,-1.65 -0.224,-2.2687 l -0.174,-2.3457 -0.255,-0.2778 -1.461,0 -0.255,0.2524 c -0.014,2.2871 -0.15,3.5906 -0.399,3.9097 -0.186,0.2332 -1.094,0.4188 -2.711,0.5516 -1.623,0.1344 -3.047,0.202 -4.271,0.202 -1.466,0 -2.942,-0.0575 -4.441,-0.1758 -0.185,-1.7641 -0.278,-4.209 -0.278,-7.3348 l 0,-5.2199 c 1.331,-0.0844 2.408,-0.1231 3.229,-0.1231 l 3.301,0.025 c 1.548,0.0137 2.423,0.1414 2.625,0.377 0.266,0.3008 0.445,1.4363 0.532,3.4031 l 0.248,0.2528 1.563,0 0.249,-0.2528 c -0.064,-1.8836 -0.099,-3.6066 -0.099,-5.1664 0,-1.6996 0.035,-3.557 0.099,-5.5726 l -0.249,-0.227 -1.69,0 -0.255,0.252 c 0,1.9324 -0.132,3.0793 -0.398,3.441 -0.269,0.359 -1.086,0.5988 -2.448,0.7195 -1.025,0.0809 -2.113,0.1254 -3.278,0.1254 -1.224,0 -2.367,-0.0445 -3.429,-0.1254 l 0,-7.6879 c 0,-2.2062 0.046,-4.339 0.127,-6.4043 l 3.426,0 c 4.913,0 7.916,0.1945 9.031,0.5766 0.181,0.0683 0.318,0.1625 0.401,0.2797 0.168,0.234 0.324,0.7379 0.481,1.5117 l 0.605,3.1262 0.251,0.2765 1.534,0 0.28,-0.2504"
           style="fill:#f8d706;fill-opacity:1;fill-rule:nonzero;stroke:none"
           id="path38" /><path
           d="m 239.59,69.2195 c 0,-3.4617 -1.18,-6.1644 -3.544,-8.1027 -2.358,-1.9414 -5.026,-2.9121 -8.003,-2.9121 -1.004,0 -2.022,0.1191 -3.047,0.3508 -0.156,0.4562 -0.451,1.0605 -0.886,1.816 l 0.531,0.5562 c 0.703,-0.2363 1.353,-0.3519 1.938,-0.3519 1.698,0 3.061,0.5984 4.088,1.8012 1.021,1.2007 1.539,2.8859 1.539,5.0531 0,4.6898 -2.114,7.0344 -6.331,7.0344 -0.503,0 -1.51,-0.1016 -3.025,-0.3 -0.152,-0.4051 -0.227,-3.1551 -0.227,-8.2446 l 0,-13.3355 c 0,-4.0028 0.107,-6.6074 0.33,-7.8164 0.082,-0.4875 0.368,-0.7992 0.857,-0.9321 0.15,-0.0355 1.302,-0.1211 3.455,-0.2527 l 0.271,-0.2785 0,-1.6629 -0.251,-0.2523 c -2.301,0.1031 -5.056,0.1503 -8.266,0.1503 -3.615,0 -6.201,-0.0472 -7.766,-0.1503 l -0.252,0.2273 0,1.6879 0.281,0.2785 c 1.696,0.0992 2.67,0.1836 2.922,0.2527 0.486,0.1329 0.77,0.4446 0.857,0.9321 0.219,1.209 0.329,3.8136 0.329,7.8164 l 0,13.3355 c 0,3.9985 -0.11,6.6039 -0.329,7.8125 -0.087,0.4867 -0.371,0.7996 -0.857,0.9324 -0.252,0.068 -1.235,0.152 -2.951,0.2536 l -0.252,0.2789 0,1.6609 0.281,0.2547 c 1.643,-0.1027 4.172,-0.152 7.583,-0.152 1.412,0 3.451,0.0235 6.103,0.075 2.655,0.0508 4.182,0.077 4.588,0.077 4.606,0 7.595,-1.1707 8.975,-3.5082 0.7,-1.2078 1.059,-2.6692 1.059,-4.3852"
           style="fill:#f8d706;fill-opacity:1;fill-rule:nonzero;stroke:none"
           id="path40" /><path
           d="m 321.427,41.6418 -0.248,-0.2523 c -0.123,0 -0.441,0.0089 -0.962,0.025 -2.301,0.0839 -3.738,0.1253 -4.305,0.1253 -0.862,0 -2.22,-0.0472 -4.092,-0.1503 -0.063,0.4039 -0.382,1.0753 -0.954,2.0183 l -6.25,10.4363 -2.801,4.2594 c -0.353,0.5211 -0.845,1.0348 -1.487,1.5375 l 0.278,0.8578 c 0.387,-0.0183 0.67,-0.0258 0.856,-0.0258 1.646,0 2.945,0.2606 3.884,0.7809 0.858,0.4707 1.648,1.2953 2.372,2.4711 0.72,1.1762 1.083,2.5805 1.083,4.209 0,2.8379 -1.06,4.7578 -3.178,5.75 -1.007,0.4687 -2.479,0.7031 -4.409,0.7031 -0.843,0 -1.65,-0.0648 -2.419,-0.1996 -0.171,-1.6488 -0.255,-4.4547 -0.255,-8.4223 l 0,-13.1808 c 0,-4.0028 0.11,-6.6074 0.323,-7.8164 0.088,-0.4875 0.374,-0.7992 0.858,-0.9321 0.257,-0.0691 1.237,-0.1535 2.951,-0.2527 l 0.254,-0.2508 0,-1.6906 -0.225,-0.2523 c -1.684,0.1031 -4.271,0.1503 -7.766,0.1503 -3.615,0 -6.199,-0.0472 -7.766,-0.1503 l -0.251,0.2273 0,1.7156 0.251,0.2508 c 1.712,0.0992 2.696,0.1836 2.951,0.2527 0.486,0.1329 0.773,0.4446 0.856,0.9321 0.223,1.209 0.331,3.8136 0.331,7.8164 l 0,13.3355 c 0,3.9985 -0.108,6.6039 -0.331,7.8125 -0.083,0.4867 -0.37,0.7996 -0.856,0.9324 -0.255,0.068 -1.239,0.152 -2.951,0.2536 l -0.251,0.2531 0,1.7113 0.251,0.2301 c 1.649,-0.1027 4.236,-0.152 7.766,-0.152 2.051,0 3.715,0.0235 4.994,0.075 2.534,0.1004 4.437,0.1504 5.694,0.1504 2.91,0 5.04,-0.2601 6.402,-0.7804 1.832,-0.7039 3.062,-1.9 3.678,-3.5821 0.304,-0.8218 0.457,-1.7968 0.457,-2.923 0,-4.5703 -2.571,-7.8133 -7.714,-9.7297 0.842,-1.4121 1.731,-2.8402 2.674,-4.2859 l 3.883,-5.9743 c 2.283,-3.53 3.805,-5.5394 4.56,-6.0265 0.388,-0.252 0.926,-0.3766 1.616,-0.3766 l 0.248,-0.2519 0,-1.6141"
           style="fill:#f8d706;fill-opacity:1;fill-rule:nonzero;stroke:none"
           id="path42" /><path
           d="m 355.563,76.9609 c -0.203,-1.2457 -0.312,-2.5316 -0.327,-3.8586 l -0.049,-4.2093 -0.255,-0.2535 -1.588,0 -0.276,0.2285 c -0.087,2.15 -0.175,3.4129 -0.281,3.7789 -0.201,0.6754 -0.743,1.0711 -1.611,1.1875 -0.342,0.0511 -1.915,0.0765 -4.738,0.0765 l -3.38,0 c -0.035,-0.5886 -0.052,-2.9261 -0.052,-7.0105 l 0,-14.316 c 0,-4.0028 0.109,-6.6074 0.33,-7.8164 0.083,-0.4875 0.369,-0.7992 0.855,-0.9321 0.255,-0.0691 1.24,-0.1535 2.952,-0.2527 l 0.251,-0.2508 0,-1.6906 -0.251,-0.2523 c -1.664,0.1031 -4.253,0.1503 -7.766,0.1503 -3.599,0 -6.183,-0.0472 -7.767,-0.1503 l -0.224,0.2273 0,1.7156 0.251,0.2508 c 1.717,0.0992 2.697,0.1836 2.951,0.2527 0.489,0.1329 0.772,0.4446 0.86,0.9321 0.213,1.209 0.327,3.8136 0.327,7.8164 l 0,14.316 c 0,4.1508 -0.029,6.4883 -0.079,7.0105 l -3.605,0 c -3.009,0 -4.762,-0.0968 -5.265,-0.2769 -0.273,-0.1031 -0.454,-0.2293 -0.559,-0.3781 -0.148,-0.2731 -0.275,-0.8086 -0.378,-1.6157 -0.119,-0.8898 -0.192,-1.807 -0.227,-2.7472 l -0.252,-0.2535 -1.588,0 -0.277,0.2535 -0.05,4.3113 c -0.015,1.2102 -0.115,2.4605 -0.304,3.7566 l 0.231,0.2504 c 0.991,-0.1664 4.602,-0.2504 10.837,-0.2504 l 10.21,0 c 5.749,0 9.363,0.084 10.839,0.2504 l 0.255,-0.2504"
           style="fill:#f8d706;fill-opacity:1;fill-rule:nonzero;stroke:none"
           id="path44" /><path
           d="m 251.766,60.3496 c 0,-3.9707 0.544,-7.2543 1.634,-9.8523 1.091,-2.6004 2.486,-4.4364 4.187,-5.5094 1.705,-1.0738 3.716,-1.609 6.029,-1.609 2.145,0 4.064,0.5113 5.759,1.5336 1.695,1.0195 3.02,2.75 3.984,5.1875 0.96,2.4359 1.444,5.3938 1.444,8.8688 0,2.3851 -0.26,4.5671 -0.782,6.5429 -0.517,1.9774 -1.261,3.6602 -2.234,5.0473 -0.972,1.389 -2.113,2.4508 -3.434,3.184 -1.32,0.7312 -3.07,1.0988 -5.249,1.0988 -2.485,0 -4.6,-0.5828 -6.344,-1.7523 -1.748,-1.1672 -3.015,-2.8918 -3.808,-5.1747 -0.79,-2.2832 -1.186,-4.8046 -1.186,-7.5652 z m -7.865,-1.5215 c 0,3.1176 0.472,5.8313 1.418,8.1477 0.944,2.3148 2.291,4.2824 4.045,5.8996 1.753,1.6172 3.663,2.7836 5.723,3.498 2.64,0.9028 5.515,1.3528 8.631,1.3528 3.098,0 5.906,-0.4324 8.428,-1.3008 1.872,-0.6641 3.53,-1.6219 4.966,-2.8727 1.441,-1.2515 2.534,-2.5332 3.284,-3.8437 0.749,-1.3125 1.317,-2.75 1.698,-4.3168 0.383,-1.5668 0.572,-3.2945 0.572,-5.1856 0,-3.2003 -0.552,-6.1714 -1.66,-8.9128 -0.816,-2.0434 -2.011,-3.8551 -3.587,-5.4399 -1.575,-1.5809 -3.369,-2.7988 -5.376,-3.6512 -2.758,-1.1402 -5.908,-1.7117 -9.45,-1.7117 -3.831,0 -7.118,0.6945 -9.869,2.082 -2.752,1.3879 -4.908,3.436 -6.473,6.1426 -1.568,2.7067 -2.35,6.0778 -2.35,10.1125"
           style="fill:#f8d706;fill-opacity:1;fill-rule:nonzero;stroke:none"
           id="path46" /><path
           d="m 107.508,9.36797 -0.845,2.80973 -1.875,6.2383 c -0.538,1.8059 -1.085,3.5508 -1.644,5.2344 -0.561,1.6816 -0.928,2.6496 -1.111,2.9082 -0.179,0.2551 -0.405,0.4363 -0.665,0.5437 -0.263,0.1067 -0.906,0.209 -1.927,0.304 l 0,1.1453 c 1.476,-0.0926 3.067,-0.1383 4.763,-0.1383 1.799,0 3.48,0.0457 5.04,0.1383 l 0,-1.1453 c -1.25,-0.0176 -2.063,-0.0645 -2.439,-0.1446 -0.258,-0.0527 -0.443,-0.1504 -0.553,-0.289 -0.116,-0.1457 -0.173,-0.3079 -0.173,-0.4993 0,-0.3062 0.196,-1.1355 0.584,-2.4843 l 1.875,-6.4981 c 0.31,-1.0887 0.683,-2.2652 1.129,-3.534 l 1.533,3.511 2.968,6.6336 c 0.701,1.5695 1.36,3.1543 1.977,4.7539 l 0.986,0 c 0.885,-2.459 1.493,-4.0821 1.817,-4.8809 l 2.315,-5.8445 c 0.793,-1.9621 1.391,-3.4406 1.794,-4.4328 l 1.513,3.9746 c 0.981,2.5586 1.744,4.7414 2.298,6.539 0.309,0.9856 0.465,1.6758 0.465,2.0801 0,0.3801 -0.133,0.6524 -0.393,0.8203 -0.267,0.168 -1.137,0.2657 -2.616,0.295 l 0,1.1453 c 2.049,-0.0926 3.457,-0.1383 4.239,-0.1383 0.946,0 2.225,0.0457 3.842,0.1383 l 0,-1.1453 c -0.778,-0.0176 -1.304,-0.086 -1.577,-0.2149 -0.266,-0.1269 -0.503,-0.3406 -0.705,-0.6328 -0.348,-0.4602 -0.892,-1.5371 -1.632,-3.2324 l -2.118,-5.052 -0.909,-2.2613 c -0.173,-0.4414 -0.694,-1.8117 -1.551,-4.0981 -0.382,-0.9683 -0.66,-1.8171 -0.85,-2.54683 l -1.896,0 -0.969,2.52383 -4.6,11.5625 -1.936,-4.1781 -2.28,-5.0633 c -0.524,-1.1731 -0.946,-2.1652 -1.27,-2.9863 l -0.666,-1.85863 -1.938,0"
           style="fill:#211c1d;fill-opacity:1;fill-rule:nonzero;stroke:none"
           id="path66" /><path
           d="m 139.855,20.375 c 0,-1.6523 0.275,-3.3379 0.828,-5.0488 0.55,-1.709 1.349,-2.9571 2.39,-3.7469 1.042,-0.7863 2.176,-1.1809 3.397,-1.1809 1.562,0 2.867,0.6192 3.912,1.8582 1.053,1.2375 1.576,3.1426 1.576,5.7168 0,2.1418 -0.309,3.9875 -0.94,5.5442 -0.622,1.5566 -1.423,2.6496 -2.39,3.2898 -0.966,0.6399 -2.036,0.9641 -3.206,0.9641 -1.654,0 -2.994,-0.6016 -4.027,-1.7996 -1.024,-1.1985 -1.54,-3.0688 -1.54,-5.5969 z m -3.813,-1.4934 c 0,3.0157 0.96,5.4739 2.876,7.3789 1.915,1.9036 4.375,2.8575 7.373,2.8575 2.824,0 5.127,-0.8844 6.897,-2.6637 1.777,-1.7805 2.662,-4.0703 2.662,-6.8859 0,-1.9649 -0.457,-3.7649 -1.371,-5.3934 -0.915,-1.6289 -2.205,-2.9055 -3.871,-3.8215 -1.667,-0.92381 -3.504,-1.3867 -5.506,-1.3867 -1.563,0 -2.886,0.26289 -3.967,0.78711 -1.083,0.52339 -1.959,1.18359 -2.631,1.97579 -0.674,0.7984 -1.183,1.6141 -1.533,2.4453 -0.622,1.4668 -0.929,3.034 -0.929,4.7066"
           style="fill:#211c1d;fill-opacity:1;fill-rule:nonzero;stroke:none"
           id="path68" /><path
           d="m 162.303,9.5918 0,1.1484 c 1.527,0.0293 2.355,0.0559 2.476,0.0801 0.232,0.041 0.403,0.1082 0.515,0.1914 0.116,0.0879 0.209,0.2149 0.278,0.377 0.133,0.3066 0.214,0.7918 0.243,1.4519 0.066,3.591 0.102,5.4692 0.102,5.625 l 0,2.4016 c 0,1.0769 -0.024,2.2336 -0.062,3.4726 -0.028,0.7918 -0.084,1.261 -0.173,1.4114 -0.087,0.1445 -0.244,0.2593 -0.463,0.3297 -0.223,0.0746 -1.099,0.1066 -2.633,0.0918 l 0,1.1535 c 2.717,0.375 4.699,0.8672 5.952,1.4699 0.269,0.1387 0.454,0.2012 0.546,0.2012 0.093,0 0.168,-0.0336 0.221,-0.1008 0.051,-0.0672 0.08,-0.1652 0.08,-0.3035 0,-0.093 -0.006,-0.2035 -0.02,-0.3196 -0.066,-0.8203 -0.107,-2.0949 -0.118,-3.8152 0.601,0.7 1.16,1.3902 1.672,2.0801 0.509,0.6824 0.879,1.1277 1.111,1.3308 0.402,0.3504 0.868,0.6282 1.388,0.8391 0.527,0.2059 1.071,0.3094 1.635,0.3094 0.568,0 1.123,-0.1211 1.676,-0.3613 l 0.121,-0.2833 c -0.202,-1.7882 -0.315,-3.3625 -0.344,-4.7226 l -0.905,0 c -0.313,0.6484 -0.672,1.1203 -1.083,1.4148 -0.411,0.2934 -0.926,0.4438 -1.542,0.4438 -1.033,0 -1.915,-0.4258 -2.644,-1.2805 -0.727,-0.8555 -1.085,-2.134 -1.085,-3.8445 l 0,-2.0742 c 0,-0.8918 0.028,-2.5121 0.098,-4.8664 0.011,-0.8348 0.046,-1.3664 0.101,-1.5926 0.055,-0.2278 0.125,-0.393 0.212,-0.4914 0.087,-0.1043 0.231,-0.1914 0.433,-0.2547 0.405,-0.1223 1.493,-0.2434 3.27,-0.3645 l 0,-1.1484 c -2.367,0.0957 -4.386,0.14179 -6.053,0.14179 -1.719,0 -3.391,-0.04609 -5.005,-0.14179"
           style="fill:#211c1d;fill-opacity:1;fill-rule:nonzero;stroke:none"
           id="path70" /><path
           d="m 182.597,9.5918 0,1.1484 1.892,0.0176 c 0.298,0.0176 0.521,0.0652 0.677,0.1563 0.156,0.0859 0.272,0.1961 0.354,0.33 0.15,0.2715 0.236,0.7469 0.262,1.4317 0.015,0.1765 0.061,2.1035 0.139,5.784 l 0,8.3672 c 0,2.246 -0.031,1.7191 -0.098,4.1144 -0.055,1.6086 -0.128,2.5117 -0.222,2.7004 -0.07,0.1324 -0.177,0.2281 -0.325,0.2801 -0.206,0.0937 -1.137,0.1445 -2.801,0.1445 l 0,1.1863 c 3.039,0.3774 5.15,0.852 6.334,1.4121 0.173,0.0801 0.309,0.1211 0.402,0.1211 0.093,0 0.168,-0.0293 0.223,-0.0918 0.054,-0.0586 0.078,-0.1386 0.078,-0.25 0,-0.0972 -0.012,-0.2304 -0.038,-0.398 l -0.02,-0.6723 c -0.069,-2.4004 -0.11,-4.45 -0.122,-6.1441 l -0.04,-0.3012 0,-8.0992 0.22,-0.1215 c 0.717,0.4426 1.742,1.2309 3.09,2.3574 0.902,0.7707 2.922,2.6262 6.07,5.5676 1.036,-0.0398 1.695,-0.0574 1.979,-0.0574 0.267,0 0.947,0.0176 2.037,0.0574 l 0,-1.1465 c -0.781,-0.039 -1.279,-0.0976 -1.493,-0.1601 -0.298,-0.0965 -0.856,-0.4063 -1.674,-0.927 -1.292,-0.816 -2.845,-1.9793 -4.66,-3.4844 l -2.056,-1.6289 c 1.088,-1.1132 2.968,-2.9851 5.641,-5.6121 2.017,-2.0566 3.23,-3.255 3.64,-3.5968 0.412,-0.3418 0.813,-0.5438 1.204,-0.6102 0.388,-0.0645 0.996,-0.0988 1.816,-0.0988 l 0,-0.9051 c -0.994,-0.1914 -1.836,-0.3652 -2.522,-0.51563 -0.688,-0.15625 -1.476,-0.34102 -2.367,-0.55547 -0.457,0.37265 -0.903,0.7613 -1.33,1.157 -0.429,0.4004 -1.308,1.286 -2.639,2.6532 -2.729,2.7992 -4.975,4.9855 -6.736,6.5539 l -0.22,-0.0957 0,-1.1946 c 0.058,-3.4949 0.09,-5.3875 0.099,-5.6656 0.013,-0.673 0.097,-1.1621 0.245,-1.473 0.055,-0.1211 0.134,-0.2274 0.24,-0.3153 0.107,-0.0832 0.27,-0.1562 0.486,-0.2101 0.093,-0.0145 0.839,-0.0321 2.24,-0.0614 l 0,-1.1484 c -1.777,0.0957 -3.379,0.14179 -4.818,0.14179 -1.397,0 -3.122,-0.04609 -5.187,-0.14179"
           style="fill:#211c1d;fill-opacity:1;fill-rule:nonzero;stroke:none"
           id="path72" /><path
           d="m 210.772,15.6824 1.209,0 c 0.015,-0.7812 0.052,-1.3953 0.122,-1.8523 0.067,-0.4571 0.182,-0.9082 0.341,-1.3426 0.162,-0.4367 0.417,-0.809 0.753,-1.1105 0.335,-0.3008 0.702,-0.5391 1.1,-0.7071 0.399,-0.166 0.798,-0.2773 1.209,-0.3312 0.414,-0.0555 1.036,-0.0821 1.872,-0.0821 1.374,0 2.503,0.3625 3.388,1.0911 0.882,0.7238 1.325,1.7187 1.325,2.9863 0,0.5613 -0.139,1.0594 -0.416,1.4902 -0.278,0.4309 -0.675,0.7664 -1.196,1.0098 -0.517,0.2422 -1.631,0.5605 -3.341,0.9492 -1.713,0.3879 -2.813,0.6711 -3.314,0.8445 -0.754,0.2832 -1.356,0.625 -1.799,1.0325 -0.442,0.4023 -0.798,0.9121 -1.061,1.5312 -0.265,0.6191 -0.395,1.2899 -0.395,2.0195 0,1.0586 0.279,2.0364 0.84,2.9325 0.558,0.8949 1.438,1.6222 2.635,2.1769 1.201,0.5586 2.507,0.8391 3.922,0.8391 0.849,0 1.828,-0.1184 2.947,-0.3528 1.117,-0.2375 2.029,-0.5273 2.73,-0.8781 -0.093,-1.4937 -0.163,-3.0137 -0.204,-4.5586 l -1.151,0 c -0.064,0.9817 -0.139,1.6289 -0.228,1.9356 -0.09,0.3125 -0.208,0.584 -0.356,0.8285 -0.145,0.2422 -0.405,0.5015 -0.77,0.7742 -0.365,0.2773 -0.833,0.5215 -1.404,0.7375 -0.573,0.2145 -1.275,0.3211 -2.109,0.3211 -1.189,0 -2.141,-0.3457 -2.863,-1.0469 -0.719,-0.7004 -1.083,-1.5226 -1.083,-2.4617 0,-0.5246 0.104,-0.9758 0.312,-1.3488 0.208,-0.3797 0.492,-0.6867 0.84,-0.9199 0.35,-0.2344 0.841,-0.4485 1.475,-0.634 l 3.353,-0.827 c 1.698,-0.4308 2.867,-0.8047 3.507,-1.1125 0.642,-0.3094 1.154,-0.7879 1.548,-1.4402 0.388,-0.6543 0.585,-1.4348 0.585,-2.3516 0,-1.8144 -0.75,-3.3992 -2.251,-4.748 -1.505,-1.35432 -3.513,-2.03245 -6.031,-2.03245 -1.157,0 -2.702,0.17969 -4.629,0.52773 -1.064,0.20196 -1.638,0.34336 -1.716,0.42266 -0.055,0.04106 -0.077,0.10936 -0.077,0.20316 0,0.0918 0.01,0.207 0.04,0.3398 0.115,0.582 0.196,1.1477 0.24,1.6965 0.04,0.5516 0.075,1.7 0.101,3.4488"
           style="fill:#211c1d;fill-opacity:1;fill-rule:nonzero;stroke:none"
           id="path74" /><path
           d="m 238.201,13.75 c 0.712,-0.7297 1.528,-1.3008 2.443,-1.7141 0.914,-0.4218 1.875,-0.6277 2.884,-0.6277 1.224,0 2.335,0.3035 3.336,0.9172 1.001,0.6082 1.8,1.5633 2.384,2.8531 0.585,1.2903 0.874,2.6992 0.874,4.216 0,1.4668 -0.278,2.7395 -0.833,3.8274 -0.559,1.0797 -1.349,1.8922 -2.373,2.4375 -1.021,0.5426 -2.049,0.814 -3.084,0.814 -0.769,0 -1.524,-0.1504 -2.269,-0.4511 -0.746,-0.3035 -1.422,-0.7403 -2.031,-1.3192 -0.601,-0.5781 -1.006,-1.1301 -1.209,-1.6582 -0.081,-0.2511 -0.122,-0.7433 -0.122,-1.4719 l 0,-7.823 z m -6.921,12.4637 0,1.1515 c 0.246,0 0.759,0.0559 1.533,0.1707 0.783,0.1125 1.65,0.3071 2.605,0.584 0.954,0.2758 1.673,0.5422 2.158,0.7973 0.145,0.0801 0.27,0.1211 0.364,0.1211 0.093,0 0.168,-0.0356 0.232,-0.0981 0.058,-0.0703 0.088,-0.1824 0.088,-0.3472 0,-0.0649 -0.006,-0.2258 -0.018,-0.4817 -0.029,-0.3925 -0.041,-0.7461 -0.041,-1.0703 l 0,-2.1406 c 2.275,2.1152 3.693,3.3047 4.26,3.573 0.734,0.3614 1.84,0.5442 3.307,0.5442 1.71,0 3.18,-0.3848 4.418,-1.1602 1.232,-0.7695 2.135,-1.7765 2.691,-3.0039 0.561,-1.2324 0.839,-2.5461 0.839,-3.9426 0,-0.8484 -0.099,-1.6492 -0.293,-2.4011 -0.196,-0.7559 -0.445,-1.461 -0.746,-2.1309 -0.303,-0.6641 -0.639,-1.2742 -1.007,-1.834 -0.373,-0.5586 -0.72,-0.9804 -1.038,-1.2578 -0.192,-0.1797 -0.681,-0.582 -1.464,-1.2156 -0.788,-0.6313 -1.63,-1.1809 -2.524,-1.6438 -0.891,-0.46286 -1.516,-0.74918 -1.863,-0.85622 -0.769,-0.24335 -1.586,-0.36562 -2.445,-0.36562 -0.674,0 -1.328,0.08242 -1.964,0.24453 -0.641,0.16211 -1.36,0.43633 -2.171,0.82691 l 0,-3.20816 c 0.056,-3.40117 0.09,-2.43359 0.102,-2.78711 0.014,-0.65586 0.095,-1.13945 0.246,-1.45195 0.052,-0.14844 0.133,-0.26367 0.255,-0.35352 0.109,-0.08711 0.277,-0.15117 0.494,-0.19062 0.119,-0.02305 0.927,-0.05235 2.413,-0.08164 l 0,-1.14571 c -1.681,0.06758 -3.906,0.09844 -6.675,0.09844 -1.533,0 -2.711,-0.03086 -3.53,-0.09844 l 0,1.14571 1.928,0.02304 c 0.283,0.01172 0.503,0.06485 0.659,0.15039 0.156,0.0879 0.274,0.19766 0.355,0.33321 0.148,0.26953 0.24,0.75 0.287,1.43164 0.009,0.17656 0.04,-0.74024 0.096,2.93281 l 0,7.16761 c 0,2.3246 -0.023,4.7179 -0.079,7.1679 -0.058,2.4485 -0.109,3.7856 -0.171,4.0039 -0.06,0.227 -0.158,0.395 -0.292,0.5071 -0.136,0.1152 -0.311,0.1941 -0.525,0.2336 l -2.484,0.0582"
           style="fill:#211c1d;fill-opacity:1;fill-rule:nonzero;stroke:none"
           id="path76" /><path
           d="m 273.159,20.2422 c -1.747,-0.2949 -3.24,-0.6262 -4.479,-0.9895 -1.239,-0.3648 -2.112,-0.7343 -2.62,-1.1289 -0.311,-0.2254 -0.581,-0.573 -0.809,-1.03 -0.35,-0.6711 -0.522,-1.4172 -0.522,-2.2364 0,-0.9949 0.274,-1.7734 0.826,-2.3293 0.55,-0.5574 1.314,-0.8386 2.299,-0.8386 0.899,0 1.791,0.2609 2.672,0.7742 0.88,0.5215 1.759,1.298 2.633,2.3332 l 0,5.4453 z m -9.259,3.168 -1.07,0.2812 c 0.012,0.3098 0.021,0.7344 0.021,1.2695 0,0.5711 -0.009,1.0196 -0.021,1.3536 1.713,1.1152 3.113,1.8671 4.201,2.2609 0.836,0.2801 1.77,0.4219 2.812,0.4219 1.534,0 2.824,-0.2891 3.874,-0.8684 1.054,-0.5781 1.835,-1.4055 2.347,-2.4816 0.347,-0.7528 0.527,-1.7793 0.527,-3.0836 l -0.104,-3.6938 0,-6.0058 c 0,-0.6543 0.051,-1.1168 0.162,-1.3946 0.08,-0.2027 0.207,-0.3504 0.384,-0.4461 0.133,-0.08 0.414,-0.1328 0.845,-0.1621 l 1.311,-0.1211 0,-1.1484 c -1.105,0.0957 -2.071,0.14179 -2.902,0.14179 -0.807,0 -1.884,-0.04609 -3.225,-0.14179 l 0.097,3.55 c -2.742,-2.0715 -4.372,-3.2375 -4.884,-3.50117 -0.508,-0.26055 -1.158,-0.39336 -1.935,-0.39336 -1.629,0 -2.894,0.43437 -3.799,1.30153 -0.909,0.8684 -1.366,2.0203 -1.366,3.461 0,0.9257 0.156,1.7761 0.474,2.5402 0.313,0.7703 0.695,1.3777 1.141,1.8289 0.445,0.4492 0.894,0.7805 1.348,0.9949 0.781,0.3645 2.054,0.759 3.807,1.1692 1.753,0.4187 3.491,0.7285 5.214,0.9316 0.012,1.2781 -0.138,2.2754 -0.469,2.9836 -0.318,0.7145 -0.862,1.2984 -1.628,1.7555 -0.771,0.4574 -1.702,0.6855 -2.804,0.6855 -0.793,0 -1.49,-0.1062 -2.089,-0.3199 -0.6,-0.218 -0.967,-0.4008 -1.1,-0.5449 l -0.364,-0.7289 c -0.358,-0.8067 -0.631,-1.4375 -0.805,-1.8953"
           style="fill:#211c1d;fill-opacity:1;fill-rule:nonzero;stroke:none"
           id="path78" /><path
           d="m 301.818,11.8918 -0.807,-1.3547 c -0.926,-0.4933 -1.841,-0.85858 -2.751,-1.08671 -0.908,-0.22695 -1.934,-0.3418 -3.076,-0.3418 -2.825,0 -5.076,0.85039 -6.746,2.55231 -1.676,1.7032 -2.514,4.045 -2.514,7.0196 0,1.5734 0.226,2.9445 0.679,4.1078 0.448,1.1629 1.002,2.0625 1.661,2.6969 0.445,0.4425 1.289,1.0175 2.534,1.7238 1.243,0.707 2.111,1.164 2.609,1.3664 0.914,0.3883 2.012,0.584 3.29,0.584 1.209,0 2.301,-0.1301 3.27,-0.3813 0.616,-0.1621 1.235,-0.4343 1.851,-0.8113 -0.153,-1.0352 -0.263,-1.8176 -0.33,-2.3457 -0.064,-0.5293 -0.147,-1.4961 -0.251,-2.8977 l -1.152,0 c -0.081,1.3071 -0.162,2.1184 -0.243,2.4438 -0.053,0.2 -0.174,0.3805 -0.365,0.5426 -0.485,0.3769 -1.105,0.7011 -1.869,0.9789 -0.76,0.275 -1.59,0.4136 -2.494,0.4136 -1.135,0 -2.112,-0.2343 -2.94,-0.6968 -0.827,-0.4629 -1.476,-1.2012 -1.933,-2.2102 -0.457,-1.0137 -0.685,-2.2629 -0.685,-3.7617 0,-1.8289 0.321,-3.4844 0.968,-4.9656 0.646,-1.4817 1.523,-2.561 2.631,-3.2461 1.111,-0.677 2.353,-1.016 3.725,-1.016 0.682,0 1.353,0.0839 2.007,0.2519 0.648,0.1684 1.487,0.4863 2.511,0.961 l 0.42,-0.527"
           style="fill:#211c1d;fill-opacity:1;fill-rule:nonzero;stroke:none"
           id="path80" /><path
           d="m 311.682,20.968 c 0.373,-0.0383 1.088,-0.0832 2.135,-0.1211 2.005,-0.0676 3.385,-0.1008 4.137,-0.1008 1.788,0 2.963,0.0332 3.531,0.1008 0.01,0.3269 0.016,0.575 0.016,0.7488 0,2.125 -0.428,3.6863 -1.29,4.6797 -0.856,0.998 -2.007,1.4961 -3.446,1.4961 -1.522,0 -2.745,-0.5508 -3.671,-1.6375 -0.929,-1.0891 -1.402,-2.811 -1.412,-5.166 z m 12.926,-8.2453 -0.644,-1.4532 c -0.923,-0.5761 -1.606,-0.9629 -2.036,-1.1543 -0.634,-0.27731 -1.355,-0.52067 -2.168,-0.71793 -0.813,-0.19141 -1.673,-0.28868 -2.57,-0.28868 -1.776,0 -3.384,0.36993 -4.825,1.11021 -1.439,0.7355 -2.558,1.841 -3.357,3.3164 -0.801,1.4726 -1.201,3.2 -1.201,5.1785 0,1.5429 0.212,2.9375 0.636,4.1836 0.423,1.2453 0.907,2.1625 1.444,2.75 0.388,0.4308 0.994,0.9257 1.811,1.4875 0.823,0.5547 1.638,0.9941 2.444,1.3183 1.064,0.4434 2.212,0.6649 3.449,0.6649 1.51,0 2.869,-0.3399 4.087,-1.0301 1.213,-0.6816 2.106,-1.6199 2.671,-2.7996 0.563,-1.1867 0.845,-2.5238 0.845,-4.0168 0,-0.375 -0.029,-0.832 -0.099,-1.3711 -0.966,-0.1875 -1.833,-0.3125 -2.601,-0.3645 -1.447,-0.1035 -2.896,-0.1621 -4.346,-0.1621 l -6.466,0 c 0.022,-1.9265 0.359,-3.4898 0.996,-4.6812 0.64,-1.1926 1.52,-2.0727 2.643,-2.636 1.122,-0.5691 2.292,-0.8507 3.501,-0.8507 0.823,0 1.638,0.1328 2.454,0.3996 0.81,0.2625 1.818,0.7547 3.015,1.4609 l 0.317,-0.3437"
           style="fill:#211c1d;fill-opacity:1;fill-rule:nonzero;stroke:none"
           id="path82" /><path
           d="m 332.555,15.6824 1.209,0 c 0.017,-0.7812 0.055,-1.3953 0.121,-1.8523 0.07,-0.4571 0.185,-0.9082 0.344,-1.3426 0.166,-0.4367 0.412,-0.809 0.75,-1.1105 0.336,-0.3008 0.703,-0.5391 1.099,-0.7071 0.401,-0.166 0.805,-0.2773 1.215,-0.3312 0.412,-0.0555 1.036,-0.0821 1.87,-0.0821 1.375,0 2.503,0.3625 3.385,1.0911 0.883,0.7238 1.322,1.7187 1.322,2.9863 0,0.5613 -0.136,1.0594 -0.413,1.4902 -0.277,0.4309 -0.672,0.7664 -1.192,1.0098 -0.516,0.2422 -1.635,0.5605 -3.34,0.9492 -1.712,0.3879 -2.821,0.6711 -3.318,0.8445 -0.754,0.2832 -1.354,0.625 -1.799,1.0325 -0.443,0.4023 -0.796,0.9121 -1.06,1.5312 -0.263,0.6191 -0.394,1.2899 -0.394,2.0195 0,1.0586 0.279,2.0364 0.837,2.9325 0.561,0.8949 1.441,1.6222 2.638,2.1769 1.198,0.5586 2.506,0.8391 3.919,0.8391 0.85,0 1.833,-0.1184 2.95,-0.3528 1.118,-0.2375 2.026,-0.5273 2.727,-0.8781 -0.094,-1.4937 -0.162,-3.0137 -0.2,-4.5586 l -1.152,0 c -0.067,0.9817 -0.144,1.6289 -0.232,1.9356 -0.086,0.3125 -0.204,0.584 -0.349,0.8285 -0.15,0.2422 -0.409,0.5015 -0.77,0.7742 -0.366,0.2773 -0.837,0.5215 -1.407,0.7375 -0.573,0.2145 -1.278,0.3211 -2.115,0.3211 -1.183,0 -2.14,-0.3457 -2.86,-1.0469 -0.721,-0.7004 -1.083,-1.5226 -1.083,-2.4617 0,-0.5246 0.106,-0.9758 0.312,-1.3488 0.211,-0.3797 0.49,-0.6867 0.842,-0.9199 0.348,-0.2344 0.843,-0.4485 1.473,-0.634 l 3.356,-0.827 c 1.696,-0.4308 2.865,-0.8047 3.507,-1.1125 0.643,-0.3094 1.155,-0.7879 1.545,-1.4402 0.394,-0.6543 0.585,-1.4348 0.585,-2.3516 0,-1.8144 -0.75,-3.3992 -2.251,-4.748 -1.502,-1.35432 -3.513,-2.03245 -6.029,-2.03245 -1.159,0 -2.698,0.17969 -4.624,0.52773 -1.065,0.20196 -1.638,0.34336 -1.72,0.42266 -0.057,0.04106 -0.08,0.10936 -0.08,0.20316 0,0.0918 0.012,0.207 0.04,0.3398 0.122,0.582 0.199,1.1477 0.243,1.6965 0.041,0.5516 0.072,1.7 0.099,3.4488"
           style="fill:#211c1d;fill-opacity:1;fill-rule:nonzero;stroke:none"
           id="path84" /><path
           d="m 123.034,77.9949 c -0.203,-1.2469 -0.313,-2.5316 -0.327,-3.8597 l -0.056,-4.2094 -0.248,-0.2535 -1.589,0 -0.277,0.2285 c -0.084,2.15 -0.177,3.4129 -0.279,3.7805 -0.199,0.6742 -0.737,1.0691 -1.611,1.1875 -0.335,0.0496 -1.921,0.075 -4.739,0.075 l -3.38,0 c -0.034,-0.5883 -0.049,-2.9258 -0.049,-7.0098 l 0,-14.3168 c 0,-4.0031 0.107,-6.6055 0.327,-7.8149 0.087,-0.4878 0.37,-0.8 0.857,-0.9335 0.251,-0.068 1.235,-0.152 2.951,-0.2528 l 0.255,-0.2504 0,-1.6898 -0.255,-0.252 c -1.666,0.1032 -4.254,0.1492 -7.766,0.1492 -3.594,0 -6.186,-0.046 -7.7656,-0.1492 l -0.2261,0.2274 0,1.7144 0.2515,0.2504 c 1.7162,0.1008 2.7002,0.1848 2.9522,0.2528 0.482,0.1335 0.772,0.4457 0.856,0.9335 0.217,1.2094 0.327,3.8118 0.327,7.8149 l 0,14.3168 c 0,4.1519 -0.026,6.4894 -0.076,7.0098 l -3.6049,0 c -3.0086,0 -4.7652,-0.0946 -5.2687,-0.2774 C 94.025,74.5637 93.8395,74.4379 93.741,74.2891 93.5879,74.0172 93.4629,73.4801 93.3621,72.6727 93.2434,71.7848 93.168,70.866 93.134,69.9258 l -0.2527,-0.2535 -1.5879,0 -0.2754,0.2535 -0.0489,4.3125 c -0.0203,1.2113 -0.1211,2.4609 -0.3066,3.7566 l 0.2258,0.2492 c 0.9957,-0.1652 4.609,-0.2492 10.8437,-0.2492 l 10.208,0 c 5.749,0 9.357,0.084 10.838,0.2492 l 0.256,-0.2492"
           style="fill:#231f20;fill-opacity:1;fill-rule:nonzero;stroke:none"
           id="path86" /><path
           d="m 165.459,42.6758 -0.252,-0.252 c -1.663,0.1032 -4.252,0.1492 -7.765,0.1492 -3.597,0 -6.184,-0.046 -7.766,-0.1492 l -0.249,0.2274 0,1.7144 0.275,0.2504 c 1.716,0.1008 2.7,0.1848 2.948,0.2528 0.489,0.1335 0.776,0.4457 0.86,0.9335 0.217,1.2094 0.326,3.8118 0.326,7.8149 l 0,6.0746 c -0.856,0.084 -3.576,0.1246 -8.165,0.1246 -4.238,0 -7.025,-0.0406 -8.371,-0.1246 l 0,-6.0746 c 0,-4.0031 0.111,-6.6055 0.328,-7.8149 0.081,-0.4878 0.37,-0.8 0.856,-0.9335 0.255,-0.068 1.236,-0.152 2.949,-0.2528 l 0.252,-0.2504 0,-1.6898 -0.223,-0.252 c -1.682,0.1032 -4.271,0.1492 -7.763,0.1492 -3.617,0 -6.204,-0.046 -7.772,-0.1492 l -0.249,0.2274 0,1.7144 0.249,0.2504 c 1.719,0.1008 2.702,0.1848 2.954,0.2528 0.483,0.1335 0.772,0.4457 0.856,0.9335 0.223,1.2094 0.328,3.8118 0.328,7.8149 l 0,13.3359 c 0,3.9985 -0.105,6.6039 -0.328,7.8137 -0.084,0.4871 -0.373,0.798 -0.856,0.9324 -0.252,0.068 -1.235,0.152 -2.954,0.2535 l -0.249,0.2512 0,1.7129 0.249,0.2301 c 1.617,-0.102 4.204,-0.152 7.772,-0.152 3.645,0 6.232,0.05 7.763,0.152 l 0.223,-0.2301 0,-1.7383 -0.252,-0.2258 c -1.713,-0.1015 -2.694,-0.1855 -2.949,-0.2535 -0.486,-0.1344 -0.775,-0.4453 -0.856,-0.9324 -0.217,-1.2098 -0.328,-3.8152 -0.328,-7.8137 l 0,-4.1605 c 1.786,-0.084 4.234,-0.1266 7.362,-0.1266 4.91,0 7.965,0.0426 9.174,0.1266 l 0,4.1605 c 0,3.9985 -0.109,6.6039 -0.326,7.8137 -0.084,0.4871 -0.371,0.798 -0.86,0.9324 -0.248,0.068 -1.232,0.152 -2.948,0.2535 l -0.275,0.2512 0,1.7129 0.249,0.2301 c 1.632,-0.102 4.221,-0.152 7.766,-0.152 3.663,0 6.252,0.05 7.765,0.152 l 0.252,-0.2301 0,-1.7383 -0.229,-0.2258 c -1.747,-0.1015 -2.739,-0.1855 -2.974,-0.2535 -0.485,-0.1344 -0.77,-0.4453 -0.856,-0.9324 -0.22,-1.2098 -0.324,-3.8152 -0.324,-7.8137 l 0,-13.3359 c 0,-4.0031 0.104,-6.6055 0.324,-7.8149 0.086,-0.4878 0.371,-0.8 0.856,-0.9335 0.255,-0.068 1.239,-0.152 2.951,-0.2528 l 0.252,-0.2504 0,-1.6898"
           style="fill:#231f20;fill-opacity:1;fill-rule:nonzero;stroke:none"
           id="path88" /><path
           d="m 196.441,50.9941 c -0.373,-2.455 -0.552,-5.2257 -0.552,-8.3183 l -0.254,-0.252 -18.327,0.1492 c -3.062,0 -5.22,-0.046 -6.482,-0.1492 l -0.249,0.252 0,0.7047 0.128,0.3019 c 1.241,0.7903 1.915,1.2879 2.014,1.4875 0.15,0.3199 0.242,1.4379 0.278,3.3543 l 0.078,5.6469 0,12.782 c 0,3.9985 -0.114,6.6039 -0.33,7.8137 -0.084,0.4871 -0.368,0.798 -0.86,0.9324 -0.249,0.068 -1.233,0.152 -2.951,0.2535 l -0.246,0.2512 0,1.7129 0.246,0.2301 c 1.702,-0.102 4.322,-0.152 7.87,-0.152 3.157,0 9.167,0.05 18.026,0.152 l 0.272,-0.2035 -0.328,-2.7965 c -0.1,-0.8926 -0.175,-1.6524 -0.225,-2.2699 l -0.173,-2.345 -0.255,-0.2781 -1.461,0 -0.255,0.2504 c -0.014,2.2871 -0.15,3.591 -0.399,3.9102 -0.186,0.2328 -1.094,0.4187 -2.711,0.5511 -1.623,0.1352 -3.047,0.2043 -4.272,0.2043 -1.465,0 -2.941,-0.0597 -4.44,-0.1777 -0.186,-1.7641 -0.277,-4.209 -0.277,-7.3352 l 0,-5.2195 c 1.33,-0.084 2.406,-0.123 3.228,-0.123 l 3.298,0.025 c 1.551,0.014 2.425,0.1418 2.628,0.3777 0.266,0.3008 0.445,1.4375 0.532,3.4023 l 0.249,0.2528 1.562,0 0.25,-0.2528 c -0.065,-1.882 -0.099,-3.6054 -0.099,-5.1664 0,-1.6996 0.034,-3.557 0.099,-5.5726 l -0.25,-0.2274 -1.69,0 -0.255,0.2524 c 0,1.9328 -0.132,3.0793 -0.398,3.4418 -0.27,0.3586 -1.086,0.5992 -2.448,0.7187 -1.025,0.0824 -2.116,0.1258 -3.278,0.1258 -1.224,0 -2.371,-0.0434 -3.428,-0.1258 l 0,-7.6883 c 0,-2.2039 0.043,-4.3371 0.127,-6.4043 l 3.425,0 c 4.911,0 7.916,0.1961 9.031,0.5789 0.181,0.0684 0.317,0.1606 0.401,0.2797 0.168,0.2344 0.324,0.7364 0.481,1.5114 l 0.605,3.1257 0.251,0.277 1.534,0 0.28,-0.252"
           style="fill:#231f20;fill-opacity:1;fill-rule:nonzero;stroke:none"
           id="path90" /><path
           d="m 241.465,70.2539 c 0,-3.4613 -1.18,-6.1641 -3.544,-8.1047 -2.358,-1.941 -5.026,-2.9105 -8.006,-2.9105 -1.001,0 -2.019,0.1176 -3.044,0.3508 -0.156,0.4566 -0.451,1.0597 -0.886,1.8168 l 0.528,0.5554 c 0.705,-0.2371 1.356,-0.3531 1.941,-0.3531 1.698,0 3.058,0.5988 4.088,1.8023 1.021,1.1993 1.539,2.886 1.539,5.052 0,4.6898 -2.114,7.034 -6.331,7.034 -0.503,0 -1.51,-0.1016 -3.025,-0.2996 -0.152,-0.4051 -0.227,-3.1539 -0.227,-8.2442 l 0,-13.3359 c 0,-4.0031 0.107,-6.6055 0.331,-7.8149 0.08,-0.4878 0.364,-0.8 0.856,-0.9335 0.15,-0.0356 1.302,-0.1211 3.455,-0.2528 l 0.271,-0.2781 0,-1.6621 -0.252,-0.252 c -2.3,0.1032 -5.055,0.1492 -8.266,0.1492 -3.614,0 -6.203,-0.046 -7.765,-0.1492 l -0.252,0.2274 0,1.6867 0.28,0.2781 c 1.697,0.1008 2.671,0.1848 2.923,0.2528 0.486,0.1335 0.77,0.4457 0.857,0.9335 0.219,1.2094 0.329,3.8118 0.329,7.8149 l 0,13.3359 c 0,3.9985 -0.11,6.6039 -0.329,7.8137 -0.087,0.4871 -0.371,0.798 -0.857,0.9324 -0.252,0.068 -1.235,0.152 -2.951,0.2535 l -0.252,0.2793 0,1.6606 0.28,0.2543 c 1.644,-0.102 4.172,-0.152 7.583,-0.152 1.413,0 3.452,0.0235 6.103,0.0739 2.656,0.0511 4.183,0.0781 4.589,0.0781 4.606,0 7.595,-1.1699 8.975,-3.5082 0.7,-1.209 1.059,-2.6703 1.059,-4.3848"
           style="fill:#231f20;fill-opacity:1;fill-rule:nonzero;stroke:none"
           id="path92" /><path
           d="m 323.301,42.6758 -0.248,-0.252 c -0.121,0 -0.44,0.0075 -0.961,0.0235 -2.3,0.084 -3.738,0.1257 -4.306,0.1257 -0.862,0 -2.219,-0.046 -4.091,-0.1492 -0.063,0.4043 -0.382,1.0739 -0.955,2.0188 l -6.25,10.4363 -2.8,4.2594 c -0.353,0.5187 -0.844,1.0328 -1.487,1.5359 l 0.277,0.8578 c 0.389,-0.0175 0.672,-0.0261 0.857,-0.0261 1.646,0 2.946,0.2617 3.883,0.7812 0.86,0.4703 1.649,1.2965 2.372,2.4707 0.721,1.1762 1.083,2.5809 1.083,4.209 0,2.8395 -1.06,4.7598 -3.178,5.75 -1.007,0.4707 -2.479,0.7051 -4.409,0.7051 -0.841,0 -1.65,-0.0664 -2.419,-0.2012 -0.174,-1.648 -0.254,-4.4531 -0.254,-8.4223 l 0,-13.1812 c 0,-4.0031 0.109,-6.6055 0.324,-7.8149 0.086,-0.4878 0.372,-0.8 0.857,-0.9335 0.257,-0.068 1.238,-0.152 2.95,-0.2528 l 0.256,-0.2504 0,-1.6898 -0.227,-0.252 c -1.684,0.1032 -4.269,0.1492 -7.765,0.1492 -3.614,0 -6.201,-0.046 -7.767,-0.1492 l -0.251,0.2274 0,1.7144 0.251,0.2504 c 1.714,0.1008 2.697,0.1848 2.953,0.2528 0.484,0.1335 0.772,0.4457 0.856,0.9335 0.222,1.2094 0.33,3.8118 0.33,7.8149 l 0,13.3359 c 0,3.9985 -0.108,6.6039 -0.33,7.8137 -0.084,0.4871 -0.372,0.798 -0.856,0.9324 -0.256,0.068 -1.239,0.152 -2.953,0.2535 l -0.251,0.2512 0,1.7129 0.251,0.2301 c 1.649,-0.102 4.237,-0.152 7.767,-0.152 2.049,0 3.714,0.0235 4.994,0.0739 2.535,0.1015 4.438,0.1503 5.693,0.1503 2.911,0 5.042,-0.2597 6.403,-0.7808 1.832,-0.7035 3.062,-1.8996 3.679,-3.582 0.304,-0.8215 0.457,-1.7954 0.457,-2.9208 0,-4.5699 -2.573,-7.8156 -7.715,-9.732 0.843,-1.4105 1.731,-2.8398 2.675,-4.284 l 3.882,-5.9742 c 2.283,-3.5305 3.806,-5.541 4.56,-6.0281 0.387,-0.2524 0.923,-0.3762 1.615,-0.3762 l 0.248,-0.2504 0,-1.6148"
           style="fill:#231f20;fill-opacity:1;fill-rule:nonzero;stroke:none"
           id="path94" /><path
           d="m 357.438,77.9949 c -0.204,-1.2469 -0.313,-2.5316 -0.331,-3.8597 l -0.044,-4.2094 -0.256,-0.2535 -1.588,0 -0.276,0.2285 c -0.087,2.15 -0.176,3.4129 -0.283,3.7805 -0.2,0.6742 -0.74,1.0691 -1.612,1.1875 -0.338,0.0496 -1.915,0.075 -4.736,0.075 l -3.379,0 C 344.897,74.3555 344.88,72.018 344.88,67.934 l 0,-14.3168 c 0,-4.0031 0.111,-6.6055 0.33,-7.8149 0.085,-0.4878 0.371,-0.8 0.856,-0.9335 0.255,-0.068 1.239,-0.152 2.953,-0.2528 l 0.251,-0.2504 0,-1.6898 -0.251,-0.252 c -1.665,0.1032 -4.254,0.1492 -7.767,0.1492 -3.6,0 -6.184,-0.046 -7.766,-0.1492 l -0.226,0.2274 0,1.7144 0.253,0.2504 c 1.715,0.1008 2.696,0.1848 2.951,0.2528 0.486,0.1335 0.772,0.4457 0.858,0.9335 0.215,1.2094 0.327,3.8118 0.327,7.8149 l 0,14.3168 c 0,4.1519 -0.028,6.4894 -0.078,7.0098 l -3.604,0 c -3.01,0 -4.763,-0.0946 -5.267,-0.2774 -0.271,-0.1027 -0.454,-0.2285 -0.557,-0.3773 -0.148,-0.2719 -0.275,-0.809 -0.38,-1.6164 -0.118,-0.8879 -0.191,-1.8067 -0.226,-2.7469 l -0.251,-0.2535 -1.589,0 -0.278,0.2535 -0.05,4.3125 c -0.013,1.2113 -0.118,2.4609 -0.304,3.7566 l 0.233,0.2492 c 0.989,-0.1652 4.6,-0.2492 10.836,-0.2492 l 10.21,0 c 5.75,0 9.361,0.084 10.84,0.2492 l 0.254,-0.2492"
           style="fill:#231f20;fill-opacity:1;fill-rule:nonzero;stroke:none"
           id="path96" /><path
           d="m 253.641,61.3832 c 0,-3.9695 0.544,-7.2555 1.634,-9.8535 1.091,-2.5981 2.486,-4.4344 4.187,-5.509 1.704,-1.0727 3.715,-1.6086 6.029,-1.6086 2.145,0 4.063,0.5106 5.759,1.5332 1.695,1.0215 3.021,2.752 3.983,5.1879 0.962,2.4359 1.444,5.3938 1.444,8.8695 0,2.386 -0.26,4.5661 -0.781,6.5418 -0.518,1.9778 -1.261,3.6606 -2.233,5.0489 -0.973,1.3894 -2.115,2.4504 -3.434,3.1836 -1.32,0.7316 -3.071,1.0988 -5.25,1.0988 -2.485,0 -4.6,-0.5844 -6.345,-1.7524 -1.747,-1.1668 -3.014,-2.8914 -3.808,-5.1757 -0.789,-2.2813 -1.185,-4.8047 -1.185,-7.5645 z m -7.865,-1.5203 c 0,3.1156 0.472,5.8301 1.418,8.1453 0.943,2.3164 2.291,4.2828 4.045,5.9 1.753,1.618 3.663,2.7836 5.723,3.4981 2.639,0.9027 5.516,1.3542 8.631,1.3542 3.098,0 5.905,-0.4339 8.428,-1.3015 1.873,-0.6645 3.531,-1.6227 4.965,-2.8735 1.441,-1.2515 2.535,-2.5332 3.285,-3.8437 0.749,-1.3113 1.316,-2.75 1.699,-4.3156 0.381,-1.5668 0.572,-3.2946 0.572,-5.1856 0,-3.2011 -0.554,-6.1715 -1.661,-8.9125 -0.817,-2.0426 -2.014,-3.857 -3.588,-5.4394 -1.573,-1.5824 -3.367,-2.8008 -5.376,-3.6535 -2.757,-1.1391 -5.908,-1.7098 -9.449,-1.7098 -3.831,0 -7.118,0.6934 -9.869,2.082 -2.752,1.3875 -4.908,3.4348 -6.473,6.1414 -1.568,2.7078 -2.35,6.0774 -2.35,10.1141"
           style="fill:#211c1d;fill-opacity:1;fill-rule:nonzero;stroke:none"
           id="path98" /></g></g></g></svg>